<ttFont>
    <TTGlyph name=".notdef" xMin="66" yMin="-100" xMax="1938" yMax="1309">
      <contour>
        <pt x="1356" y="385" on="1"/>
        <pt x="1360" y="386" on="0"/>
        <pt x="1378" y="405" on="0"/>
        <pt x="1398" y="429" on="0"/>
        <pt x="1412" y="451" on="0"/>
        <pt x="1411" y="455" on="1"/>
        <pt x="1386" y="478" on="0"/>
        <pt x="1287" y="560" on="0"/>
        <pt x="1227" y="614" on="1"/>
        <pt x="1276" y="680" on="0"/>
        <pt x="1356" y="784" on="0"/>
        <pt x="1376" y="813" on="1"/>
        <pt x="1364" y="824" on="0"/>
        <pt x="1320" y="857" on="0"/>
        <pt x="1300" y="866" on="1"/>
        <pt x="1149" y="676" on="1"/>
        <pt x="1118" y="700" on="0"/>
        <pt x="1059" y="746" on="0"/>
        <pt x="1007" y="785" on="0"/>
        <pt x="965" y="815" on="0"/>
        <pt x="950" y="825" on="1"/>
        <pt x="939" y="813" on="0"/>
        <pt x="906" y="770" on="0"/>
        <pt x="897" y="745" on="1"/>
        <pt x="1083" y="598" on="1"/>
        <pt x="936" y="408" on="1"/>
        <pt x="937" y="403" on="0"/>
        <pt x="956" y="384" on="0"/>
        <pt x="980" y="365" on="0"/>
        <pt x="1002" y="351" on="0"/>
        <pt x="1006" y="352" on="1"/>
        <pt x="1165" y="532" on="1"/>
      </contour>
      <contour>
        <pt x="1804" y="1026" on="1"/>
        <pt x="1802" y="1028" on="1"/>
        <pt x="1801" y="977" on="0"/>
        <pt x="1788" y="857" on="0"/>
        <pt x="1750" y="725" on="0"/>
        <pt x="1682" y="582" on="0"/>
        <pt x="1573" y="434" on="0"/>
        <pt x="1416" y="284" on="0"/>
        <pt x="1309" y="211" on="1"/>
        <pt x="1309" y="206" on="0"/>
        <pt x="1306" y="189" on="0"/>
        <pt x="1298" y="173" on="0"/>
        <pt x="1284" y="162" on="0"/>
        <pt x="1272" y="162" on="1"/>
        <pt x="1247" y="137" on="1"/>
        <pt x="1295" y="120" on="0"/>
        <pt x="1394" y="82" on="0"/>
        <pt x="1442" y="59" on="1"/>
        <pt x="1458" y="59" on="0"/>
        <pt x="1497" y="61" on="0"/>
        <pt x="1541" y="56" on="0"/>
        <pt x="1588" y="41" on="0"/>
        <pt x="1612" y="23" on="1"/>
        <pt x="1612" y="15" on="0"/>
        <pt x="1609" y="13" on="0"/>
        <pt x="1604" y="8" on="1"/>
        <pt x="1575" y="22" on="0"/>
        <pt x="1523" y="40" on="0"/>
        <pt x="1485" y="35" on="1"/>
        <pt x="1505" y="24" on="0"/>
        <pt x="1544" y="-2" on="0"/>
        <pt x="1561" y="-27" on="1"/>
        <pt x="1558" y="-36" on="0"/>
        <pt x="1542" y="-39" on="1"/>
        <pt x="1513" y="-10" on="0"/>
        <pt x="1449" y="29" on="0"/>
        <pt x="1411" y="27" on="1"/>
        <pt x="1394" y="27" on="0"/>
        <pt x="1371" y="24" on="0"/>
        <pt x="1349" y="16" on="0"/>
        <pt x="1325" y="5" on="0"/>
        <pt x="1307" y="-2" on="1"/>
        <pt x="1304" y="0" on="0"/>
        <pt x="1300" y="1" on="0"/>
        <pt x="1297" y="1" on="0"/>
        <pt x="1295" y="5" on="0"/>
        <pt x="1294" y="10" on="1"/>
        <pt x="1304" y="22" on="0"/>
        <pt x="1323" y="34" on="0"/>
        <pt x="1343" y="42" on="0"/>
        <pt x="1367" y="48" on="0"/>
        <pt x="1382" y="53" on="1"/>
        <pt x="1349" y="71" on="0"/>
        <pt x="1285" y="96" on="0"/>
        <pt x="1235" y="113" on="0"/>
        <pt x="1204" y="125" on="0"/>
        <pt x="1204" y="131" on="1"/>
        <pt x="1204" y="144" on="0"/>
        <pt x="1227" y="162" on="1"/>
        <pt x="1218" y="162" on="0"/>
        <pt x="1205" y="172" on="0"/>
        <pt x="1195" y="185" on="0"/>
        <pt x="1189" y="198" on="0"/>
        <pt x="1188" y="201" on="1"/>
        <pt x="1133" y="201" on="1"/>
        <pt x="1104" y="201" on="0"/>
        <pt x="1049" y="204" on="0"/>
        <pt x="1020" y="209" on="1"/>
        <pt x="1018" y="203" on="0"/>
        <pt x="1009" y="185" on="0"/>
        <pt x="995" y="169" on="0"/>
        <pt x="977" y="160" on="0"/>
        <pt x="965" y="162" on="1"/>
        <pt x="944" y="151" on="0"/>
        <pt x="934" y="141" on="1"/>
        <pt x="976" y="115" on="0"/>
        <pt x="1063" y="60" on="0"/>
        <pt x="1106" y="25" on="1"/>
        <pt x="1123" y="21" on="0"/>
        <pt x="1160" y="16" on="0"/>
        <pt x="1198" y="5" on="0"/>
        <pt x="1235" y="-19" on="0"/>
        <pt x="1253" y="-43" on="1"/>
        <pt x="1253" y="-51" on="0"/>
        <pt x="1248" y="-52" on="0"/>
        <pt x="1243" y="-57" on="1"/>
        <pt x="1231" y="-46" on="0"/>
        <pt x="1212" y="-31" on="0"/>
        <pt x="1191" y="-20" on="0"/>
        <pt x="1164" y="-13" on="0"/>
        <pt x="1143" y="-10" on="1"/>
        <pt x="1184" y="-37" on="0"/>
        <pt x="1198" y="-90" on="1"/>
        <pt x="1196" y="-95" on="0"/>
        <pt x="1190" y="-100" on="0"/>
        <pt x="1182" y="-98" on="1"/>
        <pt x="1162" y="-66" on="0"/>
        <pt x="1110" y="-10" on="0"/>
        <pt x="1073" y="-2" on="1"/>
        <pt x="1041" y="3" on="0"/>
        <pt x="968" y="-3" on="0"/>
        <pt x="930" y="-12" on="1"/>
        <pt x="924" y="-3" on="0"/>
        <pt x="924" y="4" on="1"/>
        <pt x="948" y="21" on="0"/>
        <pt x="1008" y="27" on="0"/>
        <pt x="1040" y="29" on="1"/>
        <pt x="1014" y="50" on="0"/>
        <pt x="960" y="86" on="0"/>
        <pt x="915" y="114" on="0"/>
        <pt x="887" y="137" on="0"/>
        <pt x="887" y="145" on="1"/>
        <pt x="887" y="156" on="0"/>
        <pt x="901" y="163" on="0"/>
        <pt x="913" y="174" on="1"/>
        <pt x="906" y="181" on="0"/>
        <pt x="900" y="199" on="0"/>
        <pt x="897" y="217" on="0"/>
        <pt x="898" y="234" on="0"/>
        <pt x="899" y="240" on="1"/>
        <pt x="809" y="289" on="0"/>
        <pt x="671" y="412" on="0"/>
        <pt x="566" y="539" on="0"/>
        <pt x="489" y="660" on="0"/>
        <pt x="461" y="707" on="1"/>
        <pt x="406" y="725" on="0"/>
        <pt x="298" y="762" on="0"/>
        <pt x="199" y="801" on="0"/>
        <pt x="113" y="845" on="0"/>
        <pt x="80" y="872" on="1"/>
        <pt x="66" y="885" on="0"/>
        <pt x="72" y="918" on="0"/>
        <pt x="92" y="918" on="1"/>
        <pt x="616" y="872" on="1"/>
        <pt x="791" y="908" on="0"/>
        <pt x="1034" y="953" on="0"/>
        <pt x="1194" y="992" on="0"/>
        <pt x="1284" y="1034" on="0"/>
        <pt x="1307" y="1067" on="1"/>
        <pt x="1338" y="1121" on="0"/>
        <pt x="1399" y="1198" on="0"/>
        <pt x="1466" y="1246" on="0"/>
        <pt x="1541" y="1268" on="0"/>
        <pt x="1585" y="1268" on="1"/>
        <pt x="1613" y="1268" on="0"/>
        <pt x="1661" y="1260" on="0"/>
        <pt x="1681" y="1253" on="1"/>
        <pt x="1681" y="1255" on="1"/>
        <pt x="1833" y="1309" on="1"/>
        <pt x="1835" y="1309" on="0"/>
        <pt x="1839" y="1308" on="0"/>
        <pt x="1839" y="1305" on="1"/>
        <pt x="1839" y="1303" on="1"/>
        <pt x="1788" y="1161" on="1"/>
        <pt x="1931" y="1167" on="1"/>
        <pt x="1938" y="1167" on="0"/>
        <pt x="1935" y="1161" on="1"/>
      </contour>
    </TTGlyph>
    <TTGlyph name="A" xMin="61" yMin="-18" xMax="1462" yMax="1466">
      <contour>
        <pt x="672" y="1386" on="1"/>
        <pt x="706" y="1407" on="0"/>
        <pt x="750" y="1466" on="1"/>
        <pt x="760" y="1466" on="1"/>
        <pt x="1311" y="139" on="1"/>
        <pt x="1348" y="50" on="0"/>
        <pt x="1462" y="14" on="1"/>
        <pt x="1462" y="-4" on="1"/>
        <pt x="1397" y="3" on="0"/>
        <pt x="1215" y="-6" on="0"/>
        <pt x="1145" y="-18" on="1"/>
        <pt x="1137" y="-8" on="1"/>
        <pt x="1157" y="18" on="0"/>
        <pt x="1136" y="140" on="0"/>
        <pt x="1085" y="264" on="1"/>
        <pt x="920" y="678" on="1"/>
        <pt x="626" y="683" on="0"/>
        <pt x="434" y="676" on="1"/>
        <pt x="203" y="139" on="1"/>
        <pt x="182" y="93" on="0"/>
        <pt x="255" y="31" on="0"/>
        <pt x="362" y="10" on="1"/>
        <pt x="358" y="-8" on="1"/>
        <pt x="184" y="5" on="0"/>
        <pt x="74" y="0" on="1"/>
        <pt x="68" y="6" on="0"/>
        <pt x="61" y="20" on="1"/>
      </contour>
      <contour>
        <pt x="461" y="735" on="1"/>
        <pt x="606" y="731" on="0"/>
        <pt x="895" y="735" on="1"/>
        <pt x="686" y="1257" on="1"/>
      </contour>
    </TTGlyph>
    <TTGlyph name="AE" xMin="61" yMin="-10" xMax="1561" yMax="1475">
      <contour>
        <pt x="895" y="719" on="1"/>
        <pt x="895" y="61" on="1"/>
        <pt x="1206" y="72" on="1"/>
        <pt x="1279" y="74" on="0"/>
        <pt x="1381" y="103" on="0"/>
        <pt x="1455" y="166" on="0"/>
        <pt x="1502" y="234" on="0"/>
        <pt x="1532" y="293" on="1"/>
        <pt x="1561" y="281" on="1"/>
        <pt x="1462" y="14" on="1"/>
        <pt x="1446" y="0" on="1"/>
        <pt x="760" y="0" on="1"/>
        <pt x="741" y="42" on="0"/>
        <pt x="741" y="98" on="1"/>
        <pt x="741" y="717" on="1"/>
        <pt x="565" y="714" on="0"/>
        <pt x="451" y="707" on="1"/>
        <pt x="203" y="137" on="1"/>
        <pt x="182" y="91" on="0"/>
        <pt x="255" y="29" on="0"/>
        <pt x="362" y="8" on="1"/>
        <pt x="358" y="-10" on="1"/>
        <pt x="184" y="3" on="0"/>
        <pt x="74" y="-2" on="1"/>
        <pt x="61" y="18" on="1"/>
        <pt x="684" y="1419" on="1"/>
        <pt x="1054" y="1475" on="0"/>
        <pt x="1495" y="1444" on="1"/>
        <pt x="1501" y="1427" on="1"/>
        <pt x="1407" y="1178" on="1"/>
        <pt x="1374" y="1188" on="1"/>
        <pt x="1386" y="1241" on="0"/>
        <pt x="1391" y="1346" on="0"/>
        <pt x="1382" y="1378" on="1"/>
        <pt x="1126" y="1405" on="0"/>
        <pt x="895" y="1380" on="1"/>
        <pt x="895" y="788" on="1"/>
        <pt x="1380" y="803" on="1"/>
        <pt x="1391" y="795" on="1"/>
        <pt x="1343" y="715" on="1"/>
        <pt x="1192" y="722" on="0"/>
      </contour>
      <contour>
        <pt x="741" y="1358" on="1"/>
        <pt x="733" y="1356" on="1"/>
        <pt x="479" y="776" on="1"/>
        <pt x="741" y="784" on="1"/>
      </contour>
    </TTGlyph>
    <TTGlyph name="Aacute" xMin="61" yMin="-18" xMax="1462" yMax="1847">
      <component glyphName="A" x="0" y="0" flags="0x4"/>
      <component glyphName="acute.case" x="336" y="0" flags="0x4"/>
    </TTGlyph>
    <TTGlyph name="Acircumflex" xMin="61" yMin="-18" xMax="1462" yMax="1890">
      <component glyphName="A" x="0" y="0" flags="0x4"/>
      <component glyphName="circumflex.case" x="261" y="0" flags="0x4"/>
    </TTGlyph>
    <TTGlyph name="Adieresis" xMin="61" yMin="-18" xMax="1462" yMax="1819">
      <component glyphName="A" x="0" y="0" flags="0x4"/>
      <component glyphName="dieresis.case" x="287" y="0" flags="0x4"/>
    </TTGlyph>
    <TTGlyph name="Agrave" xMin="61" yMin="-18" xMax="1462" yMax="1847">
      <component glyphName="A" x="0" y="0" flags="0x4"/>
      <component glyphName="grave.case" x="315" y="0" flags="0x4"/>
    </TTGlyph>
    <TTGlyph name="Aring" xMin="61" yMin="-18" xMax="1462" yMax="1901">
      <component glyphName="A" x="0" y="0" flags="0x4"/>
      <component glyphName="ring" x="418" y="297" flags="0x4"/>
    </TTGlyph>
    <TTGlyph name="Atilde" xMin="61" yMin="-18" xMax="1462" yMax="1815">
      <component glyphName="A" x="0" y="0" flags="0x4"/>
      <component glyphName="tilde.case" x="252" y="0" flags="0x4"/>
    </TTGlyph>
    <TTGlyph name="B" xMin="133" yMin="-20" xMax="1165" yMax="1454">
      <contour>
        <pt x="700" y="6" on="1"/>
        <pt x="465" y="-2" on="1"/>
        <pt x="411" y="-4" on="0"/>
        <pt x="328" y="-14" on="0"/>
        <pt x="299" y="-20" on="1"/>
        <pt x="293" y="-10" on="1"/>
        <pt x="313" y="19" on="0"/>
        <pt x="313" y="96" on="1"/>
        <pt x="313" y="1151" on="1"/>
        <pt x="313" y="1219" on="0"/>
        <pt x="301" y="1309" on="0"/>
        <pt x="268" y="1362" on="0"/>
        <pt x="211" y="1383" on="0"/>
        <pt x="145" y="1383" on="0"/>
        <pt x="137" y="1382" on="1"/>
        <pt x="133" y="1411" on="1"/>
        <pt x="254" y="1427" on="0"/>
        <pt x="489" y="1451" on="0"/>
        <pt x="573" y="1454" on="0"/>
        <pt x="612" y="1454" on="1"/>
        <pt x="721" y="1454" on="0"/>
        <pt x="890" y="1427" on="0"/>
        <pt x="1005" y="1365" on="0"/>
        <pt x="1065" y="1266" on="0"/>
        <pt x="1065" y="1194" on="1"/>
        <pt x="1065" y="1132" on="0"/>
        <pt x="1017" y="1020" on="0"/>
        <pt x="932" y="924" on="0"/>
        <pt x="818" y="846" on="0"/>
        <pt x="752" y="819" on="1"/>
        <pt x="752" y="811" on="1"/>
        <pt x="830" y="801" on="0"/>
        <pt x="979" y="751" on="0"/>
        <pt x="1095" y="662" on="0"/>
        <pt x="1165" y="531" on="0"/>
        <pt x="1165" y="440" on="1"/>
        <pt x="1165" y="333" on="0"/>
        <pt x="1084" y="170" on="0"/>
        <pt x="952" y="61" on="0"/>
        <pt x="785" y="6" on="0"/>
      </contour>
      <contour>
        <pt x="467" y="1313" on="1"/>
        <pt x="467" y="63" on="1"/>
        <pt x="639" y="55" on="1"/>
        <pt x="805" y="47" on="0"/>
        <pt x="1008" y="224" on="0"/>
        <pt x="1008" y="406" on="1"/>
        <pt x="1008" y="501" on="0"/>
        <pt x="934" y="648" on="0"/>
        <pt x="803" y="736" on="0"/>
        <pt x="635" y="780" on="0"/>
        <pt x="535" y="778" on="1"/>
        <pt x="535" y="821" on="1"/>
        <pt x="630" y="823" on="0"/>
        <pt x="798" y="901" on="0"/>
        <pt x="911" y="1060" on="0"/>
        <pt x="911" y="1165" on="1"/>
        <pt x="911" y="1256" on="0"/>
        <pt x="836" y="1354" on="0"/>
        <pt x="712" y="1394" on="0"/>
        <pt x="550" y="1390" on="0"/>
        <pt x="463" y="1378" on="1"/>
        <pt x="462" y="1378" on="0"/>
        <pt x="461" y="1378" on="1"/>
        <pt x="467" y="1345" on="0"/>
      </contour>
    </TTGlyph>
    <TTGlyph name="C" xMin="143" yMin="-41" xMax="1337" yMax="1499">
      <contour>
        <pt x="1180" y="1346" on="1"/>
        <pt x="1019" y="1427" on="0"/>
        <pt x="860" y="1427" on="1"/>
        <pt x="734" y="1427" on="0"/>
        <pt x="532" y="1346" on="0"/>
        <pt x="389" y="1172" on="0"/>
        <pt x="313" y="902" on="0"/>
        <pt x="313" y="713" on="1"/>
        <pt x="313" y="617" on="0"/>
        <pt x="351" y="441" on="0"/>
        <pt x="422" y="288" on="0"/>
        <pt x="525" y="163" on="0"/>
        <pt x="655" y="74" on="0"/>
        <pt x="810" y="25" on="0"/>
        <pt x="897" y="25" on="1"/>
        <pt x="960" y="25" on="0"/>
        <pt x="1063" y="37" on="0"/>
        <pt x="1155" y="68" on="0"/>
        <pt x="1245" y="123" on="0"/>
        <pt x="1296" y="166" on="1"/>
        <pt x="1337" y="119" on="1"/>
        <pt x="1278" y="75" on="0"/>
        <pt x="1168" y="15" on="0"/>
        <pt x="1053" y="-24" on="0"/>
        <pt x="925" y="-41" on="0"/>
        <pt x="848" y="-41" on="1"/>
        <pt x="696" y="-41" on="0"/>
        <pt x="437" y="69" on="0"/>
        <pt x="249" y="270" on="0"/>
        <pt x="143" y="555" on="0"/>
        <pt x="143" y="729" on="1"/>
        <pt x="143" y="907" on="0"/>
        <pt x="260" y="1192" on="0"/>
        <pt x="466" y="1392" on="0"/>
        <pt x="746" y="1499" on="0"/>
        <pt x="909" y="1499" on="1"/>
        <pt x="1115" y="1499" on="0"/>
        <pt x="1303" y="1397" on="1"/>
        <pt x="1271" y="1235" on="0"/>
        <pt x="1204" y="1096" on="1"/>
        <pt x="1178" y="1110" on="1"/>
        <pt x="1190" y="1183" on="0"/>
        <pt x="1190" y="1255" on="1"/>
        <pt x="1190" y="1319" on="0"/>
      </contour>
    </TTGlyph>
    <TTGlyph name="Ccedilla" xMin="143" yMin="-430" xMax="1337" yMax="1499">
      <component glyphName="C" x="0" y="0" flags="0x204"/>
      <component glyphName="cedilla" x="526" y="0" flags="0x4"/>
    </TTGlyph>
    <TTGlyph name="D" xMin="133" yMin="-18" xMax="1550" yMax="1457">
      <contour>
        <pt x="467" y="1333" on="1"/>
        <pt x="467" y="88" on="1"/>
        <pt x="521" y="81" on="0"/>
        <pt x="621" y="74" on="0"/>
        <pt x="669" y="74" on="1"/>
        <pt x="838" y="74" on="0"/>
        <pt x="1106" y="161" on="0"/>
        <pt x="1292" y="338" on="0"/>
        <pt x="1391" y="603" on="0"/>
        <pt x="1391" y="782" on="1"/>
        <pt x="1390" y="900" on="0"/>
        <pt x="1332" y="1082" on="0"/>
        <pt x="1228" y="1217" on="0"/>
        <pt x="1087" y="1308" on="0"/>
        <pt x="922" y="1365" on="0"/>
        <pt x="739" y="1389" on="0"/>
        <pt x="645" y="1389" on="1"/>
        <pt x="600" y="1389" on="0"/>
        <pt x="510" y="1383" on="0"/>
        <pt x="463" y="1378" on="1"/>
        <pt x="465" y="1364" on="0"/>
        <pt x="467" y="1341" on="0"/>
      </contour>
      <contour>
        <pt x="133" y="1411" on="1"/>
        <pt x="220" y="1422" on="0"/>
        <pt x="358" y="1439" on="0"/>
        <pt x="488" y="1451" on="0"/>
        <pt x="626" y="1457" on="0"/>
        <pt x="713" y="1457" on="1"/>
        <pt x="788" y="1457" on="0"/>
        <pt x="912" y="1449" on="0"/>
        <pt x="1023" y="1430" on="0"/>
        <pt x="1130" y="1399" on="0"/>
        <pt x="1189" y="1377" on="1"/>
        <pt x="1268" y="1347" on="0"/>
        <pt x="1401" y="1246" on="0"/>
        <pt x="1497" y="1100" on="0"/>
        <pt x="1550" y="906" on="0"/>
        <pt x="1550" y="782" on="1"/>
        <pt x="1549" y="635" on="0"/>
        <pt x="1475" y="405" on="0"/>
        <pt x="1343" y="231" on="0"/>
        <pt x="1162" y="109" on="0"/>
        <pt x="950" y="33" on="0"/>
        <pt x="714" y="-1" on="0"/>
        <pt x="593" y="-1" on="1"/>
        <pt x="583" y="-1" on="0"/>
        <pt x="472" y="-2" on="0"/>
        <pt x="346" y="-12" on="0"/>
        <pt x="299" y="-18" on="1"/>
        <pt x="293" y="-8" on="1"/>
        <pt x="313" y="21" on="0"/>
        <pt x="313" y="98" on="1"/>
        <pt x="313" y="1151" on="1"/>
        <pt x="313" y="1217" on="0"/>
        <pt x="301" y="1306" on="0"/>
        <pt x="269" y="1360" on="0"/>
        <pt x="211" y="1383" on="0"/>
        <pt x="159" y="1383" on="0"/>
        <pt x="145" y="1383" on="0"/>
        <pt x="137" y="1382" on="1"/>
      </contour>
    </TTGlyph>
    <TTGlyph name="E" xMin="133" yMin="0" xMax="1174" yMax="1456">
      <contour>
        <pt x="467" y="61" on="1"/>
        <pt x="819" y="72" on="1"/>
        <pt x="892" y="74" on="0"/>
        <pt x="992" y="104" on="0"/>
        <pt x="1064" y="159" on="0"/>
        <pt x="1118" y="240" on="0"/>
        <pt x="1145" y="293" on="1"/>
        <pt x="1174" y="281" on="1"/>
        <pt x="1075" y="14" on="1"/>
        <pt x="1059" y="0" on="1"/>
        <pt x="332" y="0" on="1"/>
        <pt x="313" y="41" on="0"/>
        <pt x="313" y="98" on="1"/>
        <pt x="313" y="1161" on="1"/>
        <pt x="313" y="1227" on="0"/>
        <pt x="301" y="1312" on="0"/>
        <pt x="269" y="1363" on="0"/>
        <pt x="212" y="1383" on="0"/>
        <pt x="167" y="1383" on="1"/>
        <pt x="160" y="1383" on="0"/>
        <pt x="145" y="1383" on="0"/>
        <pt x="137" y="1382" on="1"/>
        <pt x="133" y="1411" on="1"/>
        <pt x="418" y="1456" on="0"/>
        <pt x="761" y="1456" on="1"/>
        <pt x="936" y="1456" on="0"/>
        <pt x="1128" y="1444" on="1"/>
        <pt x="1135" y="1427" on="1"/>
        <pt x="1040" y="1178" on="1"/>
        <pt x="1008" y="1188" on="1"/>
        <pt x="1016" y="1226" on="0"/>
        <pt x="1024" y="1290" on="0"/>
        <pt x="1024" y="1351" on="0"/>
        <pt x="1016" y="1378" on="1"/>
        <pt x="941" y="1385" on="0"/>
        <pt x="796" y="1392" on="0"/>
        <pt x="724" y="1392" on="1"/>
        <pt x="593" y="1392" on="0"/>
        <pt x="467" y="1380" on="1"/>
        <pt x="467" y="815" on="1"/>
        <pt x="1014" y="845" on="1"/>
        <pt x="1024" y="834" on="1"/>
        <pt x="977" y="752" on="1"/>
        <pt x="932" y="754" on="0"/>
        <pt x="840" y="756" on="0"/>
        <pt x="792" y="756" on="1"/>
        <pt x="714" y="756" on="0"/>
        <pt x="552" y="750" on="0"/>
        <pt x="467" y="745" on="1"/>
      </contour>
    </TTGlyph>
    <TTGlyph name="Eacute" xMin="133" yMin="0" xMax="1174" yMax="1847">
      <component glyphName="E" x="0" y="0" flags="0x4"/>
      <component glyphName="acute.case" x="274" y="0" flags="0x4"/>
    </TTGlyph>
    <TTGlyph name="Ecircumflex" xMin="133" yMin="0" xMax="1174" yMax="1890">
      <component glyphName="E" x="0" y="0" flags="0x4"/>
      <component glyphName="circumflex.case" x="264" y="0" flags="0x4"/>
    </TTGlyph>
    <TTGlyph name="Edieresis" xMin="133" yMin="0" xMax="1174" yMax="1819">
      <component glyphName="E" x="0" y="0" flags="0x4"/>
      <component glyphName="dieresis.case" x="309" y="0" flags="0x4"/>
    </TTGlyph>
    <TTGlyph name="Egrave" xMin="133" yMin="0" xMax="1174" yMax="1847">
      <component glyphName="E" x="0" y="0" flags="0x4"/>
      <component glyphName="grave.case" x="315" y="0" flags="0x4"/>
    </TTGlyph>
    <TTGlyph name="Eth" xMin="74" yMin="-18" xMax="1550" yMax="1457">
      <contour>
        <pt x="467" y="1333" on="1"/>
        <pt x="467" y="791" on="1"/>
        <pt x="490" y="790" on="0"/>
        <pt x="537" y="790" on="0"/>
        <pt x="650" y="790" on="0"/>
        <pt x="850" y="796" on="0"/>
        <pt x="965" y="801" on="1"/>
        <pt x="965" y="702" on="1"/>
        <pt x="746" y="711" on="0"/>
        <pt x="467" y="711" on="1"/>
        <pt x="467" y="88" on="1"/>
        <pt x="521" y="81" on="0"/>
        <pt x="621" y="74" on="0"/>
        <pt x="669" y="74" on="1"/>
        <pt x="838" y="74" on="0"/>
        <pt x="1106" y="161" on="0"/>
        <pt x="1292" y="338" on="0"/>
        <pt x="1391" y="603" on="0"/>
        <pt x="1391" y="782" on="1"/>
        <pt x="1390" y="900" on="0"/>
        <pt x="1332" y="1082" on="0"/>
        <pt x="1228" y="1217" on="0"/>
        <pt x="1087" y="1308" on="0"/>
        <pt x="922" y="1365" on="0"/>
        <pt x="739" y="1389" on="0"/>
        <pt x="645" y="1389" on="1"/>
        <pt x="600" y="1389" on="0"/>
        <pt x="510" y="1383" on="0"/>
        <pt x="463" y="1378" on="1"/>
        <pt x="465" y="1364" on="0"/>
        <pt x="467" y="1341" on="0"/>
      </contour>
      <contour>
        <pt x="133" y="1411" on="1"/>
        <pt x="220" y="1422" on="0"/>
        <pt x="358" y="1439" on="0"/>
        <pt x="488" y="1451" on="0"/>
        <pt x="626" y="1457" on="0"/>
        <pt x="713" y="1457" on="1"/>
        <pt x="788" y="1457" on="0"/>
        <pt x="912" y="1449" on="0"/>
        <pt x="1023" y="1430" on="0"/>
        <pt x="1130" y="1399" on="0"/>
        <pt x="1189" y="1377" on="1"/>
        <pt x="1268" y="1347" on="0"/>
        <pt x="1401" y="1246" on="0"/>
        <pt x="1497" y="1100" on="0"/>
        <pt x="1550" y="906" on="0"/>
        <pt x="1550" y="782" on="1"/>
        <pt x="1549" y="635" on="0"/>
        <pt x="1475" y="405" on="0"/>
        <pt x="1343" y="231" on="0"/>
        <pt x="1162" y="109" on="0"/>
        <pt x="950" y="33" on="0"/>
        <pt x="714" y="-1" on="0"/>
        <pt x="593" y="-1" on="1"/>
        <pt x="583" y="-1" on="0"/>
        <pt x="472" y="-2" on="0"/>
        <pt x="346" y="-12" on="0"/>
        <pt x="299" y="-18" on="1"/>
        <pt x="293" y="-8" on="1"/>
        <pt x="313" y="21" on="0"/>
        <pt x="313" y="98" on="1"/>
        <pt x="313" y="709" on="1"/>
        <pt x="287" y="709" on="0"/>
        <pt x="168" y="706" on="0"/>
        <pt x="74" y="702" on="1"/>
        <pt x="74" y="801" on="1"/>
        <pt x="115" y="799" on="0"/>
        <pt x="234" y="795" on="0"/>
        <pt x="313" y="793" on="1"/>
        <pt x="313" y="1151" on="1"/>
        <pt x="313" y="1217" on="0"/>
        <pt x="301" y="1306" on="0"/>
        <pt x="269" y="1360" on="0"/>
        <pt x="211" y="1383" on="0"/>
        <pt x="145" y="1383" on="0"/>
        <pt x="137" y="1382" on="1"/>
      </contour>
    </TTGlyph>
    <TTGlyph name="Euro" xMin="51" yMin="-41" xMax="1257" yMax="1495">
      <contour>
        <pt x="1120" y="1356" on="1"/>
        <pt x="1010" y="1423" on="0"/>
        <pt x="862" y="1423" on="1"/>
        <pt x="448" y="1423" on="0"/>
        <pt x="387" y="901" on="1"/>
        <pt x="1010" y="907" on="1"/>
        <pt x="1010" y="872" on="1"/>
        <pt x="875" y="827" on="0"/>
        <pt x="774" y="827" on="1"/>
        <pt x="379" y="823" on="1"/>
        <pt x="377" y="788" on="0"/>
        <pt x="377" y="713" on="1"/>
        <pt x="377" y="664" on="1"/>
        <pt x="1010" y="670" on="1"/>
        <pt x="1010" y="635" on="1"/>
        <pt x="881" y="590" on="0"/>
        <pt x="774" y="590" on="1"/>
        <pt x="385" y="586" on="1"/>
        <pt x="416" y="338" on="0"/>
        <pt x="698" y="25" on="0"/>
        <pt x="899" y="25" on="1"/>
        <pt x="997" y="25" on="0"/>
        <pt x="1139" y="82" on="0"/>
        <pt x="1217" y="166" on="1"/>
        <pt x="1257" y="119" on="1"/>
        <pt x="1158" y="32" on="0"/>
        <pt x="976" y="-41" on="0"/>
        <pt x="850" y="-41" on="1"/>
        <pt x="601" y="-41" on="0"/>
        <pt x="253" y="298" on="0"/>
        <pt x="215" y="582" on="1"/>
        <pt x="51" y="573" on="1"/>
        <pt x="51" y="637" on="1"/>
        <pt x="131" y="653" on="0"/>
        <pt x="209" y="659" on="1"/>
        <pt x="207" y="682" on="0"/>
        <pt x="207" y="729" on="1"/>
        <pt x="207" y="791" on="0"/>
        <pt x="211" y="819" on="1"/>
        <pt x="51" y="811" on="1"/>
        <pt x="51" y="874" on="1"/>
        <pt x="124" y="893" on="0"/>
        <pt x="221" y="899" on="1"/>
        <pt x="252" y="1083" on="0"/>
        <pt x="449" y="1355" on="0"/>
        <pt x="738" y="1495" on="0"/>
        <pt x="911" y="1495" on="1"/>
        <pt x="1107" y="1495" on="0"/>
        <pt x="1243" y="1407" on="1"/>
        <pt x="1213" y="1248" on="0"/>
        <pt x="1145" y="1106" on="1"/>
        <pt x="1118" y="1120" on="1"/>
        <pt x="1147" y="1287" on="0"/>
      </contour>
    </TTGlyph>
    <TTGlyph name="F" xMin="133" yMin="-16" xMax="1135" yMax="1456">
      <contour>
        <pt x="467" y="1380" on="1"/>
        <pt x="467" y="817" on="1"/>
        <pt x="973" y="847" on="1"/>
        <pt x="983" y="834" on="1"/>
        <pt x="936" y="752" on="1"/>
        <pt x="896" y="754" on="0"/>
        <pt x="810" y="756" on="0"/>
        <pt x="763" y="756" on="1"/>
        <pt x="695" y="756" on="0"/>
        <pt x="548" y="752" on="0"/>
        <pt x="467" y="748" on="1"/>
        <pt x="467" y="180" on="1"/>
        <pt x="467" y="139" on="0"/>
        <pt x="482" y="81" on="0"/>
        <pt x="518" y="41" on="0"/>
        <pt x="579" y="16" on="0"/>
        <pt x="625" y="8" on="1"/>
        <pt x="616" y="-16" on="1"/>
        <pt x="555" y="-8" on="0"/>
        <pt x="467" y="0" on="0"/>
        <pt x="411" y="0" on="0"/>
        <pt x="341" y="-8" on="0"/>
        <pt x="299" y="-16" on="1"/>
        <pt x="293" y="-6" on="1"/>
        <pt x="313" y="23" on="0"/>
        <pt x="313" y="100" on="1"/>
        <pt x="313" y="1161" on="1"/>
        <pt x="313" y="1227" on="0"/>
        <pt x="301" y="1312" on="0"/>
        <pt x="269" y="1363" on="0"/>
        <pt x="212" y="1383" on="0"/>
        <pt x="167" y="1383" on="1"/>
        <pt x="160" y="1383" on="0"/>
        <pt x="145" y="1383" on="0"/>
        <pt x="137" y="1382" on="1"/>
        <pt x="133" y="1411" on="1"/>
        <pt x="418" y="1456" on="0"/>
        <pt x="761" y="1456" on="1"/>
        <pt x="936" y="1456" on="0"/>
        <pt x="1128" y="1444" on="1"/>
        <pt x="1135" y="1427" on="1"/>
        <pt x="1040" y="1178" on="1"/>
        <pt x="1008" y="1188" on="1"/>
        <pt x="1016" y="1226" on="0"/>
        <pt x="1024" y="1290" on="0"/>
        <pt x="1024" y="1351" on="0"/>
        <pt x="1016" y="1378" on="1"/>
        <pt x="941" y="1385" on="0"/>
        <pt x="796" y="1392" on="0"/>
        <pt x="724" y="1392" on="1"/>
        <pt x="593" y="1392" on="0"/>
      </contour>
    </TTGlyph>
    <TTGlyph name="G" xMin="143" yMin="-41" xMax="1436" yMax="1495">
      <contour>
        <pt x="1264" y="127" on="1"/>
        <pt x="1264" y="291" on="1"/>
        <pt x="1264" y="432" on="0"/>
        <pt x="1196" y="529" on="0"/>
        <pt x="1087" y="522" on="1"/>
        <pt x="1083" y="541" on="1"/>
        <pt x="1248" y="590" on="0"/>
        <pt x="1397" y="590" on="1"/>
        <pt x="1417" y="535" on="0"/>
        <pt x="1417" y="475" on="1"/>
        <pt x="1417" y="188" on="1"/>
        <pt x="1417" y="94" on="0"/>
        <pt x="1436" y="68" on="1"/>
        <pt x="1430" y="57" on="1"/>
        <pt x="1351" y="57" on="0"/>
        <pt x="1167" y="8" on="0"/>
        <pt x="957" y="-41" on="0"/>
        <pt x="848" y="-41" on="1"/>
        <pt x="697" y="-41" on="0"/>
        <pt x="437" y="70" on="0"/>
        <pt x="250" y="268" on="0"/>
        <pt x="143" y="558" on="0"/>
        <pt x="143" y="729" on="1"/>
        <pt x="143" y="886" on="0"/>
        <pt x="228" y="1143" on="0"/>
        <pt x="375" y="1319" on="0"/>
        <pt x="581" y="1440" on="0"/>
        <pt x="818" y="1495" on="0"/>
        <pt x="952" y="1495" on="1"/>
        <pt x="1181" y="1495" on="0"/>
        <pt x="1382" y="1401" on="1"/>
        <pt x="1347" y="1276" on="0"/>
        <pt x="1282" y="1137" on="1"/>
        <pt x="1255" y="1147" on="1"/>
        <pt x="1271" y="1266" on="0"/>
        <pt x="1262" y="1343" on="1"/>
        <pt x="1218" y="1368" on="0"/>
        <pt x="1132" y="1401" on="0"/>
        <pt x="1036" y="1420" on="0"/>
        <pt x="925" y="1427" on="0"/>
        <pt x="856" y="1427" on="1"/>
        <pt x="764" y="1427" on="0"/>
        <pt x="605" y="1380" on="0"/>
        <pt x="467" y="1272" on="0"/>
        <pt x="369" y="1109" on="0"/>
        <pt x="313" y="866" on="0"/>
        <pt x="313" y="713" on="1"/>
        <pt x="313" y="566" on="0"/>
        <pt x="413" y="306" on="0"/>
        <pt x="578" y="128" on="0"/>
        <pt x="794" y="25" on="0"/>
        <pt x="909" y="25" on="1"/>
        <pt x="1023" y="25" on="0"/>
        <pt x="1178" y="66" on="0"/>
      </contour>
    </TTGlyph>
    <TTGlyph name="H" xMin="133" yMin="-16" xMax="1544" yMax="1450">
      <contour>
        <pt x="1386" y="1335" on="1"/>
        <pt x="1386" y="180" on="1"/>
        <pt x="1386" y="99" on="0"/>
        <pt x="1452" y="25" on="0"/>
        <pt x="1544" y="8" on="1"/>
        <pt x="1536" y="-16" on="1"/>
        <pt x="1425" y="-1" on="0"/>
        <pt x="1309" y="1" on="0"/>
        <pt x="1219" y="-16" on="1"/>
        <pt x="1212" y="-6" on="1"/>
        <pt x="1233" y="23" on="0"/>
        <pt x="1233" y="100" on="1"/>
        <pt x="1233" y="758" on="1"/>
        <pt x="792" y="768" on="0"/>
        <pt x="467" y="758" on="1"/>
        <pt x="467" y="102" on="1"/>
        <pt x="467" y="31" on="0"/>
        <pt x="498" y="0" on="1"/>
        <pt x="492" y="-10" on="1"/>
        <pt x="361" y="10" on="0"/>
        <pt x="238" y="-14" on="1"/>
        <pt x="231" y="-4" on="1"/>
        <pt x="282" y="41" on="0"/>
        <pt x="313" y="113" on="0"/>
        <pt x="313" y="182" on="1"/>
        <pt x="313" y="1151" on="1"/>
        <pt x="313" y="1292" on="0"/>
        <pt x="246" y="1390" on="0"/>
        <pt x="137" y="1382" on="1"/>
        <pt x="133" y="1401" on="1"/>
        <pt x="298" y="1450" on="0"/>
        <pt x="446" y="1450" on="1"/>
        <pt x="467" y="1397" on="0"/>
        <pt x="467" y="1335" on="1"/>
        <pt x="467" y="829" on="1"/>
        <pt x="848" y="814" on="0"/>
        <pt x="1233" y="829" on="1"/>
        <pt x="1233" y="1151" on="1"/>
        <pt x="1233" y="1292" on="0"/>
        <pt x="1165" y="1390" on="0"/>
        <pt x="1057" y="1382" on="1"/>
        <pt x="1053" y="1401" on="1"/>
        <pt x="1218" y="1450" on="0"/>
        <pt x="1366" y="1450" on="1"/>
        <pt x="1386" y="1395" on="0"/>
      </contour>
    </TTGlyph>
    <TTGlyph name="I" xMin="113" yMin="-16" xMax="604" yMax="1450">
      <contour>
        <pt x="446" y="1335" on="1"/>
        <pt x="446" y="180" on="1"/>
        <pt x="446" y="99" on="0"/>
        <pt x="512" y="25" on="0"/>
        <pt x="604" y="8" on="1"/>
        <pt x="596" y="-16" on="1"/>
        <pt x="485" y="-1" on="0"/>
        <pt x="369" y="1" on="0"/>
        <pt x="279" y="-16" on="1"/>
        <pt x="272" y="-6" on="1"/>
        <pt x="293" y="23" on="0"/>
        <pt x="293" y="100" on="1"/>
        <pt x="293" y="1151" on="1"/>
        <pt x="293" y="1292" on="0"/>
        <pt x="225" y="1390" on="0"/>
        <pt x="117" y="1382" on="1"/>
        <pt x="113" y="1401" on="1"/>
        <pt x="278" y="1450" on="0"/>
        <pt x="426" y="1450" on="1"/>
        <pt x="446" y="1395" on="0"/>
      </contour>
    </TTGlyph>
    <TTGlyph name="Iacute" xMin="113" yMin="-16" xMax="604" yMax="1847">
      <component glyphName="I" x="0" y="0" flags="0x204"/>
      <component glyphName="acute.case" x="-120" y="0" flags="0x4"/>
    </TTGlyph>
    <TTGlyph name="Icircumflex" xMin="28" yMin="-16" xMax="630" yMax="1890">
      <component glyphName="I" x="0" y="0" flags="0x204"/>
      <component glyphName="circumflex.case" x="-144" y="0" flags="0x4"/>
    </TTGlyph>
    <TTGlyph name="Idieresis" xMin="30" yMin="-16" xMax="649" yMax="1819">
      <component glyphName="I" x="0" y="0" flags="0x204"/>
      <component glyphName="dieresis.case" x="-101" y="0" flags="0x4"/>
    </TTGlyph>
    <TTGlyph name="Igrave" xMin="40" yMin="-16" xMax="604" yMax="1847">
      <component glyphName="I" x="0" y="0" flags="0x204"/>
      <component glyphName="grave.case" x="-52" y="0" flags="0x4"/>
    </TTGlyph>
    <TTGlyph name="J" xMin="31" yMin="-41" xMax="553" yMax="1450">
      <contour>
        <pt x="553" y="1335" on="1"/>
        <pt x="553" y="389" on="1"/>
        <pt x="553" y="313" on="0"/>
        <pt x="521" y="176" on="0"/>
        <pt x="477" y="87" on="0"/>
        <pt x="423" y="13" on="0"/>
        <pt x="388" y="-20" on="0"/>
        <pt x="377" y="-27" on="1"/>
        <pt x="349" y="-41" on="0"/>
        <pt x="281" y="-41" on="1"/>
        <pt x="150" y="-41" on="0"/>
        <pt x="31" y="25" on="1"/>
        <pt x="68" y="93" on="0"/>
        <pt x="156" y="154" on="1"/>
        <pt x="170" y="143" on="1"/>
        <pt x="236" y="35" on="0"/>
        <pt x="326" y="35" on="1"/>
        <pt x="344" y="35" on="0"/>
        <pt x="370" y="54" on="0"/>
        <pt x="389" y="107" on="0"/>
        <pt x="400" y="182" on="0"/>
        <pt x="408" y="311" on="0"/>
        <pt x="410" y="466" on="0"/>
        <pt x="410" y="580" on="1"/>
        <pt x="410" y="1151" on="1"/>
        <pt x="410" y="1283" on="0"/>
        <pt x="352" y="1382" on="0"/>
        <pt x="262" y="1382" on="1"/>
        <pt x="233" y="1382" on="1"/>
        <pt x="229" y="1401" on="1"/>
        <pt x="394" y="1450" on="0"/>
        <pt x="532" y="1450" on="1"/>
        <pt x="553" y="1397" on="0"/>
      </contour>
    </TTGlyph>
    <TTGlyph name="K" xMin="133" yMin="-18" xMax="1454" yMax="1454">
      <contour>
        <pt x="467" y="1335" on="1"/>
        <pt x="467" y="180" on="1"/>
        <pt x="467" y="99" on="0"/>
        <pt x="533" y="25" on="0"/>
        <pt x="625" y="8" on="1"/>
        <pt x="616" y="-16" on="1"/>
        <pt x="504" y="-1" on="0"/>
        <pt x="390" y="1" on="0"/>
        <pt x="299" y="-16" on="1"/>
        <pt x="293" y="-6" on="1"/>
        <pt x="313" y="23" on="0"/>
        <pt x="313" y="100" on="1"/>
        <pt x="313" y="1151" on="1"/>
        <pt x="313" y="1292" on="0"/>
        <pt x="246" y="1390" on="0"/>
        <pt x="137" y="1382" on="1"/>
        <pt x="133" y="1401" on="1"/>
        <pt x="298" y="1450" on="0"/>
        <pt x="446" y="1450" on="1"/>
        <pt x="467" y="1397" on="0"/>
      </contour>
      <contour>
        <pt x="1169" y="1407" on="1"/>
        <pt x="631" y="856" on="1"/>
        <pt x="631" y="840" on="1"/>
        <pt x="1210" y="182" on="1"/>
        <pt x="1328" y="50" on="0"/>
        <pt x="1454" y="8" on="1"/>
        <pt x="1454" y="-10" on="1"/>
        <pt x="1385" y="-3" on="0"/>
        <pt x="1316" y="1" on="0"/>
        <pt x="1208" y="-5" on="0"/>
        <pt x="1165" y="-18" on="1"/>
        <pt x="1151" y="-10" on="1"/>
        <pt x="1153" y="12" on="0"/>
        <pt x="1126" y="45" on="1"/>
        <pt x="498" y="778" on="1"/>
        <pt x="498" y="799" on="1"/>
        <pt x="1036" y="1354" on="1"/>
        <pt x="1058" y="1377" on="0"/>
        <pt x="998" y="1393" on="1"/>
        <pt x="946" y="1407" on="0"/>
        <pt x="887" y="1405" on="1"/>
        <pt x="881" y="1432" on="1"/>
        <pt x="1051" y="1454" on="0"/>
        <pt x="1167" y="1440" on="1"/>
        <pt x="1176" y="1427" on="0"/>
      </contour>
    </TTGlyph>
    <TTGlyph name="L" xMin="92" yMin="0" xMax="1112" yMax="1450">
      <contour>
        <pt x="426" y="61" on="1"/>
        <pt x="758" y="72" on="1"/>
        <pt x="831" y="74" on="0"/>
        <pt x="933" y="103" on="0"/>
        <pt x="1007" y="166" on="0"/>
        <pt x="1054" y="235" on="0"/>
        <pt x="1083" y="293" on="1"/>
        <pt x="1112" y="281" on="1"/>
        <pt x="1014" y="14" on="1"/>
        <pt x="997" y="0" on="1"/>
        <pt x="291" y="0" on="1"/>
        <pt x="272" y="42" on="0"/>
        <pt x="272" y="98" on="1"/>
        <pt x="272" y="1151" on="1"/>
        <pt x="272" y="1292" on="0"/>
        <pt x="205" y="1390" on="0"/>
        <pt x="96" y="1382" on="1"/>
        <pt x="92" y="1401" on="1"/>
        <pt x="257" y="1450" on="0"/>
        <pt x="406" y="1450" on="1"/>
        <pt x="426" y="1395" on="0"/>
        <pt x="426" y="1335" on="1"/>
      </contour>
    </TTGlyph>
    <TTGlyph name="M" xMin="154" yMin="-39" xMax="1923" yMax="1458">
      <contour>
        <pt x="1462" y="1391" on="1"/>
        <pt x="1534" y="1444" on="0"/>
        <pt x="1618" y="1458" on="1"/>
        <pt x="1751" y="180" on="1"/>
        <pt x="1757" y="99" on="0"/>
        <pt x="1829" y="32" on="0"/>
        <pt x="1923" y="25" on="1"/>
        <pt x="1917" y="0" on="1"/>
        <pt x="1802" y="3" on="0"/>
        <pt x="1674" y="-7" on="0"/>
        <pt x="1602" y="-31" on="1"/>
        <pt x="1595" y="-20" on="1"/>
        <pt x="1614" y="12" on="0"/>
        <pt x="1606" y="86" on="1"/>
        <pt x="1489" y="1249" on="1"/>
        <pt x="975" y="-39" on="1"/>
        <pt x="905" y="-6" on="1"/>
        <pt x="901" y="65" on="0"/>
        <pt x="848" y="195" on="1"/>
        <pt x="391" y="1206" on="1"/>
        <pt x="274" y="139" on="1"/>
        <pt x="270" y="104" on="0"/>
        <pt x="289" y="61" on="0"/>
        <pt x="362" y="24" on="0"/>
        <pt x="434" y="10" on="1"/>
        <pt x="430" y="-8" on="1"/>
        <pt x="266" y="4" on="0"/>
        <pt x="174" y="0" on="1"/>
        <pt x="166" y="8" on="0"/>
        <pt x="162" y="20" on="1"/>
        <pt x="313" y="1329" on="1"/>
        <pt x="285" y="1352" on="0"/>
        <pt x="203" y="1355" on="0"/>
        <pt x="166" y="1346" on="1"/>
        <pt x="154" y="1366" on="1"/>
        <pt x="303" y="1450" on="0"/>
        <pt x="426" y="1450" on="1"/>
        <pt x="450" y="1396" on="0"/>
        <pt x="941" y="304" on="0"/>
        <pt x="987" y="207" on="1"/>
      </contour>
    </TTGlyph>
    <TTGlyph name="N" xMin="133" yMin="-6" xMax="1391" yMax="1450">
      <contour>
        <pt x="1391" y="0" on="1"/>
        <pt x="1350" y="0" on="1"/>
        <pt x="1282" y="92" on="0"/>
        <pt x="638" y="905" on="0"/>
        <pt x="500" y="1087" on="1"/>
        <pt x="440" y="1165" on="0"/>
        <pt x="385" y="1270" on="1"/>
        <pt x="379" y="1266" on="1"/>
        <pt x="379" y="129" on="1"/>
        <pt x="379" y="91" on="0"/>
        <pt x="428" y="49" on="0"/>
        <pt x="487" y="34" on="0"/>
        <pt x="591" y="16" on="0"/>
        <pt x="600" y="14" on="1"/>
        <pt x="600" y="-6" on="1"/>
        <pt x="411" y="6" on="0"/>
        <pt x="297" y="-6" on="1"/>
        <pt x="291" y="21" on="0"/>
        <pt x="291" y="47" on="1"/>
        <pt x="291" y="1198" on="1"/>
        <pt x="288" y="1269" on="0"/>
        <pt x="266" y="1325" on="1"/>
        <pt x="237" y="1403" on="0"/>
        <pt x="133" y="1395" on="1"/>
        <pt x="133" y="1415" on="1"/>
        <pt x="273" y="1450" on="0"/>
        <pt x="408" y="1450" on="1"/>
        <pt x="1161" y="487" on="1"/>
        <pt x="1214" y="420" on="0"/>
        <pt x="1277" y="313" on="0"/>
        <pt x="1307" y="233" on="1"/>
        <pt x="1307" y="1274" on="1"/>
        <pt x="1307" y="1344" on="0"/>
        <pt x="1202" y="1403" on="0"/>
        <pt x="1090" y="1395" on="1"/>
        <pt x="1085" y="1415" on="1"/>
        <pt x="1215" y="1447" on="0"/>
        <pt x="1374" y="1450" on="1"/>
        <pt x="1391" y="1424" on="0"/>
        <pt x="1391" y="1397" on="1"/>
      </contour>
    </TTGlyph>
    <TTGlyph name="Ntilde" xMin="124" yMin="-6" xMax="1382" yMax="1815">
      <component glyphName="N" x="-9" y="0" flags="0x4"/>
      <component glyphName="tilde.case" x="340" y="0" flags="0x4"/>
    </TTGlyph>
    <TTGlyph name="O" xMin="143" yMin="-41" xMax="1538" yMax="1495">
      <contour>
        <pt x="844" y="1495" on="1"/>
        <pt x="1178" y="1495" on="0"/>
        <pt x="1538" y="1073" on="0"/>
        <pt x="1538" y="700" on="1"/>
        <pt x="1538" y="542" on="0"/>
        <pt x="1426" y="264" on="0"/>
        <pt x="1236" y="70" on="0"/>
        <pt x="979" y="-41" on="0"/>
        <pt x="838" y="-41" on="1"/>
        <pt x="690" y="-41" on="0"/>
        <pt x="436" y="64" on="0"/>
        <pt x="249" y="258" on="0"/>
        <pt x="143" y="553" on="0"/>
        <pt x="143" y="733" on="1"/>
        <pt x="143" y="892" on="0"/>
        <pt x="256" y="1176" on="0"/>
        <pt x="445" y="1377" on="0"/>
        <pt x="703" y="1495" on="0"/>
      </contour>
      <contour>
        <pt x="311" y="743" on="1"/>
        <pt x="311" y="596" on="0"/>
        <pt x="374" y="351" on="0"/>
        <pt x="480" y="183" on="0"/>
        <pt x="623" y="67" on="0"/>
        <pt x="781" y="14" on="0"/>
        <pt x="866" y="14" on="1"/>
        <pt x="989" y="14" on="0"/>
        <pt x="1184" y="122" on="0"/>
        <pt x="1306" y="309" on="0"/>
        <pt x="1370" y="551" on="0"/>
        <pt x="1370" y="690" on="1"/>
        <pt x="1370" y="871" on="0"/>
        <pt x="1279" y="1161" on="0"/>
        <pt x="1125" y="1340" on="0"/>
        <pt x="930" y="1434" on="0"/>
        <pt x="821" y="1434" on="1"/>
        <pt x="698" y="1434" on="0"/>
        <pt x="501" y="1321" on="0"/>
        <pt x="377" y="1129" on="0"/>
        <pt x="311" y="882" on="0"/>
      </contour>
    </TTGlyph>
    <TTGlyph name="OE" xMin="143" yMin="-41" xMax="2163" yMax="1495">
      <contour>
        <pt x="311" y="743" on="1"/>
        <pt x="311" y="596" on="0"/>
        <pt x="374" y="351" on="0"/>
        <pt x="480" y="183" on="0"/>
        <pt x="623" y="67" on="0"/>
        <pt x="781" y="14" on="0"/>
        <pt x="866" y="14" on="1"/>
        <pt x="979" y="14" on="0"/>
        <pt x="1158" y="123" on="0"/>
        <pt x="1271" y="317" on="0"/>
        <pt x="1329" y="574" on="0"/>
        <pt x="1329" y="727" on="1"/>
        <pt x="1325" y="900" on="0"/>
        <pt x="1238" y="1174" on="0"/>
        <pt x="1096" y="1345" on="0"/>
        <pt x="920" y="1434" on="0"/>
        <pt x="821" y="1434" on="1"/>
        <pt x="698" y="1434" on="0"/>
        <pt x="501" y="1321" on="0"/>
        <pt x="377" y="1129" on="0"/>
        <pt x="311" y="882" on="0"/>
      </contour>
      <contour>
        <pt x="1329" y="98" on="1"/>
        <pt x="1329" y="236" on="1"/>
        <pt x="1247" y="105" on="0"/>
        <pt x="993" y="-41" on="0"/>
        <pt x="838" y="-41" on="1"/>
        <pt x="690" y="-41" on="0"/>
        <pt x="436" y="64" on="0"/>
        <pt x="249" y="258" on="0"/>
        <pt x="143" y="553" on="0"/>
        <pt x="143" y="733" on="1"/>
        <pt x="143" y="892" on="0"/>
        <pt x="256" y="1176" on="0"/>
        <pt x="445" y="1377" on="0"/>
        <pt x="703" y="1495" on="0"/>
        <pt x="844" y="1495" on="1"/>
        <pt x="1177" y="1495" on="0"/>
        <pt x="1329" y="1247" on="1"/>
        <pt x="1329" y="1272" on="1"/>
        <pt x="1329" y="1349" on="0"/>
        <pt x="1340" y="1421" on="0"/>
        <pt x="1360" y="1438" on="1"/>
        <pt x="1701" y="1468" on="0"/>
        <pt x="2118" y="1444" on="1"/>
        <pt x="2124" y="1427" on="1"/>
        <pt x="2030" y="1178" on="1"/>
        <pt x="1997" y="1188" on="1"/>
        <pt x="2024" y="1317" on="0"/>
        <pt x="2005" y="1378" on="1"/>
        <pt x="1720" y="1405" on="0"/>
        <pt x="1456" y="1380" on="1"/>
        <pt x="1456" y="815" on="1"/>
        <pt x="2003" y="842" on="1"/>
        <pt x="2013" y="834" on="1"/>
        <pt x="1966" y="752" on="1"/>
        <pt x="1731" y="763" on="0"/>
        <pt x="1456" y="745" on="1"/>
        <pt x="1456" y="61" on="1"/>
        <pt x="1808" y="72" on="1"/>
        <pt x="1881" y="74" on="0"/>
        <pt x="1983" y="103" on="0"/>
        <pt x="2057" y="166" on="0"/>
        <pt x="2104" y="234" on="0"/>
        <pt x="2134" y="293" on="1"/>
        <pt x="2163" y="281" on="1"/>
        <pt x="2064" y="14" on="1"/>
        <pt x="2048" y="0" on="1"/>
        <pt x="1348" y="0" on="1"/>
        <pt x="1329" y="42" on="0"/>
      </contour>
    </TTGlyph>
    <TTGlyph name="Oacute" xMin="143" yMin="-41" xMax="1538" yMax="1847">
      <component glyphName="O" x="0" y="0" flags="0x204"/>
      <component glyphName="acute.case" x="457" y="0" flags="0x4"/>
    </TTGlyph>
    <TTGlyph name="Ocircumflex" xMin="143" yMin="-41" xMax="1538" yMax="1890">
      <component glyphName="O" x="0" y="0" flags="0x204"/>
      <component glyphName="circumflex.case" x="383" y="0" flags="0x4"/>
    </TTGlyph>
    <TTGlyph name="Odieresis" xMin="143" yMin="-41" xMax="1538" yMax="1819">
      <component glyphName="O" x="0" y="0" flags="0x204"/>
      <component glyphName="dieresis.case" x="418" y="0" flags="0x4"/>
    </TTGlyph>
    <TTGlyph name="Ograve" xMin="143" yMin="-41" xMax="1538" yMax="1847">
      <component glyphName="O" x="0" y="0" flags="0x204"/>
      <component glyphName="grave.case" x="436" y="0" flags="0x4"/>
    </TTGlyph>
    <TTGlyph name="Oslash" xMin="143" yMin="-197" xMax="1538" yMax="1642">
      <contour>
        <pt x="844" y="1495" on="1"/>
        <pt x="1079" y="1495" on="0"/>
        <pt x="1239" y="1389" on="1"/>
        <pt x="1417" y="1642" on="1"/>
        <pt x="1448" y="1630" on="1"/>
        <pt x="1421" y="1539" on="0"/>
        <pt x="1350" y="1389" on="1"/>
        <pt x="1311" y="1331" on="1"/>
        <pt x="1538" y="1122" on="0"/>
        <pt x="1538" y="700" on="1"/>
        <pt x="1538" y="542" on="0"/>
        <pt x="1426" y="264" on="0"/>
        <pt x="1236" y="70" on="0"/>
        <pt x="979" y="-41" on="0"/>
        <pt x="838" y="-41" on="1"/>
        <pt x="608" y="-41" on="0"/>
        <pt x="434" y="82" on="1"/>
        <pt x="240" y="-197" on="1"/>
        <pt x="209" y="-182" on="1"/>
        <pt x="233" y="-97" on="0"/>
        <pt x="307" y="59" on="1"/>
        <pt x="365" y="139" on="1"/>
        <pt x="143" y="353" on="0"/>
        <pt x="143" y="733" on="1"/>
        <pt x="143" y="892" on="0"/>
        <pt x="256" y="1176" on="0"/>
        <pt x="445" y="1377" on="0"/>
        <pt x="703" y="1495" on="0"/>
      </contour>
      <contour>
        <pt x="1370" y="690" on="1"/>
        <pt x="1370" y="1014" on="0"/>
        <pt x="1229" y="1214" on="1"/>
        <pt x="498" y="172" on="1"/>
        <pt x="646" y="14" on="0"/>
        <pt x="866" y="14" on="1"/>
        <pt x="989" y="14" on="0"/>
        <pt x="1184" y="122" on="0"/>
        <pt x="1306" y="309" on="0"/>
        <pt x="1370" y="551" on="0"/>
      </contour>
      <contour>
        <pt x="311" y="743" on="1"/>
        <pt x="311" y="435" on="0"/>
        <pt x="438" y="246" on="1"/>
        <pt x="1167" y="1286" on="1"/>
        <pt x="1022" y="1434" on="0"/>
        <pt x="821" y="1434" on="1"/>
        <pt x="698" y="1434" on="0"/>
        <pt x="501" y="1321" on="0"/>
        <pt x="377" y="1129" on="0"/>
        <pt x="311" y="882" on="0"/>
      </contour>
    </TTGlyph>
    <TTGlyph name="Otilde" xMin="143" yMin="-41" xMax="1538" yMax="1815">
      <component glyphName="O" x="0" y="0" flags="0x204"/>
      <component glyphName="tilde.case" x="373" y="0" flags="0x4"/>
    </TTGlyph>
    <TTGlyph name="P" xMin="133" yMin="-16" xMax="1096" yMax="1452">
      <contour>
        <pt x="467" y="1315" on="1"/>
        <pt x="467" y="180" on="1"/>
        <pt x="467" y="99" on="0"/>
        <pt x="533" y="25" on="0"/>
        <pt x="625" y="8" on="1"/>
        <pt x="616" y="-16" on="1"/>
        <pt x="502" y="0" on="0"/>
        <pt x="436" y="0" on="1"/>
        <pt x="377" y="0" on="0"/>
        <pt x="299" y="-16" on="1"/>
        <pt x="293" y="-6" on="1"/>
        <pt x="313" y="23" on="0"/>
        <pt x="313" y="100" on="1"/>
        <pt x="313" y="1151" on="1"/>
        <pt x="313" y="1293" on="0"/>
        <pt x="248" y="1382" on="0"/>
        <pt x="137" y="1382" on="1"/>
        <pt x="133" y="1411" on="1"/>
        <pt x="411" y="1452" on="0"/>
        <pt x="580" y="1452" on="1"/>
        <pt x="696" y="1452" on="0"/>
        <pt x="875" y="1418" on="0"/>
        <pt x="1019" y="1339" on="0"/>
        <pt x="1096" y="1199" on="0"/>
        <pt x="1096" y="1100" on="1"/>
        <pt x="1096" y="991" on="0"/>
        <pt x="955" y="812" on="0"/>
        <pt x="746" y="719" on="0"/>
        <pt x="637" y="719" on="1"/>
        <pt x="594" y="719" on="0"/>
        <pt x="573" y="723" on="1"/>
        <pt x="573" y="758" on="1"/>
        <pt x="649" y="758" on="0"/>
        <pt x="778" y="798" on="0"/>
        <pt x="879" y="878" on="0"/>
        <pt x="936" y="1009" on="0"/>
        <pt x="936" y="1094" on="1"/>
        <pt x="936" y="1231" on="0"/>
        <pt x="798" y="1391" on="0"/>
        <pt x="651" y="1391" on="1"/>
        <pt x="543" y="1391" on="0"/>
        <pt x="461" y="1378" on="1"/>
        <pt x="467" y="1348" on="0"/>
      </contour>
    </TTGlyph>
    <TTGlyph name="Q" xMin="143" yMin="-408" xMax="1704" yMax="1495">
      <contour>
        <pt x="844" y="1495" on="1"/>
        <pt x="1178" y="1495" on="0"/>
        <pt x="1538" y="1073" on="0"/>
        <pt x="1538" y="700" on="1"/>
        <pt x="1538" y="482" on="0"/>
        <pt x="1334" y="135" on="0"/>
        <pt x="1165" y="41" on="1"/>
        <pt x="1286" y="-101" on="0"/>
        <pt x="1386" y="-188" on="1"/>
        <pt x="1433" y="-228" on="0"/>
        <pt x="1559" y="-272" on="0"/>
        <pt x="1636" y="-280" on="0"/>
        <pt x="1700" y="-283" on="1"/>
        <pt x="1704" y="-299" on="1"/>
        <pt x="1559" y="-342" on="0"/>
        <pt x="1458" y="-408" on="1"/>
        <pt x="1442" y="-403" on="1"/>
        <pt x="1341" y="-337" on="0"/>
        <pt x="1148" y="-146" on="0"/>
        <pt x="1034" y="-12" on="1"/>
        <pt x="941" y="-41" on="0"/>
        <pt x="838" y="-41" on="1"/>
        <pt x="690" y="-41" on="0"/>
        <pt x="436" y="64" on="0"/>
        <pt x="249" y="258" on="0"/>
        <pt x="143" y="553" on="0"/>
        <pt x="143" y="733" on="1"/>
        <pt x="143" y="892" on="0"/>
        <pt x="256" y="1176" on="0"/>
        <pt x="445" y="1377" on="0"/>
        <pt x="703" y="1495" on="0"/>
      </contour>
      <contour>
        <pt x="311" y="743" on="1"/>
        <pt x="311" y="596" on="0"/>
        <pt x="374" y="351" on="0"/>
        <pt x="480" y="183" on="0"/>
        <pt x="623" y="67" on="0"/>
        <pt x="781" y="14" on="0"/>
        <pt x="866" y="14" on="1"/>
        <pt x="989" y="14" on="0"/>
        <pt x="1184" y="122" on="0"/>
        <pt x="1306" y="309" on="0"/>
        <pt x="1370" y="551" on="0"/>
        <pt x="1370" y="690" on="1"/>
        <pt x="1370" y="871" on="0"/>
        <pt x="1279" y="1161" on="0"/>
        <pt x="1125" y="1340" on="0"/>
        <pt x="930" y="1434" on="0"/>
        <pt x="821" y="1434" on="1"/>
        <pt x="698" y="1434" on="0"/>
        <pt x="501" y="1321" on="0"/>
        <pt x="377" y="1129" on="0"/>
        <pt x="311" y="882" on="0"/>
      </contour>
    </TTGlyph>
    <TTGlyph name="R" xMin="133" yMin="-29" xMax="1395" yMax="1460">
      <contour>
        <pt x="528" y="778" on="1"/>
        <pt x="528" y="811" on="1"/>
        <pt x="628" y="822" on="0"/>
        <pt x="770" y="880" on="0"/>
        <pt x="862" y="970" on="0"/>
        <pt x="905" y="1092" on="0"/>
        <pt x="905" y="1167" on="1"/>
        <pt x="902" y="1227" on="0"/>
        <pt x="873" y="1309" on="0"/>
        <pt x="805" y="1360" on="0"/>
        <pt x="692" y="1383" on="0"/>
        <pt x="605" y="1383" on="1"/>
        <pt x="573" y="1383" on="0"/>
        <pt x="502" y="1380" on="0"/>
        <pt x="461" y="1378" on="1"/>
        <pt x="467" y="1354" on="0"/>
        <pt x="467" y="1327" on="1"/>
        <pt x="467" y="180" on="1"/>
        <pt x="467" y="139" on="0"/>
        <pt x="482" y="81" on="0"/>
        <pt x="518" y="41" on="0"/>
        <pt x="579" y="16" on="0"/>
        <pt x="625" y="8" on="1"/>
        <pt x="616" y="-16" on="1"/>
        <pt x="555" y="-8" on="0"/>
        <pt x="467" y="0" on="0"/>
        <pt x="438" y="0" on="1"/>
        <pt x="411" y="0" on="0"/>
        <pt x="341" y="-8" on="0"/>
        <pt x="299" y="-16" on="1"/>
        <pt x="293" y="-6" on="1"/>
        <pt x="313" y="23" on="0"/>
        <pt x="313" y="100" on="1"/>
        <pt x="313" y="1151" on="1"/>
        <pt x="313" y="1217" on="0"/>
        <pt x="301" y="1306" on="0"/>
        <pt x="269" y="1360" on="0"/>
        <pt x="211" y="1383" on="0"/>
        <pt x="137" y="1382" on="1"/>
        <pt x="133" y="1411" on="1"/>
        <pt x="200" y="1420" on="0"/>
        <pt x="303" y="1434" on="0"/>
        <pt x="396" y="1445" on="0"/>
        <pt x="487" y="1453" on="0"/>
        <pt x="571" y="1458" on="0"/>
        <pt x="622" y="1460" on="0"/>
        <pt x="645" y="1460" on="1"/>
        <pt x="736" y="1460" on="0"/>
        <pt x="891" y="1433" on="0"/>
        <pt x="1004" y="1366" on="0"/>
        <pt x="1067" y="1252" on="0"/>
        <pt x="1067" y="1165" on="1"/>
        <pt x="1067" y="1100" on="0"/>
        <pt x="1010" y="984" on="0"/>
        <pt x="913" y="888" on="0"/>
        <pt x="784" y="815" on="0"/>
        <pt x="711" y="793" on="1"/>
        <pt x="711" y="782" on="1"/>
        <pt x="1118" y="201" on="1"/>
        <pt x="1171" y="124" on="0"/>
        <pt x="1255" y="82" on="1"/>
        <pt x="1337" y="47" on="0"/>
        <pt x="1372" y="35" on="0"/>
        <pt x="1395" y="27" on="1"/>
        <pt x="1395" y="8" on="1"/>
        <pt x="1218" y="8" on="0"/>
        <pt x="1098" y="-29" on="1"/>
        <pt x="1083" y="-20" on="1"/>
        <pt x="1083" y="-6" on="0"/>
        <pt x="1049" y="49" on="0"/>
        <pt x="1000" y="118" on="0"/>
        <pt x="874" y="299" on="0"/>
      </contour>
    </TTGlyph>
    <TTGlyph name="S" xMin="176" yMin="-41" xMax="983" yMax="1485">
      <contour>
        <pt x="299" y="76" on="1"/>
        <pt x="409" y="20" on="0"/>
        <pt x="516" y="20" on="1"/>
        <pt x="581" y="20" on="0"/>
        <pt x="692" y="59" on="0"/>
        <pt x="773" y="137" on="0"/>
        <pt x="819" y="252" on="0"/>
        <pt x="819" y="328" on="1"/>
        <pt x="819" y="385" on="0"/>
        <pt x="795" y="470" on="0"/>
        <pt x="727" y="551" on="0"/>
        <pt x="605" y="643" on="0"/>
        <pt x="506" y="707" on="1"/>
        <pt x="348" y="810" on="0"/>
        <pt x="203" y="1000" on="0"/>
        <pt x="203" y="1098" on="1"/>
        <pt x="203" y="1194" on="0"/>
        <pt x="283" y="1339" on="0"/>
        <pt x="414" y="1436" on="0"/>
        <pt x="579" y="1485" on="0"/>
        <pt x="664" y="1485" on="1"/>
        <pt x="817" y="1485" on="0"/>
        <pt x="938" y="1415" on="1"/>
        <pt x="910" y="1260" on="0"/>
        <pt x="840" y="1114" on="1"/>
        <pt x="813" y="1128" on="1"/>
        <pt x="819" y="1166" on="0"/>
        <pt x="826" y="1235" on="0"/>
        <pt x="826" y="1296" on="0"/>
        <pt x="820" y="1347" on="0"/>
        <pt x="815" y="1370" on="1"/>
        <pt x="735" y="1417" on="0"/>
        <pt x="643" y="1417" on="1"/>
        <pt x="585" y="1417" on="0"/>
        <pt x="480" y="1382" on="0"/>
        <pt x="400" y="1314" on="0"/>
        <pt x="352" y="1215" on="0"/>
        <pt x="352" y="1151" on="1"/>
        <pt x="352" y="1106" on="0"/>
        <pt x="384" y="1028" on="0"/>
        <pt x="451" y="950" on="0"/>
        <pt x="552" y="866" on="0"/>
        <pt x="621" y="815" on="1"/>
        <pt x="662" y="785" on="0"/>
        <pt x="734" y="736" on="0"/>
        <pt x="796" y="692" on="0"/>
        <pt x="849" y="650" on="0"/>
        <pt x="872" y="626" on="1"/>
        <pt x="983" y="509" on="0"/>
        <pt x="983" y="354" on="1"/>
        <pt x="983" y="250" on="0"/>
        <pt x="910" y="100" on="0"/>
        <pt x="784" y="4" on="0"/>
        <pt x="616" y="-41" on="0"/>
        <pt x="522" y="-41" on="1"/>
        <pt x="353" y="-41" on="0"/>
        <pt x="176" y="27" on="1"/>
        <pt x="207" y="188" on="0"/>
        <pt x="274" y="328" on="1"/>
        <pt x="301" y="313" on="1"/>
        <pt x="289" y="257" on="0"/>
        <pt x="289" y="95" on="0"/>
      </contour>
    </TTGlyph>
    <TTGlyph name="T" xMin="31" yMin="-16" xMax="1243" yMax="1468">
      <contour>
        <pt x="43" y="1444" on="1"/>
        <pt x="189" y="1457" on="0"/>
        <pt x="463" y="1468" on="0"/>
        <pt x="597" y="1468" on="1"/>
        <pt x="731" y="1468" on="0"/>
        <pt x="1045" y="1455" on="0"/>
        <pt x="1231" y="1442" on="1"/>
        <pt x="1243" y="1421" on="1"/>
        <pt x="1149" y="1178" on="1"/>
        <pt x="1116" y="1188" on="1"/>
        <pt x="1123" y="1223" on="0"/>
        <pt x="1130" y="1284" on="0"/>
        <pt x="1130" y="1311" on="1"/>
        <pt x="1130" y="1348" on="0"/>
        <pt x="1124" y="1378" on="1"/>
        <pt x="997" y="1386" on="0"/>
        <pt x="794" y="1394" on="0"/>
        <pt x="715" y="1395" on="1"/>
        <pt x="715" y="180" on="1"/>
        <pt x="715" y="139" on="0"/>
        <pt x="730" y="81" on="0"/>
        <pt x="766" y="41" on="0"/>
        <pt x="826" y="16" on="0"/>
        <pt x="872" y="8" on="1"/>
        <pt x="864" y="-16" on="1"/>
        <pt x="804" y="-8" on="0"/>
        <pt x="716" y="0" on="0"/>
        <pt x="686" y="0" on="1"/>
        <pt x="658" y="0" on="0"/>
        <pt x="589" y="-8" on="0"/>
        <pt x="547" y="-16" on="1"/>
        <pt x="541" y="-6" on="1"/>
        <pt x="561" y="23" on="0"/>
        <pt x="561" y="100" on="1"/>
        <pt x="561" y="1395" on="1"/>
        <pt x="485" y="1394" on="0"/>
        <pt x="281" y="1386" on="0"/>
        <pt x="150" y="1378" on="1"/>
        <pt x="144" y="1345" on="0"/>
        <pt x="144" y="1308" on="1"/>
        <pt x="144" y="1255" on="0"/>
        <pt x="158" y="1188" on="1"/>
        <pt x="125" y="1178" on="1"/>
        <pt x="31" y="1421" on="1"/>
      </contour>
    </TTGlyph>
    <TTGlyph name="Thorn" xMin="133" yMin="-17" xMax="1096" yMax="1450">
      <contour>
        <pt x="467" y="1335" on="1"/>
        <pt x="467" y="1225" on="1"/>
        <pt x="534" y="1231" on="0"/>
        <pt x="598" y="1231" on="1"/>
        <pt x="1096" y="1231" on="0"/>
        <pt x="1096" y="872" on="1"/>
        <pt x="1096" y="765" on="0"/>
        <pt x="955" y="589" on="0"/>
        <pt x="746" y="496" on="0"/>
        <pt x="637" y="496" on="1"/>
        <pt x="594" y="496" on="0"/>
        <pt x="573" y="500" on="1"/>
        <pt x="573" y="535" on="1"/>
        <pt x="676" y="535" on="0"/>
        <pt x="836" y="604" on="0"/>
        <pt x="936" y="758" on="0"/>
        <pt x="936" y="868" on="1"/>
        <pt x="936" y="1008" on="0"/>
        <pt x="798" y="1167" on="0"/>
        <pt x="651" y="1167" on="1"/>
        <pt x="558" y="1167" on="0"/>
        <pt x="467" y="1159" on="1"/>
        <pt x="467" y="180" on="1"/>
        <pt x="467" y="98" on="0"/>
        <pt x="533" y="24" on="0"/>
        <pt x="625" y="8" on="1"/>
        <pt x="616" y="-17" on="1"/>
        <pt x="506" y="0" on="0"/>
        <pt x="436" y="0" on="1"/>
        <pt x="375" y="0" on="0"/>
        <pt x="299" y="-17" on="1"/>
        <pt x="293" y="-6" on="1"/>
        <pt x="313" y="23" on="0"/>
        <pt x="313" y="100" on="1"/>
        <pt x="313" y="1151" on="1"/>
        <pt x="313" y="1283" on="0"/>
        <pt x="256" y="1382" on="0"/>
        <pt x="166" y="1382" on="1"/>
        <pt x="137" y="1382" on="1"/>
        <pt x="133" y="1401" on="1"/>
        <pt x="290" y="1438" on="0"/>
        <pt x="446" y="1450" on="1"/>
        <pt x="467" y="1397" on="0"/>
      </contour>
    </TTGlyph>
    <TTGlyph name="U" xMin="92" yMin="-41" xMax="1518" yMax="1450">
      <contour>
        <pt x="426" y="1335" on="1"/>
        <pt x="426" y="422" on="1"/>
        <pt x="426" y="312" on="0"/>
        <pt x="468" y="165" on="0"/>
        <pt x="543" y="77" on="0"/>
        <pt x="648" y="40" on="0"/>
        <pt x="711" y="40" on="1"/>
        <pt x="771" y="40" on="0"/>
        <pt x="900" y="73" on="0"/>
        <pt x="1029" y="132" on="0"/>
        <pt x="1152" y="213" on="0"/>
        <pt x="1206" y="260" on="1"/>
        <pt x="1206" y="1151" on="1"/>
        <pt x="1206" y="1217" on="0"/>
        <pt x="1194" y="1306" on="0"/>
        <pt x="1162" y="1360" on="0"/>
        <pt x="1104" y="1383" on="0"/>
        <pt x="1038" y="1383" on="0"/>
        <pt x="1030" y="1382" on="1"/>
        <pt x="1026" y="1401" on="1"/>
        <pt x="1189" y="1450" on="0"/>
        <pt x="1339" y="1450" on="1"/>
        <pt x="1360" y="1397" on="0"/>
        <pt x="1360" y="1335" on="1"/>
        <pt x="1360" y="180" on="1"/>
        <pt x="1360" y="139" on="0"/>
        <pt x="1375" y="81" on="0"/>
        <pt x="1411" y="41" on="0"/>
        <pt x="1472" y="16" on="0"/>
        <pt x="1518" y="8" on="1"/>
        <pt x="1509" y="-16" on="1"/>
        <pt x="1449" y="-8" on="0"/>
        <pt x="1361" y="0" on="0"/>
        <pt x="1331" y="0" on="1"/>
        <pt x="1303" y="0" on="0"/>
        <pt x="1234" y="-8" on="0"/>
        <pt x="1192" y="-16" on="1"/>
        <pt x="1186" y="-6" on="1"/>
        <pt x="1206" y="23" on="0"/>
        <pt x="1206" y="100" on="1"/>
        <pt x="1206" y="182" on="1"/>
        <pt x="1041" y="64" on="0"/>
        <pt x="774" y="-41" on="0"/>
        <pt x="658" y="-41" on="1"/>
        <pt x="589" y="-41" on="0"/>
        <pt x="451" y="-9" on="0"/>
        <pt x="341" y="69" on="0"/>
        <pt x="272" y="198" on="0"/>
        <pt x="272" y="295" on="1"/>
        <pt x="272" y="1151" on="1"/>
        <pt x="272" y="1217" on="0"/>
        <pt x="260" y="1306" on="0"/>
        <pt x="228" y="1360" on="0"/>
        <pt x="170" y="1383" on="0"/>
        <pt x="104" y="1383" on="0"/>
        <pt x="96" y="1382" on="1"/>
        <pt x="92" y="1401" on="1"/>
        <pt x="255" y="1450" on="0"/>
        <pt x="406" y="1450" on="1"/>
        <pt x="426" y="1393" on="0"/>
      </contour>
    </TTGlyph>
    <TTGlyph name="Uacute" xMin="52" yMin="-41" xMax="1478" yMax="1847">
      <component glyphName="U" x="-40" y="0" flags="0x4"/>
      <component glyphName="acute.case" x="369" y="0" flags="0x4"/>
    </TTGlyph>
    <TTGlyph name="Ucircumflex" xMin="52" yMin="-41" xMax="1478" yMax="1890">
      <component glyphName="U" x="-40" y="0" flags="0x4"/>
      <component glyphName="circumflex.case" x="305" y="0" flags="0x4"/>
    </TTGlyph>
    <TTGlyph name="Udieresis" xMin="52" yMin="-41" xMax="1478" yMax="1819">
      <component glyphName="U" x="-40" y="0" flags="0x4"/>
      <component glyphName="dieresis.case" x="340" y="0" flags="0x4"/>
    </TTGlyph>
    <TTGlyph name="Ugrave" xMin="52" yMin="-41" xMax="1478" yMax="1847">
      <component glyphName="U" x="-40" y="0" flags="0x4"/>
      <component glyphName="grave.case" x="379" y="0" flags="0x4"/>
    </TTGlyph>
    <TTGlyph name="V" xMin="-20" yMin="-20" xMax="1356" yMax="1458">
      <contour>
        <pt x="776" y="-20" on="1"/>
        <pt x="696" y="0" on="1"/>
        <pt x="598" y="314" on="0"/>
        <pt x="369" y="877" on="0"/>
        <pt x="207" y="1229" on="1"/>
        <pt x="176" y="1298" on="0"/>
        <pt x="110" y="1358" on="0"/>
        <pt x="39" y="1358" on="0"/>
        <pt x="-10" y="1354" on="1"/>
        <pt x="-20" y="1374" on="1"/>
        <pt x="148" y="1458" on="0"/>
        <pt x="270" y="1458" on="1"/>
        <pt x="324" y="1352" on="0"/>
        <pt x="422" y="1139" on="0"/>
        <pt x="531" y="875" on="0"/>
        <pt x="587" y="736" on="0"/>
        <pt x="718" y="400" on="0"/>
        <pt x="735" y="356" on="1"/>
        <pt x="766" y="283" on="0"/>
        <pt x="774" y="195" on="1"/>
        <pt x="791" y="195" on="1"/>
        <pt x="794" y="202" on="0"/>
        <pt x="832" y="328" on="0"/>
        <pt x="858" y="391" on="1"/>
        <pt x="1231" y="1335" on="1"/>
        <pt x="1237" y="1373" on="0"/>
        <pt x="1158" y="1403" on="0"/>
        <pt x="1071" y="1395" on="1"/>
        <pt x="1065" y="1413" on="1"/>
        <pt x="1194" y="1450" on="0"/>
        <pt x="1341" y="1450" on="1"/>
        <pt x="1349" y="1450" on="0"/>
        <pt x="1356" y="1437" on="0"/>
        <pt x="1354" y="1430" on="1"/>
        <pt x="1343" y="1393" on="0"/>
        <pt x="1318" y="1315" on="0"/>
      </contour>
    </TTGlyph>
    <TTGlyph name="W" xMin="-20" yMin="-20" xMax="1933" yMax="1450">
      <contour>
        <pt x="1034" y="1444" on="1"/>
        <pt x="1090" y="1440" on="0"/>
        <pt x="1110" y="1421" on="1"/>
        <pt x="1440" y="377" on="1"/>
        <pt x="1471" y="276" on="0"/>
        <pt x="1475" y="213" on="1"/>
        <pt x="1487" y="213" on="1"/>
        <pt x="1819" y="1335" on="1"/>
        <pt x="1825" y="1373" on="0"/>
        <pt x="1746" y="1403" on="0"/>
        <pt x="1659" y="1395" on="1"/>
        <pt x="1653" y="1413" on="1"/>
        <pt x="1782" y="1450" on="0"/>
        <pt x="1919" y="1450" on="1"/>
        <pt x="1926" y="1450" on="0"/>
        <pt x="1933" y="1437" on="0"/>
        <pt x="1931" y="1430" on="1"/>
        <pt x="1851" y="1147" on="0"/>
        <pt x="1477" y="-20" on="1"/>
        <pt x="1407" y="0" on="1"/>
        <pt x="1040" y="1165" on="1"/>
        <pt x="1040" y="1161" on="1"/>
        <pt x="1028" y="1161" on="1"/>
        <pt x="653" y="-20" on="1"/>
        <pt x="584" y="0" on="1"/>
        <pt x="207" y="1221" on="1"/>
        <pt x="186" y="1289" on="0"/>
        <pt x="123" y="1351" on="0"/>
        <pt x="50" y="1351" on="0"/>
        <pt x="-5" y="1346" on="0"/>
        <pt x="-10" y="1346" on="1"/>
        <pt x="-20" y="1366" on="1"/>
        <pt x="148" y="1450" on="0"/>
        <pt x="281" y="1450" on="1"/>
        <pt x="588" y="451" on="1"/>
        <pt x="624" y="329" on="0"/>
        <pt x="627" y="231" on="1"/>
        <pt x="639" y="231" on="1"/>
      </contour>
    </TTGlyph>
    <TTGlyph name="X" xMin="72" yMin="-20" xMax="1389" yMax="1459">
      <contour>
        <pt x="330" y="1450" on="1"/>
        <pt x="733" y="825" on="1"/>
        <pt x="1028" y="1296" on="0"/>
        <pt x="1032" y="1305" on="1"/>
        <pt x="1056" y="1361" on="0"/>
        <pt x="989" y="1415" on="0"/>
        <pt x="901" y="1423" on="1"/>
        <pt x="897" y="1442" on="1"/>
        <pt x="1077" y="1459" on="0"/>
        <pt x="1165" y="1432" on="1"/>
        <pt x="1173" y="1428" on="0"/>
        <pt x="1177" y="1413" on="0"/>
        <pt x="1174" y="1407" on="1"/>
        <pt x="1153" y="1365" on="0"/>
        <pt x="1081" y="1245" on="0"/>
        <pt x="772" y="766" on="1"/>
        <pt x="1151" y="184" on="1"/>
        <pt x="1177" y="145" on="0"/>
        <pt x="1233" y="88" on="0"/>
        <pt x="1300" y="50" on="0"/>
        <pt x="1348" y="30" on="0"/>
        <pt x="1389" y="16" on="1"/>
        <pt x="1389" y="-4" on="1"/>
        <pt x="1187" y="8" on="0"/>
        <pt x="1090" y="-20" on="1"/>
        <pt x="1075" y="-12" on="1"/>
        <pt x="1079" y="28" on="0"/>
        <pt x="1042" y="84" on="1"/>
        <pt x="649" y="688" on="1"/>
        <pt x="264" y="121" on="1"/>
        <pt x="236" y="81" on="0"/>
        <pt x="301" y="32" on="0"/>
        <pt x="412" y="10" on="1"/>
        <pt x="408" y="-8" on="1"/>
        <pt x="233" y="5" on="0"/>
        <pt x="123" y="0" on="1"/>
        <pt x="116" y="7" on="0"/>
        <pt x="111" y="20" on="1"/>
        <pt x="606" y="754" on="1"/>
        <pt x="303" y="1221" on="1"/>
        <pt x="267" y="1272" on="0"/>
        <pt x="216" y="1325" on="0"/>
        <pt x="167" y="1348" on="0"/>
        <pt x="112" y="1349" on="0"/>
        <pt x="72" y="1348" on="1"/>
        <pt x="72" y="1366" on="1"/>
        <pt x="109" y="1385" on="0"/>
        <pt x="174" y="1416" on="0"/>
        <pt x="236" y="1438" on="0"/>
        <pt x="297" y="1450" on="0"/>
        <pt x="330" y="1450" on="1"/>
      </contour>
    </TTGlyph>
    <TTGlyph name="Y" xMin="-31" yMin="-16" xMax="1120" yMax="1459">
      <contour>
        <pt x="205" y="1448" on="1"/>
        <pt x="242" y="1452" on="0"/>
        <pt x="266" y="1405" on="1"/>
        <pt x="627" y="739" on="1"/>
        <pt x="943" y="1232" on="0"/>
        <pt x="983" y="1335" on="1"/>
        <pt x="996" y="1372" on="0"/>
        <pt x="924" y="1415" on="0"/>
        <pt x="840" y="1423" on="1"/>
        <pt x="836" y="1442" on="1"/>
        <pt x="1016" y="1459" on="0"/>
        <pt x="1104" y="1432" on="1"/>
        <pt x="1120" y="1424" on="0"/>
        <pt x="1112" y="1407" on="1"/>
        <pt x="1095" y="1373" on="0"/>
        <pt x="1055" y="1300" on="0"/>
        <pt x="672" y="686" on="1"/>
        <pt x="672" y="180" on="1"/>
        <pt x="672" y="99" on="0"/>
        <pt x="737" y="25" on="0"/>
        <pt x="829" y="8" on="1"/>
        <pt x="821" y="-16" on="1"/>
        <pt x="710" y="-1" on="0"/>
        <pt x="594" y="1" on="0"/>
        <pt x="504" y="-16" on="1"/>
        <pt x="498" y="-6" on="1"/>
        <pt x="518" y="23" on="0"/>
        <pt x="518" y="100" on="1"/>
        <pt x="518" y="647" on="1"/>
        <pt x="201" y="1221" on="1"/>
        <pt x="161" y="1288" on="0"/>
        <pt x="99" y="1346" on="0"/>
        <pt x="31" y="1355" on="0"/>
        <pt x="-16" y="1348" on="1"/>
        <pt x="-31" y="1366" on="1"/>
        <pt x="116" y="1440" on="0"/>
      </contour>
    </TTGlyph>
    <TTGlyph name="Yacute" xMin="-31" yMin="-16" xMax="1120" yMax="1847">
      <component glyphName="Y" x="0" y="0" flags="0x204"/>
      <component glyphName="acute.case" x="158" y="0" flags="0x4"/>
    </TTGlyph>
    <TTGlyph name="Z" xMin="113" yMin="0" xMax="1153" yMax="1462">
      <contour>
        <pt x="1038" y="0" on="1"/>
        <pt x="145" y="0" on="1"/>
        <pt x="127" y="42" on="0"/>
        <pt x="127" y="98" on="1"/>
        <pt x="167" y="141" on="0"/>
        <pt x="306" y="353" on="0"/>
        <pt x="511" y="706" on="0"/>
        <pt x="636" y="926" on="0"/>
        <pt x="873" y="1353" on="0"/>
        <pt x="883" y="1370" on="1"/>
        <pt x="872" y="1380" on="1"/>
        <pt x="426" y="1380" on="1"/>
        <pt x="369" y="1378" on="0"/>
        <pt x="284" y="1348" on="0"/>
        <pt x="217" y="1284" on="0"/>
        <pt x="171" y="1213" on="0"/>
        <pt x="141" y="1155" on="1"/>
        <pt x="113" y="1171" on="1"/>
        <pt x="186" y="1448" on="1"/>
        <pt x="203" y="1462" on="1"/>
        <pt x="1085" y="1442" on="1"/>
        <pt x="1098" y="1419" on="1"/>
        <pt x="1080" y="1392" on="0"/>
        <pt x="1009" y="1272" on="1"/>
        <pt x="948" y="1165" on="0"/>
        <pt x="870" y="1039" on="1"/>
        <pt x="793" y="911" on="0"/>
        <pt x="713" y="773" on="1"/>
        <pt x="554" y="498" on="1"/>
        <pt x="499" y="402" on="0"/>
        <pt x="289" y="61" on="1"/>
        <pt x="797" y="82" on="1"/>
        <pt x="870" y="85" on="0"/>
        <pt x="973" y="114" on="0"/>
        <pt x="1047" y="176" on="0"/>
        <pt x="1095" y="245" on="0"/>
        <pt x="1124" y="303" on="1"/>
        <pt x="1153" y="291" on="1"/>
        <pt x="1055" y="14" on="1"/>
      </contour>
    </TTGlyph>
    <TTGlyph name="a" xMin="92" yMin="-41" xMax="993" yMax="1042">
      <contour>
        <pt x="860" y="113" on="1"/>
        <pt x="860" y="96" on="0"/>
        <pt x="875" y="67" on="0"/>
        <pt x="896" y="48" on="0"/>
        <pt x="936" y="30" on="0"/>
        <pt x="966" y="20" on="0"/>
        <pt x="993" y="12" on="1"/>
        <pt x="985" y="-12" on="1"/>
        <pt x="921" y="0" on="0"/>
        <pt x="858" y="0" on="1"/>
        <pt x="779" y="0" on="0"/>
        <pt x="702" y="-16" on="1"/>
        <pt x="696" y="-6" on="1"/>
        <pt x="717" y="23" on="0"/>
        <pt x="717" y="100" on="1"/>
        <pt x="717" y="166" on="1"/>
        <pt x="667" y="73" on="0"/>
        <pt x="456" y="-41" on="0"/>
        <pt x="348" y="-41" on="1"/>
        <pt x="233" y="-41" on="0"/>
        <pt x="92" y="78" on="0"/>
        <pt x="92" y="195" on="1"/>
        <pt x="92" y="271" on="0"/>
        <pt x="155" y="390" on="0"/>
        <pt x="260" y="473" on="0"/>
        <pt x="425" y="537" on="0"/>
        <pt x="600" y="577" on="0"/>
        <pt x="717" y="594" on="1"/>
        <pt x="717" y="686" on="1"/>
        <pt x="717" y="961" on="0"/>
        <pt x="500" y="961" on="1"/>
        <pt x="430" y="961" on="0"/>
        <pt x="227" y="892" on="0"/>
        <pt x="158" y="836" on="1"/>
        <pt x="117" y="883" on="1"/>
        <pt x="204" y="952" on="0"/>
        <pt x="443" y="1042" on="0"/>
        <pt x="547" y="1042" on="1"/>
        <pt x="593" y="1042" on="0"/>
        <pt x="676" y="1025" on="0"/>
        <pt x="761" y="980" on="0"/>
        <pt x="822" y="911" on="0"/>
        <pt x="860" y="796" on="0"/>
        <pt x="860" y="723" on="1"/>
      </contour>
      <contour>
        <pt x="395" y="35" on="1"/>
        <pt x="482" y="35" on="0"/>
        <pt x="672" y="150" on="0"/>
        <pt x="717" y="236" on="1"/>
        <pt x="717" y="541" on="1"/>
        <pt x="461" y="504" on="0"/>
        <pt x="242" y="351" on="0"/>
        <pt x="242" y="205" on="1"/>
        <pt x="242" y="116" on="0"/>
        <pt x="318" y="35" on="0"/>
      </contour>
    </TTGlyph>
    <TTGlyph name="aacute" xMin="92" yMin="-41" xMax="993" yMax="1622">
      <component glyphName="a" x="0" y="0" flags="0x204"/>
      <component glyphName="acute" x="215" y="0" flags="0x4"/>
    </TTGlyph>
    <TTGlyph name="acircumflex" xMin="92" yMin="-41" xMax="993" yMax="1649">
      <component glyphName="a" x="0" y="0" flags="0x204"/>
      <component glyphName="circumflex" x="51" y="0" flags="0x4"/>
    </TTGlyph>
    <TTGlyph name="acute" xMin="236" yMin="1196" xMax="602" yMax="1622">
      <contour>
        <pt x="467" y="1616" on="1"/>
        <pt x="487" y="1622" on="1"/>
        <pt x="555" y="1569" on="0"/>
        <pt x="602" y="1548" on="1"/>
        <pt x="598" y="1526" on="1"/>
        <pt x="289" y="1196" on="1"/>
        <pt x="236" y="1223" on="1"/>
      </contour>
    </TTGlyph>
    <TTGlyph name="acute.case" xMin="283" yMin="1575" xMax="717" yMax="1847">
      <contour>
        <pt x="649" y="1845" on="1"/>
        <pt x="672" y="1817" on="0"/>
        <pt x="706" y="1760" on="0"/>
        <pt x="717" y="1733" on="1"/>
        <pt x="705" y="1714" on="1"/>
        <pt x="602" y="1669" on="0"/>
        <pt x="401" y="1604" on="0"/>
        <pt x="299" y="1575" on="1"/>
        <pt x="283" y="1620" on="1"/>
        <pt x="368" y="1671" on="0"/>
        <pt x="541" y="1776" on="0"/>
        <pt x="627" y="1847" on="1"/>
      </contour>
    </TTGlyph>
    <TTGlyph name="adieresis" xMin="92" yMin="-41" xMax="993" yMax="1518">
      <component glyphName="a" x="0" y="0" flags="0x204"/>
      <component glyphName="dieresis" x="156" y="0" flags="0x4"/>
    </TTGlyph>
    <TTGlyph name="ae" xMin="92" yMin="-41" xMax="1554" yMax="1042">
      <contour>
        <pt x="547" y="1042" on="1"/>
        <pt x="766" y="1042" on="0"/>
        <pt x="811" y="838" on="1"/>
        <pt x="880" y="932" on="0"/>
        <pt x="1082" y="1040" on="0"/>
        <pt x="1204" y="1040" on="1"/>
        <pt x="1277" y="1040" on="0"/>
        <pt x="1399" y="992" on="0"/>
        <pt x="1498" y="893" on="0"/>
        <pt x="1554" y="726" on="0"/>
        <pt x="1554" y="616" on="1"/>
        <pt x="1516" y="580" on="1"/>
        <pt x="862" y="580" on="1"/>
        <pt x="851" y="427" on="0"/>
        <pt x="930" y="174" on="0"/>
        <pt x="1085" y="31" on="0"/>
        <pt x="1182" y="31" on="1"/>
        <pt x="1266" y="31" on="0"/>
        <pt x="1439" y="85" on="0"/>
        <pt x="1505" y="147" on="1"/>
        <pt x="1546" y="104" on="1"/>
        <pt x="1467" y="26" on="0"/>
        <pt x="1281" y="-41" on="0"/>
        <pt x="1159" y="-41" on="1"/>
        <pt x="1032" y="-41" on="0"/>
        <pt x="824" y="88" on="0"/>
        <pt x="766" y="205" on="1"/>
        <pt x="701" y="97" on="0"/>
        <pt x="456" y="-41" on="0"/>
        <pt x="348" y="-41" on="1"/>
        <pt x="233" y="-41" on="0"/>
        <pt x="92" y="78" on="0"/>
        <pt x="92" y="195" on="1"/>
        <pt x="92" y="271" on="0"/>
        <pt x="155" y="390" on="0"/>
        <pt x="260" y="473" on="0"/>
        <pt x="425" y="537" on="0"/>
        <pt x="600" y="577" on="0"/>
        <pt x="717" y="594" on="1"/>
        <pt x="717" y="688" on="0"/>
        <pt x="696" y="822" on="0"/>
        <pt x="661" y="902" on="0"/>
        <pt x="603" y="947" on="0"/>
        <pt x="543" y="961" on="0"/>
        <pt x="500" y="961" on="1"/>
        <pt x="430" y="961" on="0"/>
        <pt x="227" y="892" on="0"/>
        <pt x="158" y="836" on="1"/>
        <pt x="117" y="883" on="1"/>
        <pt x="204" y="952" on="0"/>
        <pt x="443" y="1042" on="0"/>
      </contour>
      <contour>
        <pt x="395" y="35" on="1"/>
        <pt x="431" y="35" on="0"/>
        <pt x="513" y="57" on="0"/>
        <pt x="601" y="109" on="0"/>
        <pt x="671" y="186" on="0"/>
        <pt x="717" y="309" on="0"/>
        <pt x="717" y="383" on="1"/>
        <pt x="717" y="541" on="1"/>
        <pt x="461" y="504" on="0"/>
        <pt x="242" y="351" on="0"/>
        <pt x="242" y="205" on="1"/>
        <pt x="242" y="116" on="0"/>
        <pt x="318" y="35" on="0"/>
      </contour>
      <contour>
        <pt x="1182" y="971" on="1"/>
        <pt x="1028" y="971" on="0"/>
        <pt x="883" y="810" on="0"/>
        <pt x="868" y="659" on="1"/>
        <pt x="1425" y="659" on="1"/>
        <pt x="1417" y="823" on="0"/>
        <pt x="1286" y="971" on="0"/>
      </contour>
    </TTGlyph>
    <TTGlyph name="agrave" xMin="92" yMin="-41" xMax="993" yMax="1622">
      <component glyphName="a" x="0" y="0" flags="0x204"/>
      <component glyphName="grave" x="256" y="0" flags="0x4"/>
    </TTGlyph>
    <TTGlyph name="ampersand" xMin="133" yMin="-41" xMax="1589" yMax="1454">
      <contour>
        <pt x="1245" y="276" on="1"/>
        <pt x="1245" y="208" on="0"/>
        <pt x="1259" y="116" on="0"/>
        <pt x="1290" y="60" on="0"/>
        <pt x="1338" y="37" on="0"/>
        <pt x="1372" y="37" on="1"/>
        <pt x="1446" y="37" on="0"/>
        <pt x="1550" y="92" on="1"/>
        <pt x="1581" y="49" on="1"/>
        <pt x="1416" y="-41" on="0"/>
        <pt x="1311" y="-41" on="1"/>
        <pt x="1261" y="-41" on="0"/>
        <pt x="1183" y="-22" on="0"/>
        <pt x="1130" y="37" on="0"/>
        <pt x="1102" y="148" on="0"/>
        <pt x="1102" y="240" on="1"/>
        <pt x="1102" y="766" on="1"/>
        <pt x="467" y="766" on="1"/>
        <pt x="467" y="61" on="1"/>
        <pt x="635" y="63" on="1"/>
        <pt x="689" y="65" on="0"/>
        <pt x="804" y="79" on="0"/>
        <pt x="909" y="103" on="0"/>
        <pt x="994" y="137" on="0"/>
        <pt x="1018" y="158" on="1"/>
        <pt x="1028" y="104" on="1"/>
        <pt x="958" y="0" on="1"/>
        <pt x="932" y="-12" on="1"/>
        <pt x="332" y="0" on="1"/>
        <pt x="313" y="41" on="0"/>
        <pt x="313" y="98" on="1"/>
        <pt x="313" y="1161" on="1"/>
        <pt x="313" y="1225" on="0"/>
        <pt x="301" y="1310" on="0"/>
        <pt x="270" y="1361" on="0"/>
        <pt x="214" y="1382" on="0"/>
        <pt x="170" y="1382" on="1"/>
        <pt x="137" y="1382" on="1"/>
        <pt x="133" y="1411" on="1"/>
        <pt x="384" y="1454" on="0"/>
        <pt x="712" y="1454" on="1"/>
        <pt x="792" y="1454" on="0"/>
        <pt x="958" y="1449" on="0"/>
        <pt x="1047" y="1444" on="1"/>
        <pt x="1053" y="1427" on="1"/>
        <pt x="979" y="1178" on="1"/>
        <pt x="926" y="1188" on="1"/>
        <pt x="931" y="1218" on="0"/>
        <pt x="936" y="1283" on="0"/>
        <pt x="936" y="1318" on="1"/>
        <pt x="936" y="1332" on="0"/>
        <pt x="935" y="1362" on="0"/>
        <pt x="934" y="1378" on="1"/>
        <pt x="866" y="1384" on="0"/>
        <pt x="740" y="1389" on="0"/>
        <pt x="679" y="1389" on="1"/>
        <pt x="567" y="1389" on="0"/>
        <pt x="467" y="1380" on="1"/>
        <pt x="467" y="838" on="1"/>
        <pt x="1102" y="838" on="1"/>
        <pt x="1102" y="1014" on="1"/>
        <pt x="1188" y="1063" on="0"/>
        <pt x="1241" y="1151" on="1"/>
        <pt x="1272" y="1139" on="1"/>
        <pt x="1245" y="1076" on="0"/>
        <pt x="1245" y="842" on="1"/>
        <pt x="1589" y="846" on="1"/>
        <pt x="1589" y="811" on="1"/>
        <pt x="1415" y="766" on="1"/>
        <pt x="1245" y="766" on="1"/>
      </contour>
    </TTGlyph>
    <TTGlyph name="aring" xMin="92" yMin="-41" xMax="993" yMax="1604">
      <component glyphName="a" x="0" y="0" flags="0x204"/>
      <component glyphName="ring" x="203" y="0" flags="0x4"/>
    </TTGlyph>
    <TTGlyph name="asciicircum" xMin="154" yMin="803" xMax="981" yMax="1489">
      <contour>
        <pt x="160" y="877" on="1"/>
        <pt x="508" y="1489" on="1"/>
        <pt x="621" y="1489" on="1"/>
        <pt x="981" y="901" on="1"/>
        <pt x="973" y="830" on="0"/>
        <pt x="924" y="803" on="1"/>
        <pt x="889" y="803" on="1"/>
        <pt x="547" y="1341" on="1"/>
        <pt x="532" y="1341" on="1"/>
        <pt x="227" y="803" on="1"/>
        <pt x="168" y="829" on="1"/>
        <pt x="154" y="856" on="0"/>
      </contour>
    </TTGlyph>
    <TTGlyph name="asciitilde" xMin="55" yMin="582" xMax="1047" yMax="893">
      <contour>
        <pt x="55" y="623" on="1"/>
        <pt x="84" y="666" on="0"/>
        <pt x="120" y="716" on="0"/>
        <pt x="196" y="804" on="0"/>
        <pt x="259" y="853" on="0"/>
        <pt x="349" y="893" on="0"/>
        <pt x="393" y="893" on="1"/>
        <pt x="446" y="893" on="0"/>
        <pt x="558" y="833" on="0"/>
        <pt x="638" y="762" on="0"/>
        <pt x="737" y="702" on="0"/>
        <pt x="778" y="702" on="1"/>
        <pt x="811" y="702" on="0"/>
        <pt x="870" y="748" on="0"/>
        <pt x="960" y="849" on="0"/>
        <pt x="995" y="879" on="1"/>
        <pt x="1047" y="844" on="1"/>
        <pt x="951" y="700" on="0"/>
        <pt x="817" y="582" on="0"/>
        <pt x="748" y="582" on="1"/>
        <pt x="711" y="582" on="0"/>
        <pt x="633" y="620" on="0"/>
        <pt x="565" y="675" on="0"/>
        <pt x="497" y="730" on="0"/>
        <pt x="414" y="770" on="0"/>
        <pt x="373" y="772" on="1"/>
        <pt x="325" y="772" on="0"/>
        <pt x="213" y="682" on="0"/>
        <pt x="127" y="582" on="1"/>
      </contour>
    </TTGlyph>
    <TTGlyph name="asterisk" xMin="113" yMin="671" xMax="1008" yMax="1487">
      <contour>
        <pt x="844" y="1040" on="1"/>
        <pt x="649" y="1040" on="1"/>
        <pt x="829" y="727" on="1"/>
        <pt x="821" y="696" on="1"/>
        <pt x="758" y="678" on="1"/>
        <pt x="729" y="671" on="0"/>
        <pt x="709" y="707" on="1"/>
        <pt x="543" y="989" on="1"/>
        <pt x="414" y="778" on="1"/>
        <pt x="385" y="731" on="0"/>
        <pt x="289" y="676" on="1"/>
        <pt x="270" y="690" on="1"/>
        <pt x="485" y="1040" on="1"/>
        <pt x="113" y="1040" on="1"/>
        <pt x="113" y="1075" on="1"/>
        <pt x="200" y="1116" on="0"/>
        <pt x="276" y="1116" on="1"/>
        <pt x="469" y="1116" on="1"/>
        <pt x="289" y="1423" on="1"/>
        <pt x="297" y="1446" on="1"/>
        <pt x="350" y="1470" on="1"/>
        <pt x="391" y="1487" on="0"/>
        <pt x="416" y="1444" on="1"/>
        <pt x="569" y="1176" on="1"/>
        <pt x="692" y="1374" on="1"/>
        <pt x="722" y="1423" on="0"/>
        <pt x="815" y="1479" on="1"/>
        <pt x="836" y="1464" on="1"/>
        <pt x="623" y="1116" on="1"/>
        <pt x="1008" y="1116" on="1"/>
        <pt x="1008" y="1081" on="1"/>
        <pt x="915" y="1040" on="0"/>
      </contour>
    </TTGlyph>
    <TTGlyph name="at" xMin="154" yMin="-276" xMax="1632" yMax="1276">
      <contour>
        <pt x="1067" y="96" on="1"/>
        <pt x="1030" y="121" on="1"/>
        <pt x="1034" y="231" on="1"/>
        <pt x="1024" y="238" on="1"/>
        <pt x="857" y="96" on="0"/>
        <pt x="760" y="96" on="1"/>
        <pt x="671" y="96" on="0"/>
        <pt x="562" y="191" on="0"/>
        <pt x="532" y="338" on="0"/>
        <pt x="545" y="494" on="0"/>
        <pt x="571" y="565" on="1"/>
        <pt x="623" y="705" on="0"/>
        <pt x="775" y="842" on="0"/>
        <pt x="993" y="862" on="0"/>
        <pt x="1145" y="834" on="1"/>
        <pt x="1187" y="834" on="0"/>
        <pt x="1233" y="850" on="1"/>
        <pt x="1245" y="836" on="1"/>
        <pt x="1232" y="812" on="0"/>
        <pt x="1229" y="782" on="1"/>
        <pt x="1137" y="170" on="1"/>
        <pt x="1335" y="180" on="0"/>
        <pt x="1538" y="435" on="0"/>
        <pt x="1538" y="647" on="1"/>
        <pt x="1538" y="1214" on="0"/>
        <pt x="993" y="1214" on="1"/>
        <pt x="836" y="1214" on="0"/>
        <pt x="564" y="1096" on="0"/>
        <pt x="370" y="888" on="0"/>
        <pt x="260" y="593" on="0"/>
        <pt x="260" y="422" on="1"/>
        <pt x="260" y="287" on="0"/>
        <pt x="322" y="74" on="0"/>
        <pt x="431" y="-67" on="0"/>
        <pt x="586" y="-159" on="0"/>
        <pt x="761" y="-199" on="0"/>
        <pt x="864" y="-199" on="1"/>
        <pt x="1039" y="-199" on="0"/>
        <pt x="1233" y="-123" on="1"/>
        <pt x="1247" y="-170" on="1"/>
        <pt x="1055" y="-276" on="0"/>
        <pt x="823" y="-276" on="1"/>
        <pt x="685" y="-276" on="0"/>
        <pt x="443" y="-181" on="0"/>
        <pt x="260" y="-8" on="0"/>
        <pt x="154" y="255" on="0"/>
        <pt x="154" y="414" on="1"/>
        <pt x="154" y="541" on="0"/>
        <pt x="220" y="785" on="0"/>
        <pt x="363" y="1008" on="0"/>
        <pt x="567" y="1176" on="0"/>
        <pt x="864" y="1276" on="0"/>
        <pt x="1040" y="1276" on="1"/>
        <pt x="1135" y="1276" on="0"/>
        <pt x="1308" y="1231" on="0"/>
        <pt x="1458" y="1135" on="0"/>
        <pt x="1569" y="996" on="0"/>
        <pt x="1632" y="797" on="0"/>
        <pt x="1632" y="678" on="1"/>
        <pt x="1632" y="550" on="0"/>
        <pt x="1569" y="345" on="0"/>
        <pt x="1438" y="187" on="0"/>
        <pt x="1217" y="99" on="0"/>
      </contour>
      <contour>
        <pt x="1108" y="756" on="1"/>
        <pt x="1040" y="779" on="0"/>
        <pt x="943" y="801" on="0"/>
        <pt x="859" y="799" on="0"/>
        <pt x="802" y="771" on="0"/>
        <pt x="751" y="709" on="0"/>
        <pt x="712" y="621" on="0"/>
        <pt x="692" y="555" on="1"/>
        <pt x="678" y="509" on="0"/>
        <pt x="662" y="388" on="0"/>
        <pt x="667" y="256" on="0"/>
        <pt x="729" y="166" on="0"/>
        <pt x="788" y="166" on="1"/>
        <pt x="860" y="166" on="0"/>
        <pt x="1030" y="315" on="1"/>
      </contour>
    </TTGlyph>
    <TTGlyph name="atilde" xMin="92" yMin="-41" xMax="993" yMax="1513">
      <component glyphName="a" x="0" y="0" flags="0x204"/>
      <component glyphName="tilde" x="115" y="0" flags="0x4"/>
    </TTGlyph>
    <TTGlyph name="b" xMin="51" yMin="-23" xMax="1141" yMax="1597">
      <contour>
        <pt x="375" y="868" on="1"/>
        <pt x="463" y="958" on="0"/>
        <pt x="641" y="1040" on="0"/>
        <pt x="748" y="1040" on="1"/>
        <pt x="838" y="1040" on="0"/>
        <pt x="989" y="957" on="0"/>
        <pt x="1087" y="821" on="0"/>
        <pt x="1141" y="650" on="0"/>
        <pt x="1141" y="559" on="1"/>
        <pt x="1141" y="291" on="0"/>
        <pt x="858" y="-20" on="0"/>
        <pt x="590" y="-20" on="1"/>
        <pt x="483" y="-20" on="0"/>
        <pt x="381" y="-2" on="1"/>
        <pt x="379" y="-2" on="1"/>
        <pt x="280" y="-2" on="0"/>
        <pt x="219" y="-23" on="1"/>
        <pt x="211" y="-6" on="1"/>
        <pt x="224" y="13" on="0"/>
        <pt x="231" y="60" on="0"/>
        <pt x="231" y="121" on="1"/>
        <pt x="231" y="1298" on="1"/>
        <pt x="231" y="1430" on="0"/>
        <pt x="174" y="1530" on="0"/>
        <pt x="84" y="1530" on="1"/>
        <pt x="55" y="1530" on="1"/>
        <pt x="51" y="1548" on="1"/>
        <pt x="216" y="1597" on="0"/>
        <pt x="354" y="1597" on="1"/>
        <pt x="375" y="1545" on="0"/>
        <pt x="375" y="1483" on="1"/>
      </contour>
      <contour>
        <pt x="375" y="788" on="1"/>
        <pt x="375" y="115" on="1"/>
        <pt x="423" y="89" on="0"/>
        <pt x="582" y="55" on="0"/>
        <pt x="662" y="55" on="1"/>
        <pt x="740" y="55" on="0"/>
        <pt x="855" y="98" on="0"/>
        <pt x="925" y="171" on="0"/>
        <pt x="968" y="289" on="0"/>
        <pt x="983" y="419" on="0"/>
        <pt x="983" y="506" on="1"/>
        <pt x="983" y="734" on="0"/>
        <pt x="829" y="969" on="0"/>
        <pt x="702" y="969" on="1"/>
        <pt x="623" y="969" on="0"/>
        <pt x="452" y="876" on="0"/>
      </contour>
    </TTGlyph>
    <TTGlyph name="backslash" xMin="-102" yMin="-276" xMax="858" yMax="1700">
      <contour>
        <pt x="-25" y="1700" on="1"/>
        <pt x="16" y="1686" on="1"/>
        <pt x="858" y="-254" on="1"/>
        <pt x="762" y="-276" on="1"/>
        <pt x="739" y="-262" on="1"/>
        <pt x="-102" y="1677" on="1"/>
      </contour>
    </TTGlyph>
    <TTGlyph name="bar" xMin="154" yMin="-555" xMax="272" yMax="1669">
      <contour>
        <pt x="154" y="1649" on="1"/>
        <pt x="193" y="1669" on="1"/>
        <pt x="272" y="1659" on="1"/>
        <pt x="272" y="-539" on="1"/>
        <pt x="254" y="-555" on="1"/>
        <pt x="154" y="-547" on="1"/>
      </contour>
    </TTGlyph>
    <TTGlyph name="braceleft" xMin="113" yMin="-408" xMax="639" yMax="1698">
      <contour>
        <pt x="362" y="-319" on="1"/>
        <pt x="631" y="-319" on="1"/>
        <pt x="639" y="-365" on="1"/>
        <pt x="416" y="-402" on="0"/>
        <pt x="272" y="-408" on="1"/>
        <pt x="248" y="-373" on="0"/>
        <pt x="248" y="-281" on="1"/>
        <pt x="248" y="479" on="1"/>
        <pt x="248" y="598" on="0"/>
        <pt x="113" y="641" on="1"/>
        <pt x="125" y="670" on="1"/>
        <pt x="194" y="691" on="0"/>
        <pt x="248" y="749" on="0"/>
        <pt x="248" y="821" on="1"/>
        <pt x="248" y="1571" on="1"/>
        <pt x="248" y="1663" on="0"/>
        <pt x="272" y="1698" on="1"/>
        <pt x="408" y="1694" on="0"/>
        <pt x="639" y="1655" on="1"/>
        <pt x="631" y="1610" on="1"/>
        <pt x="362" y="1610" on="1"/>
        <pt x="362" y="1047" on="1"/>
        <pt x="362" y="880" on="0"/>
        <pt x="316" y="719" on="0"/>
        <pt x="248" y="662" on="1"/>
        <pt x="242" y="649" on="1"/>
        <pt x="305" y="583" on="0"/>
        <pt x="362" y="386" on="0"/>
        <pt x="362" y="207" on="1"/>
      </contour>
    </TTGlyph>
    <TTGlyph name="braceright" xMin="84" yMin="-408" xMax="610" yMax="1698">
      <contour>
        <pt x="92" y="-319" on="1"/>
        <pt x="360" y="-319" on="1"/>
        <pt x="360" y="207" on="1"/>
        <pt x="360" y="386" on="0"/>
        <pt x="418" y="583" on="0"/>
        <pt x="481" y="649" on="1"/>
        <pt x="475" y="662" on="1"/>
        <pt x="407" y="719" on="0"/>
        <pt x="360" y="881" on="0"/>
        <pt x="360" y="1047" on="1"/>
        <pt x="360" y="1610" on="1"/>
        <pt x="92" y="1610" on="1"/>
        <pt x="84" y="1655" on="1"/>
        <pt x="315" y="1694" on="0"/>
        <pt x="451" y="1698" on="1"/>
        <pt x="475" y="1663" on="0"/>
        <pt x="475" y="1571" on="1"/>
        <pt x="475" y="821" on="1"/>
        <pt x="475" y="749" on="0"/>
        <pt x="529" y="691" on="0"/>
        <pt x="598" y="670" on="1"/>
        <pt x="610" y="641" on="1"/>
        <pt x="475" y="598" on="0"/>
        <pt x="475" y="479" on="1"/>
        <pt x="475" y="-281" on="1"/>
        <pt x="475" y="-373" on="0"/>
        <pt x="451" y="-408" on="1"/>
        <pt x="307" y="-402" on="0"/>
        <pt x="84" y="-365" on="1"/>
      </contour>
    </TTGlyph>
    <TTGlyph name="bracketleft" xMin="92" yMin="-408" xMax="483" yMax="1698">
      <contour>
        <pt x="207" y="-319" on="1"/>
        <pt x="475" y="-319" on="1"/>
        <pt x="483" y="-365" on="1"/>
        <pt x="263" y="-402" on="0"/>
        <pt x="117" y="-408" on="1"/>
        <pt x="92" y="-373" on="0"/>
        <pt x="92" y="-281" on="1"/>
        <pt x="92" y="1571" on="1"/>
        <pt x="92" y="1663" on="0"/>
        <pt x="117" y="1698" on="1"/>
        <pt x="254" y="1694" on="0"/>
        <pt x="483" y="1655" on="1"/>
        <pt x="475" y="1610" on="1"/>
        <pt x="207" y="1610" on="1"/>
      </contour>
    </TTGlyph>
    <TTGlyph name="bracketright" xMin="72" yMin="-408" xMax="463" yMax="1698">
      <contour>
        <pt x="80" y="-319" on="1"/>
        <pt x="348" y="-319" on="1"/>
        <pt x="348" y="1610" on="1"/>
        <pt x="80" y="1610" on="1"/>
        <pt x="72" y="1655" on="1"/>
        <pt x="301" y="1694" on="0"/>
        <pt x="438" y="1698" on="1"/>
        <pt x="463" y="1663" on="0"/>
        <pt x="463" y="1571" on="1"/>
        <pt x="463" y="-281" on="1"/>
        <pt x="463" y="-373" on="0"/>
        <pt x="438" y="-408" on="1"/>
        <pt x="292" y="-402" on="0"/>
        <pt x="72" y="-365" on="1"/>
      </contour>
    </TTGlyph>
    <TTGlyph name="brokenbar" xMin="154" yMin="-377" xMax="272" yMax="1485">
      <contour>
        <pt x="154" y="326" on="1"/>
        <pt x="272" y="326" on="1"/>
        <pt x="272" y="-360" on="1"/>
        <pt x="254" y="-377" on="1"/>
        <pt x="154" y="-369" on="1"/>
      </contour>
      <contour>
        <pt x="272" y="729" on="1"/>
        <pt x="154" y="729" on="1"/>
        <pt x="154" y="1464" on="1"/>
        <pt x="193" y="1485" on="1"/>
        <pt x="272" y="1475" on="1"/>
      </contour>
    </TTGlyph>
    <TTGlyph name="bullet" xMin="133" yMin="571" xMax="514" yMax="948">
      <contour>
        <pt x="514" y="688" on="1"/>
        <pt x="426" y="607" on="0"/>
        <pt x="227" y="571" on="1"/>
        <pt x="179" y="674" on="0"/>
        <pt x="133" y="846" on="1"/>
        <pt x="285" y="922" on="0"/>
        <pt x="451" y="948" on="1"/>
        <pt x="453" y="888" on="0"/>
        <pt x="488" y="742" on="0"/>
      </contour>
    </TTGlyph>
    <TTGlyph name="c" xMin="102" yMin="-41" xMax="944" yMax="1040">
      <contour>
        <pt x="575" y="-41" on="1"/>
        <pt x="470" y="-41" on="0"/>
        <pt x="290" y="43" on="0"/>
        <pt x="170" y="184" on="0"/>
        <pt x="102" y="365" on="0"/>
        <pt x="102" y="463" on="1"/>
        <pt x="102" y="603" on="0"/>
        <pt x="184" y="825" on="0"/>
        <pt x="330" y="966" on="0"/>
        <pt x="525" y="1040" on="0"/>
        <pt x="641" y="1040" on="1"/>
        <pt x="769" y="1040" on="0"/>
        <pt x="905" y="993" on="1"/>
        <pt x="840" y="748" on="1"/>
        <pt x="803" y="758" on="1"/>
        <pt x="814" y="863" on="0"/>
        <pt x="797" y="938" on="1"/>
        <pt x="685" y="971" on="0"/>
        <pt x="594" y="971" on="1"/>
        <pt x="418" y="971" on="0"/>
        <pt x="258" y="742" on="0"/>
        <pt x="258" y="518" on="1"/>
        <pt x="258" y="309" on="0"/>
        <pt x="453" y="31" on="0"/>
        <pt x="602" y="31" on="1"/>
        <pt x="787" y="31" on="0"/>
        <pt x="903" y="147" on="1"/>
        <pt x="944" y="104" on="1"/>
        <pt x="869" y="26" on="0"/>
        <pt x="692" y="-41" on="0"/>
      </contour>
    </TTGlyph>
    <TTGlyph name="ccedilla" xMin="102" yMin="-430" xMax="944" yMax="1040">
      <component glyphName="c" x="0" y="0" flags="0x204"/>
      <component glyphName="cedilla" x="238" y="0" flags="0x4"/>
    </TTGlyph>
    <TTGlyph name="cedilla" xMin="246" yMin="-430" xMax="471" yMax="-80">
      <contour>
        <pt x="246" y="-162" on="1"/>
        <pt x="246" y="-137" on="1"/>
        <pt x="294" y="-93" on="0"/>
        <pt x="375" y="-80" on="1"/>
        <pt x="471" y="-146" on="0"/>
        <pt x="471" y="-238" on="1"/>
        <pt x="471" y="-300" on="0"/>
        <pt x="378" y="-405" on="0"/>
        <pt x="293" y="-430" on="1"/>
        <pt x="276" y="-416" on="1"/>
        <pt x="344" y="-341" on="0"/>
        <pt x="344" y="-289" on="1"/>
        <pt x="344" y="-221" on="0"/>
      </contour>
    </TTGlyph>
    <TTGlyph name="cent" xMin="102" yMin="-41" xMax="944" yMax="1452">
      <contour>
        <pt x="606" y="1452" on="1"/>
        <pt x="606" y="1262" on="1"/>
        <pt x="616" y="1264" on="0"/>
        <pt x="641" y="1264" on="1"/>
        <pt x="764" y="1264" on="0"/>
        <pt x="905" y="1217" on="1"/>
        <pt x="840" y="971" on="1"/>
        <pt x="803" y="981" on="1"/>
        <pt x="814" y="1086" on="0"/>
        <pt x="797" y="1161" on="1"/>
        <pt x="692" y="1191" on="0"/>
        <pt x="606" y="1194" on="1"/>
        <pt x="606" y="254" on="1"/>
        <pt x="786" y="254" on="0"/>
        <pt x="903" y="371" on="1"/>
        <pt x="944" y="328" on="1"/>
        <pt x="811" y="188" on="0"/>
        <pt x="606" y="182" on="1"/>
        <pt x="606" y="168" on="1"/>
        <pt x="606" y="55" on="0"/>
        <pt x="561" y="-41" on="1"/>
        <pt x="524" y="-41" on="1"/>
        <pt x="524" y="184" on="1"/>
        <pt x="335" y="204" on="0"/>
        <pt x="102" y="495" on="0"/>
        <pt x="102" y="686" on="1"/>
        <pt x="102" y="927" on="0"/>
        <pt x="332" y="1218" on="0"/>
        <pt x="524" y="1253" on="1"/>
        <pt x="524" y="1317" on="0"/>
        <pt x="569" y="1452" on="1"/>
      </contour>
      <contour>
        <pt x="258" y="741" on="1"/>
        <pt x="258" y="561" on="0"/>
        <pt x="405" y="299" on="0"/>
        <pt x="524" y="264" on="1"/>
        <pt x="524" y="1188" on="1"/>
        <pt x="385" y="1167" on="0"/>
        <pt x="258" y="941" on="0"/>
      </contour>
    </TTGlyph>
    <TTGlyph name="circumflex" xMin="158" yMin="1196" xMax="768" yMax="1649">
      <contour>
        <pt x="211" y="1196" on="1"/>
        <pt x="158" y="1223" on="1"/>
        <pt x="313" y="1412" on="0"/>
        <pt x="436" y="1628" on="1"/>
        <pt x="508" y="1649" on="1"/>
        <pt x="622" y="1429" on="0"/>
        <pt x="768" y="1223" on="1"/>
        <pt x="711" y="1196" on="1"/>
        <pt x="475" y="1473" on="1"/>
        <pt x="463" y="1473" on="1"/>
      </contour>
    </TTGlyph>
    <TTGlyph name="circumflex.case" xMin="172" yMin="1577" xMax="774" yMax="1890">
      <contour>
        <pt x="520" y="1876" on="1"/>
        <pt x="576" y="1805" on="0"/>
        <pt x="706" y="1683" on="0"/>
        <pt x="774" y="1624" on="1"/>
        <pt x="733" y="1579" on="1"/>
        <pt x="705" y="1579" on="1"/>
        <pt x="469" y="1755" on="1"/>
        <pt x="223" y="1577" on="1"/>
        <pt x="205" y="1577" on="1"/>
        <pt x="172" y="1618" on="1"/>
        <pt x="249" y="1681" on="0"/>
        <pt x="393" y="1812" on="0"/>
        <pt x="449" y="1884" on="1"/>
        <pt x="489" y="1890" on="0"/>
      </contour>
    </TTGlyph>
    <TTGlyph name="colon" xMin="131" yMin="-25" xMax="372" yMax="973">
      <contour>
        <pt x="372" y="49" on="1"/>
        <pt x="352" y="29" on="1"/>
        <pt x="262" y="19" on="0"/>
        <pt x="190" y="-25" on="1"/>
        <pt x="147" y="81" on="0"/>
        <pt x="131" y="152" on="1"/>
        <pt x="233" y="204" on="0"/>
        <pt x="333" y="215" on="1"/>
        <pt x="333" y="141" on="0"/>
      </contour>
      <contour>
        <pt x="372" y="807" on="1"/>
        <pt x="352" y="786" on="1"/>
        <pt x="260" y="776" on="0"/>
        <pt x="190" y="733" on="1"/>
        <pt x="148" y="835" on="0"/>
        <pt x="131" y="909" on="1"/>
        <pt x="232" y="962" on="0"/>
        <pt x="333" y="973" on="1"/>
        <pt x="333" y="899" on="0"/>
      </contour>
    </TTGlyph>
    <TTGlyph name="comma" xMin="131" yMin="-328" xMax="387" yMax="217">
      <contour>
        <pt x="333" y="217" on="1"/>
        <pt x="380" y="136" on="0"/>
        <pt x="383" y="44" on="1"/>
        <pt x="387" y="-54" on="0"/>
        <pt x="288" y="-253" on="0"/>
        <pt x="188" y="-328" on="1"/>
        <pt x="153" y="-293" on="1"/>
        <pt x="221" y="-242" on="0"/>
        <pt x="301" y="-70" on="0"/>
        <pt x="284" y="12" on="1"/>
        <pt x="192" y="-23" on="1"/>
        <pt x="150" y="68" on="0"/>
        <pt x="131" y="154" on="1"/>
        <pt x="238" y="207" on="0"/>
      </contour>
    </TTGlyph>
    <TTGlyph name="copyright" xMin="117" yMin="-41" xMax="1612" yMax="1495">
      <contour>
        <pt x="1503" y="731" on="1"/>
        <pt x="1503" y="822" on="0"/>
        <pt x="1458" y="994" on="0"/>
        <pt x="1376" y="1145" on="0"/>
        <pt x="1261" y="1271" on="0"/>
        <pt x="1119" y="1361" on="0"/>
        <pt x="954" y="1411" on="0"/>
        <pt x="864" y="1411" on="1"/>
        <pt x="775" y="1411" on="0"/>
        <pt x="612" y="1362" on="0"/>
        <pt x="469" y="1273" on="0"/>
        <pt x="352" y="1149" on="0"/>
        <pt x="269" y="998" on="0"/>
        <pt x="223" y="824" on="0"/>
        <pt x="223" y="731" on="1"/>
        <pt x="223" y="642" on="0"/>
        <pt x="267" y="472" on="0"/>
        <pt x="347" y="320" on="0"/>
        <pt x="462" y="192" on="0"/>
        <pt x="605" y="99" on="0"/>
        <pt x="771" y="47" on="0"/>
        <pt x="864" y="47" on="1"/>
        <pt x="956" y="47" on="0"/>
        <pt x="1122" y="99" on="0"/>
        <pt x="1264" y="192" on="0"/>
        <pt x="1379" y="319" on="0"/>
        <pt x="1459" y="471" on="0"/>
        <pt x="1503" y="642" on="0"/>
      </contour>
      <contour>
        <pt x="1612" y="731" on="1"/>
        <pt x="1612" y="629" on="0"/>
        <pt x="1559" y="435" on="0"/>
        <pt x="1463" y="263" on="0"/>
        <pt x="1327" y="120" on="0"/>
        <pt x="1161" y="17" on="0"/>
        <pt x="968" y="-41" on="0"/>
        <pt x="864" y="-41" on="1"/>
        <pt x="761" y="-41" on="0"/>
        <pt x="570" y="16" on="0"/>
        <pt x="404" y="119" on="0"/>
        <pt x="268" y="262" on="0"/>
        <pt x="170" y="433" on="0"/>
        <pt x="117" y="628" on="0"/>
        <pt x="117" y="731" on="1"/>
        <pt x="117" y="834" on="0"/>
        <pt x="170" y="1027" on="0"/>
        <pt x="267" y="1197" on="0"/>
        <pt x="403" y="1338" on="0"/>
        <pt x="569" y="1439" on="0"/>
        <pt x="760" y="1495" on="0"/>
        <pt x="864" y="1495" on="1"/>
        <pt x="968" y="1495" on="0"/>
        <pt x="1161" y="1439" on="0"/>
        <pt x="1327" y="1339" on="0"/>
        <pt x="1463" y="1198" on="0"/>
        <pt x="1559" y="1028" on="0"/>
        <pt x="1612" y="834" on="0"/>
      </contour>
      <contour>
        <pt x="1042" y="1128" on="1"/>
        <pt x="965" y="1157" on="0"/>
        <pt x="868" y="1157" on="1"/>
        <pt x="719" y="1157" on="0"/>
        <pt x="592" y="971" on="0"/>
        <pt x="592" y="745" on="1"/>
        <pt x="592" y="666" on="0"/>
        <pt x="629" y="520" on="0"/>
        <pt x="697" y="403" on="0"/>
        <pt x="807" y="332" on="0"/>
        <pt x="874" y="332" on="1"/>
        <pt x="1033" y="332" on="0"/>
        <pt x="1135" y="434" on="1"/>
        <pt x="1171" y="397" on="1"/>
        <pt x="1107" y="336" on="0"/>
        <pt x="961" y="270" on="0"/>
        <pt x="850" y="270" on="1"/>
        <pt x="669" y="270" on="0"/>
        <pt x="455" y="522" on="0"/>
        <pt x="455" y="731" on="1"/>
        <pt x="455" y="954" on="0"/>
        <pt x="702" y="1214" on="0"/>
        <pt x="907" y="1214" on="1"/>
        <pt x="1020" y="1214" on="0"/>
        <pt x="1137" y="1176" on="1"/>
        <pt x="1126" y="1102" on="0"/>
        <pt x="1079" y="958" on="1"/>
        <pt x="1044" y="969" on="1"/>
        <pt x="1063" y="1055" on="0"/>
      </contour>
    </TTGlyph>
    <TTGlyph name="currency" xMin="152" yMin="254" xMax="1081" yMax="1221">
      <contour>
        <pt x="616" y="307" on="1"/>
        <pt x="470" y="307" on="0"/>
        <pt x="367" y="387" on="1"/>
        <pt x="233" y="254" on="1"/>
        <pt x="172" y="315" on="1"/>
        <pt x="205" y="422" on="0"/>
        <pt x="262" y="479" on="1"/>
        <pt x="276" y="494" on="1"/>
        <pt x="213" y="595" on="0"/>
        <pt x="213" y="727" on="1"/>
        <pt x="213" y="863" on="0"/>
        <pt x="283" y="973" on="1"/>
        <pt x="152" y="1104" on="1"/>
        <pt x="211" y="1176" on="1"/>
        <pt x="307" y="1143" on="0"/>
        <pt x="371" y="1079" on="1"/>
        <pt x="375" y="1075" on="1"/>
        <pt x="482" y="1159" on="0"/>
        <pt x="631" y="1159" on="1"/>
        <pt x="768" y="1159" on="0"/>
        <pt x="868" y="1085" on="1"/>
        <pt x="1004" y="1221" on="1"/>
        <pt x="1067" y="1159" on="1"/>
        <pt x="1034" y="1051" on="0"/>
        <pt x="973" y="995" on="1"/>
        <pt x="958" y="981" on="1"/>
        <pt x="1020" y="875" on="0"/>
        <pt x="1020" y="745" on="1"/>
        <pt x="1020" y="609" on="0"/>
        <pt x="952" y="496" on="1"/>
        <pt x="1081" y="362" on="1"/>
        <pt x="1030" y="299" on="1"/>
        <pt x="919" y="334" on="0"/>
        <pt x="866" y="387" on="1"/>
        <pt x="862" y="391" on="1"/>
        <pt x="758" y="307" on="0"/>
      </contour>
      <contour>
        <pt x="616" y="393" on="1"/>
        <pt x="709" y="393" on="0"/>
        <pt x="846" y="498" on="0"/>
        <pt x="909" y="656" on="0"/>
        <pt x="909" y="748" on="1"/>
        <pt x="909" y="832" on="0"/>
        <pt x="852" y="975" on="0"/>
        <pt x="724" y="1071" on="0"/>
        <pt x="633" y="1071" on="1"/>
        <pt x="558" y="1071" on="0"/>
        <pt x="434" y="1011" on="0"/>
        <pt x="358" y="911" on="0"/>
        <pt x="317" y="791" on="0"/>
        <pt x="317" y="727" on="1"/>
        <pt x="317" y="592" on="0"/>
        <pt x="475" y="393" on="0"/>
      </contour>
    </TTGlyph>
    <TTGlyph name="d" xMin="102" yMin="-41" xMax="1157" yMax="1597">
      <contour>
        <pt x="846" y="1298" on="1"/>
        <pt x="846" y="1366" on="0"/>
        <pt x="834" y="1446" on="0"/>
        <pt x="797" y="1506" on="0"/>
        <pt x="727" y="1530" on="0"/>
        <pt x="670" y="1530" on="1"/>
        <pt x="666" y="1548" on="1"/>
        <pt x="831" y="1597" on="0"/>
        <pt x="969" y="1597" on="1"/>
        <pt x="989" y="1544" on="0"/>
        <pt x="989" y="1483" on="1"/>
        <pt x="989" y="180" on="1"/>
        <pt x="989" y="101" on="0"/>
        <pt x="1063" y="25" on="0"/>
        <pt x="1157" y="8" on="1"/>
        <pt x="1149" y="-16" on="1"/>
        <pt x="1034" y="0" on="0"/>
        <pt x="965" y="0" on="1"/>
        <pt x="911" y="0" on="0"/>
        <pt x="831" y="-16" on="1"/>
        <pt x="825" y="-6" on="1"/>
        <pt x="846" y="23" on="0"/>
        <pt x="846" y="100" on="1"/>
        <pt x="846" y="109" on="1"/>
        <pt x="699" y="-41" on="0"/>
        <pt x="539" y="-41" on="1"/>
        <pt x="454" y="-41" on="0"/>
        <pt x="297" y="31" on="0"/>
        <pt x="175" y="158" on="0"/>
        <pt x="102" y="349" on="0"/>
        <pt x="102" y="461" on="1"/>
        <pt x="102" y="729" on="0"/>
        <pt x="385" y="1040" on="0"/>
        <pt x="653" y="1040" on="1"/>
        <pt x="737" y="1040" on="0"/>
        <pt x="846" y="1024" on="1"/>
      </contour>
      <contour>
        <pt x="846" y="913" on="1"/>
        <pt x="732" y="965" on="0"/>
        <pt x="580" y="965" on="1"/>
        <pt x="502" y="965" on="0"/>
        <pt x="388" y="922" on="0"/>
        <pt x="317" y="848" on="0"/>
        <pt x="275" y="731" on="0"/>
        <pt x="260" y="601" on="0"/>
        <pt x="260" y="514" on="1"/>
        <pt x="260" y="285" on="0"/>
        <pt x="430" y="45" on="0"/>
        <pt x="565" y="45" on="1"/>
        <pt x="712" y="45" on="0"/>
        <pt x="846" y="182" on="1"/>
      </contour>
    </TTGlyph>
    <TTGlyph name="degree" xMin="113" yMin="866" xMax="674" yMax="1460">
      <contour>
        <pt x="393" y="952" on="1"/>
        <pt x="478" y="952" on="0"/>
        <pt x="573" y="1084" on="0"/>
        <pt x="573" y="1171" on="1"/>
        <pt x="573" y="1254" on="0"/>
        <pt x="485" y="1372" on="0"/>
        <pt x="403" y="1372" on="1"/>
        <pt x="312" y="1372" on="0"/>
        <pt x="209" y="1245" on="0"/>
        <pt x="209" y="1159" on="1"/>
        <pt x="209" y="1076" on="0"/>
        <pt x="306" y="952" on="0"/>
      </contour>
      <contour>
        <pt x="393" y="866" on="1"/>
        <pt x="262" y="866" on="0"/>
        <pt x="113" y="1042" on="0"/>
        <pt x="113" y="1159" on="1"/>
        <pt x="113" y="1236" on="0"/>
        <pt x="176" y="1370" on="0"/>
        <pt x="311" y="1460" on="0"/>
        <pt x="403" y="1460" on="1"/>
        <pt x="534" y="1460" on="0"/>
        <pt x="674" y="1291" on="0"/>
        <pt x="674" y="1171" on="1"/>
        <pt x="674" y="1094" on="0"/>
        <pt x="613" y="958" on="0"/>
        <pt x="481" y="866" on="0"/>
      </contour>
    </TTGlyph>
    <TTGlyph name="dieresis" xMin="72" yMin="1286" xMax="672" yMax="1518">
      <contour>
        <pt x="72" y="1423" on="1"/>
        <pt x="160" y="1484" on="0"/>
        <pt x="285" y="1518" on="1"/>
        <pt x="285" y="1448" on="0"/>
        <pt x="307" y="1362" on="1"/>
        <pt x="297" y="1331" on="1"/>
        <pt x="215" y="1328" on="0"/>
        <pt x="98" y="1286" on="1"/>
        <pt x="80" y="1339" on="0"/>
      </contour>
      <contour>
        <pt x="436" y="1423" on="1"/>
        <pt x="503" y="1479" on="0"/>
        <pt x="649" y="1518" on="1"/>
        <pt x="649" y="1452" on="0"/>
        <pt x="672" y="1362" on="1"/>
        <pt x="662" y="1331" on="1"/>
        <pt x="580" y="1329" on="0"/>
        <pt x="463" y="1286" on="1"/>
        <pt x="443" y="1343" on="0"/>
      </contour>
    </TTGlyph>
    <TTGlyph name="dieresis.case" xMin="131" yMin="1587" xMax="750" yMax="1819">
      <contour>
        <pt x="131" y="1724" on="1"/>
        <pt x="156" y="1742" on="0"/>
        <pt x="205" y="1770" on="0"/>
        <pt x="256" y="1792" on="0"/>
        <pt x="312" y="1810" on="0"/>
        <pt x="344" y="1819" on="1"/>
        <pt x="344" y="1804" on="0"/>
        <pt x="348" y="1763" on="0"/>
        <pt x="355" y="1719" on="0"/>
        <pt x="363" y="1678" on="0"/>
        <pt x="367" y="1663" on="1"/>
        <pt x="356" y="1632" on="1"/>
        <pt x="313" y="1630" on="0"/>
        <pt x="206" y="1604" on="0"/>
        <pt x="158" y="1587" on="1"/>
        <pt x="148" y="1613" on="0"/>
        <pt x="134" y="1692" on="0"/>
      </contour>
      <contour>
        <pt x="514" y="1724" on="1"/>
        <pt x="556" y="1760" on="0"/>
        <pt x="662" y="1802" on="0"/>
        <pt x="727" y="1819" on="1"/>
        <pt x="727" y="1804" on="0"/>
        <pt x="731" y="1763" on="0"/>
        <pt x="738" y="1719" on="0"/>
        <pt x="746" y="1678" on="0"/>
        <pt x="750" y="1663" on="1"/>
        <pt x="739" y="1632" on="1"/>
        <pt x="688" y="1630" on="0"/>
        <pt x="589" y="1604" on="0"/>
        <pt x="541" y="1587" on="1"/>
        <pt x="531" y="1613" on="0"/>
        <pt x="517" y="1692" on="0"/>
      </contour>
    </TTGlyph>
    <TTGlyph name="divide" xMin="113" yMin="238" xMax="1106" yMax="1227">
      <contour>
        <pt x="942" y="700" on="1"/>
        <pt x="113" y="700" on="1"/>
        <pt x="113" y="735" on="1"/>
        <pt x="200" y="776" on="0"/>
        <pt x="276" y="776" on="1"/>
        <pt x="1106" y="776" on="1"/>
        <pt x="1106" y="741" on="1"/>
        <pt x="1015" y="700" on="0"/>
      </contour>
      <contour>
        <pt x="719" y="309" on="1"/>
        <pt x="698" y="289" on="1"/>
        <pt x="609" y="279" on="0"/>
        <pt x="543" y="238" on="1"/>
        <pt x="502" y="337" on="0"/>
        <pt x="485" y="408" on="1"/>
        <pt x="590" y="459" on="0"/>
        <pt x="680" y="469" on="1"/>
        <pt x="680" y="393" on="0"/>
      </contour>
      <contour>
        <pt x="719" y="1067" on="1"/>
        <pt x="698" y="1047" on="1"/>
        <pt x="605" y="1034" on="0"/>
        <pt x="543" y="995" on="1"/>
        <pt x="502" y="1097" on="0"/>
        <pt x="485" y="1165" on="1"/>
        <pt x="588" y="1216" on="0"/>
        <pt x="680" y="1227" on="1"/>
        <pt x="680" y="1151" on="0"/>
      </contour>
    </TTGlyph>
    <TTGlyph name="dollar" xMin="143" yMin="-205" xMax="905" yMax="1669">
      <contour>
        <pt x="575" y="1669" on="1"/>
        <pt x="575" y="1440" on="1"/>
        <pt x="579" y="1440" on="0"/>
        <pt x="599" y="1442" on="0"/>
        <pt x="604" y="1442" on="1"/>
        <pt x="748" y="1442" on="0"/>
        <pt x="862" y="1376" on="1"/>
        <pt x="848" y="1300" on="0"/>
        <pt x="802" y="1159" on="0"/>
        <pt x="770" y="1092" on="1"/>
        <pt x="745" y="1106" on="1"/>
        <pt x="757" y="1179" on="0"/>
        <pt x="757" y="1239" on="1"/>
        <pt x="757" y="1291" on="0"/>
        <pt x="748" y="1333" on="1"/>
        <pt x="667" y="1378" on="0"/>
        <pt x="575" y="1378" on="1"/>
        <pt x="575" y="804" on="1"/>
        <pt x="804" y="626" on="1"/>
        <pt x="831" y="605" on="0"/>
        <pt x="870" y="545" on="0"/>
        <pt x="894" y="477" on="0"/>
        <pt x="905" y="407" on="0"/>
        <pt x="905" y="375" on="1"/>
        <pt x="905" y="295" on="0"/>
        <pt x="857" y="169" on="0"/>
        <pt x="770" y="78" on="0"/>
        <pt x="648" y="21" on="0"/>
        <pt x="575" y="10" on="1"/>
        <pt x="575" y="4" on="1"/>
        <pt x="575" y="-109" on="0"/>
        <pt x="530" y="-205" on="1"/>
        <pt x="494" y="-205" on="1"/>
        <pt x="494" y="2" on="1"/>
        <pt x="471" y="2" on="1"/>
        <pt x="305" y="2" on="0"/>
        <pt x="143" y="66" on="1"/>
        <pt x="172" y="215" on="0"/>
        <pt x="236" y="350" on="1"/>
        <pt x="262" y="336" on="1"/>
        <pt x="250" y="283" on="0"/>
        <pt x="250" y="129" on="0"/>
        <pt x="260" y="113" on="1"/>
        <pt x="365" y="59" on="0"/>
        <pt x="465" y="59" on="1"/>
        <pt x="494" y="59" on="1"/>
        <pt x="494" y="680" on="1"/>
        <pt x="482" y="687" on="0"/>
        <pt x="424" y="724" on="0"/>
        <pt x="352" y="777" on="0"/>
        <pt x="274" y="848" on="0"/>
        <pt x="210" y="931" on="0"/>
        <pt x="168" y="1025" on="0"/>
        <pt x="168" y="1077" on="1"/>
        <pt x="168" y="1149" on="0"/>
        <pt x="218" y="1267" on="0"/>
        <pt x="305" y="1357" on="0"/>
        <pt x="424" y="1418" on="0"/>
        <pt x="494" y="1432" on="1"/>
        <pt x="494" y="1466" on="1"/>
        <pt x="494" y="1541" on="0"/>
        <pt x="539" y="1669" on="1"/>
      </contour>
      <contour>
        <pt x="750" y="350" on="1"/>
        <pt x="750" y="395" on="0"/>
        <pt x="735" y="462" on="0"/>
        <pt x="696" y="524" on="0"/>
        <pt x="628" y="586" on="0"/>
        <pt x="575" y="625" on="1"/>
        <pt x="575" y="75" on="1"/>
        <pt x="656" y="104" on="0"/>
        <pt x="750" y="241" on="0"/>
      </contour>
      <contour>
        <pt x="309" y="1126" on="1"/>
        <pt x="309" y="1056" on="0"/>
        <pt x="398" y="938" on="0"/>
        <pt x="494" y="862" on="1"/>
        <pt x="494" y="1366" on="1"/>
        <pt x="412" y="1343" on="0"/>
        <pt x="309" y="1220" on="0"/>
      </contour>
    </TTGlyph>
    <TTGlyph name="dotlessi" xMin="51" yMin="-16" xMax="543" yMax="1040">
      <contour>
        <pt x="375" y="180" on="1"/>
        <pt x="375" y="101" on="0"/>
        <pt x="449" y="25" on="0"/>
        <pt x="543" y="8" on="1"/>
        <pt x="535" y="-16" on="1"/>
        <pt x="420" y="0" on="0"/>
        <pt x="350" y="0" on="1"/>
        <pt x="295" y="0" on="0"/>
        <pt x="217" y="-16" on="1"/>
        <pt x="211" y="-6" on="1"/>
        <pt x="231" y="23" on="0"/>
        <pt x="231" y="100" on="1"/>
        <pt x="231" y="741" on="1"/>
        <pt x="231" y="883" on="0"/>
        <pt x="164" y="980" on="0"/>
        <pt x="55" y="973" on="1"/>
        <pt x="51" y="991" on="1"/>
        <pt x="216" y="1040" on="0"/>
        <pt x="354" y="1040" on="1"/>
        <pt x="375" y="988" on="0"/>
        <pt x="375" y="926" on="1"/>
      </contour>
    </TTGlyph>
    <TTGlyph name="e" xMin="102" yMin="-41" xMax="952" yMax="1040">
      <contour>
        <pt x="102" y="487" on="1"/>
        <pt x="102" y="593" on="0"/>
        <pt x="172" y="792" on="0"/>
        <pt x="302" y="947" on="0"/>
        <pt x="487" y="1040" on="0"/>
        <pt x="602" y="1040" on="1"/>
        <pt x="674" y="1040" on="0"/>
        <pt x="802" y="991" on="0"/>
        <pt x="897" y="888" on="0"/>
        <pt x="952" y="727" on="0"/>
        <pt x="952" y="616" on="1"/>
        <pt x="913" y="580" on="1"/>
        <pt x="260" y="580" on="1"/>
        <pt x="258" y="563" on="0"/>
        <pt x="258" y="531" on="0"/>
        <pt x="258" y="515" on="1"/>
        <pt x="258" y="406" on="0"/>
        <pt x="309" y="228" on="0"/>
        <pt x="396" y="101" on="0"/>
        <pt x="514" y="31" on="0"/>
        <pt x="580" y="31" on="1"/>
        <pt x="622" y="31" on="0"/>
        <pt x="709" y="44" on="0"/>
        <pt x="792" y="72" on="0"/>
        <pt x="870" y="116" on="0"/>
        <pt x="903" y="147" on="1"/>
        <pt x="944" y="104" on="1"/>
        <pt x="865" y="26" on="0"/>
        <pt x="679" y="-41" on="0"/>
        <pt x="557" y="-41" on="1"/>
        <pt x="461" y="-41" on="0"/>
        <pt x="294" y="33" on="0"/>
        <pt x="172" y="171" on="0"/>
        <pt x="102" y="366" on="0"/>
      </contour>
      <contour>
        <pt x="580" y="971" on="1"/>
        <pt x="425" y="971" on="0"/>
        <pt x="281" y="810" on="0"/>
        <pt x="266" y="659" on="1"/>
        <pt x="823" y="659" on="1"/>
        <pt x="815" y="823" on="0"/>
        <pt x="684" y="971" on="0"/>
      </contour>
    </TTGlyph>
    <TTGlyph name="eacute" xMin="102" yMin="-41" xMax="952" yMax="1622">
      <component glyphName="e" x="0" y="0" flags="0x4"/>
      <component glyphName="acute" x="203" y="0" flags="0x4"/>
    </TTGlyph>
    <TTGlyph name="ecircumflex" xMin="102" yMin="-41" xMax="952" yMax="1649">
      <component glyphName="e" x="0" y="0" flags="0x4"/>
      <component glyphName="circumflex" x="125" y="0" flags="0x4"/>
    </TTGlyph>
    <TTGlyph name="edieresis" xMin="102" yMin="-41" xMax="952" yMax="1518">
      <component glyphName="e" x="0" y="0" flags="0x4"/>
      <component glyphName="dieresis" x="215" y="0" flags="0x4"/>
    </TTGlyph>
    <TTGlyph name="egrave" xMin="102" yMin="-41" xMax="952" yMax="1622">
      <component glyphName="e" x="0" y="0" flags="0x4"/>
      <component glyphName="grave" x="295" y="0" flags="0x4"/>
    </TTGlyph>
    <TTGlyph name="eight" xMin="113" yMin="-33" xMax="961" yMax="1477">
      <contour>
        <pt x="299" y="1147" on="1"/>
        <pt x="299" y="938" on="0"/>
        <pt x="563" y="821" on="1"/>
        <pt x="752" y="921" on="0"/>
        <pt x="752" y="1130" on="1"/>
        <pt x="752" y="1287" on="0"/>
        <pt x="625" y="1425" on="0"/>
        <pt x="524" y="1425" on="1"/>
        <pt x="415" y="1425" on="0"/>
        <pt x="299" y="1278" on="0"/>
      </contour>
      <contour>
        <pt x="113" y="293" on="1"/>
        <pt x="114" y="372" on="0"/>
        <pt x="162" y="499" on="0"/>
        <pt x="243" y="603" on="0"/>
        <pt x="350" y="689" on="0"/>
        <pt x="410" y="729" on="1"/>
        <pt x="274" y="794" on="0"/>
        <pt x="154" y="989" on="0"/>
        <pt x="154" y="1094" on="1"/>
        <pt x="154" y="1168" on="0"/>
        <pt x="208" y="1305" on="0"/>
        <pt x="306" y="1413" on="0"/>
        <pt x="460" y="1477" on="0"/>
        <pt x="553" y="1477" on="1"/>
        <pt x="692" y="1477" on="0"/>
        <pt x="895" y="1291" on="0"/>
        <pt x="895" y="1143" on="1"/>
        <pt x="895" y="1025" on="0"/>
        <pt x="749" y="846" on="0"/>
        <pt x="627" y="788" on="1"/>
        <pt x="961" y="627" on="0"/>
        <pt x="961" y="354" on="1"/>
        <pt x="961" y="195" on="0"/>
        <pt x="724" y="-33" on="0"/>
        <pt x="526" y="-33" on="1"/>
        <pt x="416" y="-33" on="0"/>
        <pt x="230" y="43" on="0"/>
        <pt x="113" y="194" on="0"/>
      </contour>
      <contour>
        <pt x="813" y="309" on="1"/>
        <pt x="813" y="550" on="0"/>
        <pt x="475" y="692" on="1"/>
        <pt x="358" y="618" on="0"/>
        <pt x="256" y="448" on="0"/>
        <pt x="256" y="307" on="1"/>
        <pt x="256" y="180" on="0"/>
        <pt x="408" y="16" on="0"/>
        <pt x="539" y="16" on="1"/>
        <pt x="656" y="16" on="0"/>
        <pt x="813" y="175" on="0"/>
      </contour>
    </TTGlyph>
    <TTGlyph name="emdash" xMin="0" yMin="639" xMax="1464" yMax="715">
      <contour>
        <pt x="1300" y="639" on="1"/>
        <pt x="0" y="639" on="1"/>
        <pt x="0" y="674" on="1"/>
        <pt x="91" y="715" on="0"/>
        <pt x="164" y="715" on="1"/>
        <pt x="1464" y="715" on="1"/>
        <pt x="1464" y="680" on="1"/>
        <pt x="1377" y="639" on="0"/>
      </contour>
    </TTGlyph>
    <TTGlyph name="endash" xMin="72" yMin="639" xMax="1065" yMax="715">
      <contour>
        <pt x="901" y="639" on="1"/>
        <pt x="72" y="639" on="1"/>
        <pt x="72" y="674" on="1"/>
        <pt x="163" y="715" on="0"/>
        <pt x="236" y="715" on="1"/>
        <pt x="1065" y="715" on="1"/>
        <pt x="1065" y="680" on="1"/>
        <pt x="978" y="639" on="0"/>
      </contour>
    </TTGlyph>
    <TTGlyph name="equal" xMin="113" yMin="578" xMax="1106" yMax="924">
      <contour>
        <pt x="942" y="578" on="1"/>
        <pt x="113" y="578" on="1"/>
        <pt x="113" y="612" on="1"/>
        <pt x="200" y="653" on="0"/>
        <pt x="276" y="653" on="1"/>
        <pt x="1106" y="653" on="1"/>
        <pt x="1106" y="618" on="1"/>
        <pt x="1017" y="578" on="0"/>
      </contour>
      <contour>
        <pt x="942" y="848" on="1"/>
        <pt x="113" y="848" on="1"/>
        <pt x="113" y="883" on="1"/>
        <pt x="204" y="924" on="0"/>
        <pt x="276" y="924" on="1"/>
        <pt x="1106" y="924" on="1"/>
        <pt x="1106" y="889" on="1"/>
        <pt x="1019" y="848" on="0"/>
      </contour>
    </TTGlyph>
    <TTGlyph name="eth" xMin="102" yMin="-41" xMax="1049" yMax="1579">
      <contour>
        <pt x="719" y="1436" on="1"/>
        <pt x="690" y="1417" on="1"/>
        <pt x="854" y="1286" on="0"/>
        <pt x="1049" y="861" on="0"/>
        <pt x="1049" y="590" on="1"/>
        <pt x="1049" y="282" on="0"/>
        <pt x="801" y="-41" on="0"/>
        <pt x="569" y="-41" on="1"/>
        <pt x="480" y="-41" on="0"/>
        <pt x="314" y="28" on="0"/>
        <pt x="181" y="154" on="0"/>
        <pt x="102" y="351" on="0"/>
        <pt x="102" y="471" on="1"/>
        <pt x="102" y="587" on="0"/>
        <pt x="183" y="791" on="0"/>
        <pt x="318" y="931" on="0"/>
        <pt x="500" y="1012" on="0"/>
        <pt x="600" y="1012" on="1"/>
        <pt x="738" y="1012" on="0"/>
        <pt x="842" y="965" on="1"/>
        <pt x="768" y="1212" on="0"/>
        <pt x="606" y="1366" on="1"/>
        <pt x="420" y="1253" on="1"/>
        <pt x="393" y="1292" on="1"/>
        <pt x="492" y="1386" on="1"/>
        <pt x="543" y="1419" on="1"/>
        <pt x="433" y="1503" on="0"/>
        <pt x="297" y="1530" on="1"/>
        <pt x="303" y="1579" on="1"/>
        <pt x="473" y="1563" on="0"/>
        <pt x="621" y="1468" on="1"/>
        <pt x="793" y="1575" on="1"/>
        <pt x="815" y="1542" on="1"/>
      </contour>
      <contour>
        <pt x="903" y="541" on="1"/>
        <pt x="903" y="690" on="0"/>
        <pt x="879" y="819" on="1"/>
        <pt x="723" y="940" on="0"/>
        <pt x="580" y="940" on="1"/>
        <pt x="408" y="940" on="0"/>
        <pt x="260" y="716" on="0"/>
        <pt x="260" y="471" on="1"/>
        <pt x="260" y="267" on="0"/>
        <pt x="454" y="29" on="0"/>
        <pt x="629" y="29" on="1"/>
        <pt x="708" y="29" on="0"/>
        <pt x="819" y="106" on="0"/>
        <pt x="878" y="251" on="0"/>
        <pt x="903" y="426" on="0"/>
      </contour>
    </TTGlyph>
    <TTGlyph name="exclam" xMin="113" yMin="-25" xMax="391" yMax="1468">
      <contour>
        <pt x="215" y="344" on="1"/>
        <pt x="184" y="1169" on="1"/>
        <pt x="179" y="1306" on="0"/>
        <pt x="155" y="1394" on="0"/>
        <pt x="117" y="1407" on="1"/>
        <pt x="113" y="1425" on="1"/>
        <pt x="207" y="1462" on="0"/>
        <pt x="311" y="1468" on="1"/>
        <pt x="328" y="1426" on="0"/>
        <pt x="328" y="1354" on="1"/>
        <pt x="307" y="354" on="1"/>
        <pt x="270" y="351" on="0"/>
        <pt x="233" y="336" on="1"/>
      </contour>
      <contour>
        <pt x="391" y="49" on="1"/>
        <pt x="371" y="29" on="1"/>
        <pt x="281" y="19" on="0"/>
        <pt x="209" y="-25" on="1"/>
        <pt x="168" y="72" on="0"/>
        <pt x="150" y="152" on="1"/>
        <pt x="252" y="204" on="0"/>
        <pt x="352" y="215" on="1"/>
        <pt x="352" y="141" on="0"/>
      </contour>
    </TTGlyph>
    <TTGlyph name="exclamdown" xMin="205" yMin="-457" xMax="483" yMax="1036">
      <contour>
        <pt x="276" y="-158" on="1"/>
        <pt x="307" y="668" on="1"/>
        <pt x="326" y="676" on="1"/>
        <pt x="365" y="659" on="0"/>
        <pt x="399" y="657" on="1"/>
        <pt x="420" y="-342" on="1"/>
        <pt x="420" y="-414" on="0"/>
        <pt x="403" y="-457" on="1"/>
        <pt x="303" y="-451" on="0"/>
        <pt x="205" y="-414" on="1"/>
        <pt x="209" y="-395" on="1"/>
        <pt x="247" y="-382" on="0"/>
        <pt x="271" y="-294" on="0"/>
      </contour>
      <contour>
        <pt x="463" y="983" on="1"/>
        <pt x="483" y="963" on="1"/>
        <pt x="444" y="869" on="0"/>
        <pt x="444" y="797" on="1"/>
        <pt x="340" y="808" on="0"/>
        <pt x="242" y="860" on="1"/>
        <pt x="258" y="933" on="0"/>
        <pt x="301" y="1036" on="1"/>
        <pt x="374" y="993" on="0"/>
      </contour>
    </TTGlyph>
    <TTGlyph name="f" xMin="59" yMin="-16" xMax="781" yMax="1559">
      <contour>
        <pt x="477" y="1456" on="1"/>
        <pt x="424" y="1421" on="0"/>
        <pt x="378" y="1195" on="0"/>
        <pt x="373" y="1001" on="1"/>
        <pt x="705" y="1001" on="1"/>
        <pt x="705" y="967" on="1"/>
        <pt x="687" y="959" on="0"/>
        <pt x="637" y="944" on="0"/>
        <pt x="581" y="933" on="0"/>
        <pt x="524" y="926" on="0"/>
        <pt x="500" y="926" on="1"/>
        <pt x="373" y="926" on="1"/>
        <pt x="373" y="180" on="1"/>
        <pt x="373" y="140" on="0"/>
        <pt x="390" y="82" on="0"/>
        <pt x="430" y="42" on="0"/>
        <pt x="494" y="16" on="0"/>
        <pt x="541" y="8" on="1"/>
        <pt x="532" y="-16" on="1"/>
        <pt x="475" y="-8" on="0"/>
        <pt x="383" y="0" on="0"/>
        <pt x="348" y="0" on="1"/>
        <pt x="291" y="0" on="0"/>
        <pt x="215" y="-16" on="1"/>
        <pt x="209" y="-6" on="1"/>
        <pt x="229" y="23" on="0"/>
        <pt x="229" y="100" on="1"/>
        <pt x="229" y="920" on="1"/>
        <pt x="59" y="909" on="1"/>
        <pt x="59" y="965" on="1"/>
        <pt x="161" y="997" on="0"/>
        <pt x="229" y="997" on="1"/>
        <pt x="229" y="1030" on="1"/>
        <pt x="229" y="1117" on="0"/>
        <pt x="245" y="1264" on="0"/>
        <pt x="291" y="1385" on="0"/>
        <pt x="372" y="1478" on="0"/>
        <pt x="438" y="1511" on="1"/>
        <pt x="490" y="1537" on="0"/>
        <pt x="601" y="1559" on="0"/>
        <pt x="668" y="1559" on="1"/>
        <pt x="694" y="1559" on="0"/>
        <pt x="749" y="1556" on="0"/>
        <pt x="780" y="1554" on="1"/>
        <pt x="781" y="1543" on="0"/>
        <pt x="781" y="1522" on="0"/>
        <pt x="781" y="1481" on="0"/>
        <pt x="776" y="1419" on="0"/>
        <pt x="768" y="1361" on="0"/>
        <pt x="757" y="1309" on="0"/>
        <pt x="750" y="1290" on="1"/>
        <pt x="717" y="1296" on="1"/>
        <pt x="717" y="1315" on="0"/>
        <pt x="710" y="1372" on="0"/>
        <pt x="700" y="1428" on="0"/>
        <pt x="688" y="1473" on="0"/>
        <pt x="682" y="1481" on="1"/>
        <pt x="638" y="1492" on="0"/>
        <pt x="602" y="1492" on="1"/>
        <pt x="532" y="1492" on="0"/>
      </contour>
    </TTGlyph>
    <TTGlyph name="five" xMin="133" yMin="-41" xMax="885" yMax="1602">
      <contour>
        <pt x="170" y="739" on="1"/>
        <pt x="137" y="768" on="1"/>
        <pt x="139" y="853" on="0"/>
        <pt x="141" y="1019" on="0"/>
        <pt x="141" y="1104" on="1"/>
        <pt x="141" y="1189" on="0"/>
        <pt x="139" y="1355" on="0"/>
        <pt x="137" y="1440" on="1"/>
        <pt x="143" y="1452" on="1"/>
        <pt x="224" y="1448" on="0"/>
        <pt x="376" y="1444" on="0"/>
        <pt x="449" y="1444" on="1"/>
        <pt x="542" y="1444" on="0"/>
        <pt x="650" y="1455" on="0"/>
        <pt x="716" y="1483" on="0"/>
        <pt x="756" y="1532" on="0"/>
        <pt x="780" y="1571" on="1"/>
        <pt x="786" y="1581" on="0"/>
        <pt x="795" y="1597" on="0"/>
        <pt x="799" y="1602" on="1"/>
        <pt x="827" y="1589" on="1"/>
        <pt x="759" y="1341" on="0"/>
        <pt x="737" y="1296" on="1"/>
        <pt x="640" y="1304" on="0"/>
        <pt x="443" y="1310" on="0"/>
        <pt x="340" y="1310" on="1"/>
        <pt x="306" y="1310" on="0"/>
        <pt x="239" y="1310" on="0"/>
        <pt x="205" y="1309" on="1"/>
        <pt x="203" y="1249" on="0"/>
        <pt x="200" y="1131" on="0"/>
        <pt x="200" y="1069" on="1"/>
        <pt x="200" y="1008" on="0"/>
        <pt x="203" y="884" on="0"/>
        <pt x="205" y="821" on="1"/>
        <pt x="304" y="856" on="0"/>
        <pt x="426" y="856" on="1"/>
        <pt x="471" y="856" on="0"/>
        <pt x="575" y="841" on="0"/>
        <pt x="677" y="806" on="0"/>
        <pt x="771" y="748" on="0"/>
        <pt x="842" y="662" on="0"/>
        <pt x="885" y="544" on="0"/>
        <pt x="885" y="467" on="1"/>
        <pt x="885" y="21" on="0"/>
        <pt x="139" y="-41" on="1"/>
        <pt x="133" y="8" on="1"/>
        <pt x="700" y="77" on="0"/>
        <pt x="700" y="451" on="1"/>
        <pt x="700" y="526" on="0"/>
        <pt x="659" y="648" on="0"/>
        <pt x="575" y="736" on="0"/>
        <pt x="447" y="784" on="0"/>
        <pt x="360" y="784" on="1"/>
        <pt x="331" y="784" on="0"/>
        <pt x="275" y="776" on="0"/>
        <pt x="225" y="762" on="0"/>
        <pt x="184" y="746" on="0"/>
      </contour>
    </TTGlyph>
    <TTGlyph name="foundryicon" xMin="120" yMin="-563" xMax="3465" yMax="1462">
      <contour>
        <pt x="1253" y="813" on="1"/>
        <pt x="1272" y="650" on="0"/>
        <pt x="1279" y="319" on="0"/>
        <pt x="1248" y="13" on="0"/>
        <pt x="1179" y="-253" on="0"/>
        <pt x="1067" y="-450" on="0"/>
        <pt x="911" y="-563" on="0"/>
        <pt x="809" y="-563" on="1"/>
        <pt x="755" y="-563" on="0"/>
        <pt x="686" y="-533" on="0"/>
        <pt x="645" y="-476" on="0"/>
        <pt x="629" y="-391" on="0"/>
        <pt x="629" y="-336" on="1"/>
        <pt x="629" y="-286" on="0"/>
        <pt x="647" y="-196" on="0"/>
        <pt x="659" y="-154" on="1"/>
        <pt x="709" y="-154" on="0"/>
        <pt x="820" y="-187" on="0"/>
        <pt x="862" y="-229" on="1"/>
        <pt x="858" y="-258" on="0"/>
        <pt x="850" y="-326" on="0"/>
        <pt x="847" y="-395" on="0"/>
        <pt x="850" y="-461" on="0"/>
        <pt x="858" y="-489" on="1"/>
        <pt x="922" y="-448" on="0"/>
        <pt x="993" y="-338" on="0"/>
        <pt x="1033" y="-198" on="0"/>
        <pt x="1053" y="-28" on="0"/>
        <pt x="1065" y="74" on="1"/>
        <pt x="1057" y="61" on="0"/>
        <pt x="1024" y="37" on="0"/>
        <pt x="1004" y="37" on="1"/>
        <pt x="929" y="37" on="0"/>
        <pt x="827" y="118" on="0"/>
        <pt x="795" y="184" on="1"/>
        <pt x="784" y="153" on="0"/>
        <pt x="747" y="89" on="0"/>
        <pt x="690" y="37" on="0"/>
        <pt x="612" y="4" on="0"/>
        <pt x="561" y="4" on="1"/>
        <pt x="483" y="4" on="0"/>
        <pt x="358" y="51" on="0"/>
        <pt x="262" y="134" on="0"/>
        <pt x="192" y="246" on="0"/>
        <pt x="146" y="377" on="0"/>
        <pt x="122" y="521" on="0"/>
        <pt x="121" y="594" on="1"/>
        <pt x="120" y="719" on="0"/>
        <pt x="151" y="967" on="0"/>
        <pt x="223" y="1193" on="0"/>
        <pt x="340" y="1388" on="0"/>
        <pt x="424" y="1462" on="1"/>
        <pt x="470" y="1452" on="0"/>
        <pt x="578" y="1420" on="0"/>
        <pt x="671" y="1350" on="0"/>
        <pt x="733" y="1231" on="0"/>
        <pt x="733" y="1135" on="1"/>
        <pt x="733" y="1060" on="0"/>
        <pt x="661" y="938" on="0"/>
        <pt x="604" y="889" on="1"/>
        <pt x="595" y="879" on="0"/>
        <pt x="585" y="875" on="0"/>
        <pt x="582" y="880" on="0"/>
        <pt x="582" y="890" on="0"/>
        <pt x="584" y="895" on="1"/>
        <pt x="591" y="936" on="0"/>
        <pt x="584" y="1035" on="0"/>
        <pt x="564" y="1128" on="0"/>
        <pt x="537" y="1203" on="0"/>
        <pt x="524" y="1219" on="1"/>
        <pt x="499" y="1196" on="0"/>
        <pt x="453" y="1088" on="0"/>
        <pt x="417" y="940" on="0"/>
        <pt x="394" y="764" on="0"/>
        <pt x="387" y="579" on="0"/>
        <pt x="401" y="397" on="0"/>
        <pt x="439" y="238" on="0"/>
        <pt x="504" y="113" on="0"/>
        <pt x="553" y="78" on="1"/>
        <pt x="593" y="91" on="0"/>
        <pt x="657" y="144" on="0"/>
        <pt x="708" y="208" on="0"/>
        <pt x="744" y="273" on="0"/>
        <pt x="756" y="299" on="1"/>
        <pt x="734" y="370" on="0"/>
        <pt x="719" y="531" on="0"/>
        <pt x="719" y="612" on="1"/>
        <pt x="719" y="690" on="0"/>
        <pt x="739" y="796" on="0"/>
        <pt x="758" y="831" on="1"/>
        <pt x="773" y="828" on="0"/>
        <pt x="823" y="818" on="0"/>
        <pt x="878" y="800" on="0"/>
        <pt x="932" y="774" on="0"/>
        <pt x="952" y="756" on="1"/>
        <pt x="947" y="673" on="0"/>
        <pt x="944" y="511" on="0"/>
        <pt x="953" y="355" on="0"/>
        <pt x="977" y="206" on="0"/>
        <pt x="999" y="135" on="1"/>
        <pt x="1011" y="138" on="0"/>
        <pt x="1026" y="152" on="0"/>
        <pt x="1035" y="168" on="0"/>
        <pt x="1040" y="185" on="0"/>
        <pt x="1042" y="190" on="1"/>
        <pt x="1063" y="285" on="0"/>
        <pt x="1066" y="491" on="0"/>
        <pt x="1050" y="684" on="0"/>
        <pt x="1023" y="852" on="0"/>
        <pt x="1014" y="909" on="1"/>
        <pt x="1041" y="912" on="0"/>
        <pt x="1107" y="899" on="0"/>
        <pt x="1173" y="872" on="0"/>
        <pt x="1233" y="834" on="0"/>
      </contour>
      <contour>
        <pt x="1286" y="850" on="1"/>
        <pt x="1368" y="846" on="0"/>
        <pt x="1417" y="834" on="1"/>
        <pt x="1470" y="823" on="0"/>
        <pt x="1505" y="784" on="1"/>
        <pt x="1528" y="742" on="0"/>
        <pt x="1565" y="624" on="0"/>
        <pt x="1571" y="543" on="1"/>
        <pt x="1606" y="609" on="0"/>
        <pt x="1653" y="706" on="0"/>
        <pt x="1667" y="748" on="1"/>
        <pt x="1667" y="761" on="0"/>
        <pt x="1672" y="797" on="0"/>
        <pt x="1681" y="833" on="0"/>
        <pt x="1692" y="867" on="0"/>
        <pt x="1698" y="879" on="1"/>
        <pt x="1730" y="876" on="0"/>
        <pt x="1791" y="863" on="0"/>
        <pt x="1842" y="843" on="0"/>
        <pt x="1881" y="814" on="0"/>
        <pt x="1892" y="795" on="1"/>
        <pt x="1885" y="758" on="0"/>
        <pt x="1876" y="672" on="0"/>
        <pt x="1873" y="585" on="0"/>
        <pt x="1877" y="500" on="0"/>
        <pt x="1884" y="463" on="1"/>
        <pt x="1712" y="417" on="0"/>
        <pt x="1688" y="586" on="1"/>
        <pt x="1680" y="565" on="0"/>
        <pt x="1653" y="523" on="0"/>
        <pt x="1624" y="477" on="0"/>
        <pt x="1598" y="427" on="0"/>
        <pt x="1591" y="399" on="1"/>
        <pt x="1591" y="373" on="0"/>
        <pt x="1590" y="308" on="0"/>
        <pt x="1587" y="242" on="0"/>
        <pt x="1578" y="180" on="0"/>
        <pt x="1571" y="158" on="1"/>
        <pt x="1562" y="126" on="0"/>
        <pt x="1531" y="73" on="0"/>
        <pt x="1489" y="36" on="0"/>
        <pt x="1433" y="21" on="0"/>
        <pt x="1399" y="27" on="1"/>
        <pt x="1395" y="88" on="0"/>
        <pt x="1388" y="227" on="0"/>
        <pt x="1377" y="374" on="0"/>
        <pt x="1362" y="524" on="0"/>
        <pt x="1340" y="666" on="0"/>
        <pt x="1308" y="796" on="0"/>
      </contour>
      <contour>
        <pt x="2552" y="113" on="1"/>
        <pt x="2564" y="123" on="0"/>
        <pt x="2596" y="155" on="0"/>
        <pt x="2624" y="192" on="0"/>
        <pt x="2644" y="235" on="0"/>
        <pt x="2646" y="256" on="1"/>
        <pt x="2632" y="312" on="0"/>
        <pt x="2618" y="434" on="0"/>
        <pt x="2613" y="547" on="0"/>
        <pt x="2615" y="641" on="0"/>
        <pt x="2617" y="670" on="1"/>
        <pt x="2602" y="651" on="0"/>
        <pt x="2573" y="578" on="0"/>
        <pt x="2549" y="482" on="0"/>
        <pt x="2533" y="373" on="0"/>
        <pt x="2529" y="261" on="0"/>
        <pt x="2538" y="156" on="0"/>
      </contour>
      <contour>
        <pt x="3154" y="535" on="1"/>
        <pt x="3188" y="585" on="0"/>
        <pt x="3235" y="746" on="0"/>
        <pt x="3258" y="925" on="0"/>
        <pt x="3258" y="1097" on="0"/>
        <pt x="3246" y="1159" on="1"/>
        <pt x="3231" y="1097" on="0"/>
        <pt x="3201" y="946" on="0"/>
        <pt x="3176" y="783" on="0"/>
        <pt x="3158" y="615" on="0"/>
      </contour>
      <contour>
        <pt x="2177" y="690" on="1"/>
        <pt x="2149" y="605" on="0"/>
        <pt x="2122" y="412" on="0"/>
        <pt x="2122" y="315" on="1"/>
        <pt x="2145" y="318" on="0"/>
        <pt x="2179" y="362" on="0"/>
        <pt x="2201" y="427" on="0"/>
        <pt x="2212" y="505" on="0"/>
        <pt x="2212" y="543" on="1"/>
        <pt x="2212" y="588" on="0"/>
        <pt x="2188" y="669" on="0"/>
      </contour>
      <contour>
        <pt x="2441" y="1317" on="1"/>
        <pt x="2426" y="1286" on="0"/>
        <pt x="2394" y="1206" on="0"/>
        <pt x="2355" y="1121" on="0"/>
        <pt x="2308" y="1037" on="0"/>
        <pt x="2248" y="968" on="0"/>
        <pt x="2172" y="919" on="0"/>
        <pt x="2124" y="911" on="1"/>
        <pt x="2138" y="883" on="0"/>
        <pt x="2165" y="831" on="0"/>
        <pt x="2177" y="809" on="1"/>
        <pt x="2177" y="807" on="0"/>
        <pt x="2179" y="805" on="1"/>
        <pt x="2235" y="777" on="0"/>
        <pt x="2298" y="662" on="0"/>
        <pt x="2298" y="571" on="1"/>
        <pt x="2298" y="519" on="0"/>
        <pt x="2276" y="413" on="0"/>
        <pt x="2232" y="322" on="0"/>
        <pt x="2168" y="255" on="0"/>
        <pt x="2126" y="242" on="1"/>
        <pt x="2137" y="198" on="0"/>
        <pt x="2164" y="121" on="0"/>
        <pt x="2193" y="102" on="1"/>
        <pt x="2223" y="114" on="0"/>
        <pt x="2270" y="160" on="0"/>
        <pt x="2307" y="214" on="0"/>
        <pt x="2335" y="272" on="0"/>
        <pt x="2345" y="297" on="1"/>
        <pt x="2345" y="406" on="1"/>
        <pt x="2347" y="461" on="0"/>
        <pt x="2363" y="567" on="0"/>
        <pt x="2394" y="665" on="0"/>
        <pt x="2443" y="753" on="0"/>
        <pt x="2478" y="791" on="1"/>
        <pt x="2513" y="791" on="0"/>
        <pt x="2591" y="776" on="0"/>
        <pt x="2623" y="764" on="1"/>
        <pt x="2626" y="771" on="0"/>
        <pt x="2636" y="815" on="0"/>
        <pt x="2649" y="864" on="0"/>
        <pt x="2663" y="904" on="0"/>
        <pt x="2669" y="909" on="1"/>
        <pt x="2686" y="914" on="0"/>
        <pt x="2738" y="905" on="0"/>
        <pt x="2791" y="885" on="0"/>
        <pt x="2837" y="858" on="0"/>
        <pt x="2849" y="846" on="1"/>
        <pt x="2837" y="765" on="0"/>
        <pt x="2821" y="568" on="0"/>
        <pt x="2819" y="365" on="0"/>
        <pt x="2837" y="172" on="0"/>
        <pt x="2859" y="96" on="1"/>
        <pt x="2874" y="92" on="0"/>
        <pt x="2904" y="118" on="0"/>
        <pt x="2932" y="157" on="0"/>
        <pt x="2954" y="199" on="0"/>
        <pt x="2961" y="211" on="1"/>
        <pt x="2955" y="240" on="1"/>
        <pt x="2935" y="334" on="0"/>
        <pt x="2917" y="542" on="0"/>
        <pt x="2920" y="756" on="0"/>
        <pt x="2942" y="968" on="0"/>
        <pt x="2984" y="1167" on="0"/>
        <pt x="3046" y="1346" on="0"/>
        <pt x="3086" y="1419" on="1"/>
        <pt x="3176" y="1404" on="0"/>
        <pt x="3294" y="1348" on="0"/>
        <pt x="3363" y="1254" on="0"/>
        <pt x="3391" y="1119" on="0"/>
        <pt x="3391" y="1026" on="1"/>
        <pt x="3391" y="938" on="0"/>
        <pt x="3361" y="752" on="0"/>
        <pt x="3302" y="588" on="0"/>
        <pt x="3215" y="464" on="0"/>
        <pt x="3158" y="438" on="1"/>
        <pt x="3158" y="332" on="0"/>
        <pt x="3199" y="161" on="0"/>
        <pt x="3244" y="96" on="1"/>
        <pt x="3306" y="143" on="0"/>
        <pt x="3402" y="311" on="0"/>
        <pt x="3434" y="442" on="1"/>
        <pt x="3445" y="447" on="0"/>
        <pt x="3457" y="446" on="0"/>
        <pt x="3463" y="446" on="1"/>
        <pt x="3465" y="406" on="0"/>
        <pt x="3461" y="312" on="0"/>
        <pt x="3442" y="216" on="0"/>
        <pt x="3406" y="127" on="0"/>
        <pt x="3348" y="58" on="0"/>
        <pt x="3266" y="16" on="0"/>
        <pt x="3211" y="16" on="1"/>
        <pt x="3136" y="16" on="0"/>
        <pt x="3025" y="81" on="0"/>
        <pt x="2990" y="141" on="1"/>
        <pt x="2984" y="117" on="0"/>
        <pt x="2960" y="72" on="0"/>
        <pt x="2926" y="37" on="0"/>
        <pt x="2882" y="16" on="0"/>
        <pt x="2857" y="16" on="1"/>
        <pt x="2828" y="16" on="0"/>
        <pt x="2776" y="40" on="0"/>
        <pt x="2734" y="77" on="0"/>
        <pt x="2702" y="122" on="0"/>
        <pt x="2693" y="143" on="1"/>
        <pt x="2688" y="122" on="0"/>
        <pt x="2659" y="85" on="0"/>
        <pt x="2620" y="57" on="0"/>
        <pt x="2576" y="39" on="0"/>
        <pt x="2556" y="37" on="1"/>
        <pt x="2476" y="37" on="0"/>
        <pt x="2387" y="108" on="0"/>
        <pt x="2372" y="164" on="1"/>
        <pt x="2359" y="143" on="0"/>
        <pt x="2323" y="101" on="0"/>
        <pt x="2277" y="65" on="0"/>
        <pt x="2221" y="40" on="0"/>
        <pt x="2187" y="37" on="1"/>
        <pt x="2107" y="37" on="0"/>
        <pt x="1998" y="101" on="0"/>
        <pt x="1933" y="208" on="0"/>
        <pt x="1908" y="347" on="0"/>
        <pt x="1913" y="422" on="1"/>
        <pt x="1914" y="478" on="0"/>
        <pt x="1927" y="596" on="0"/>
        <pt x="1949" y="706" on="0"/>
        <pt x="1980" y="800" on="0"/>
        <pt x="1999" y="831" on="1"/>
        <pt x="2036" y="836" on="0"/>
        <pt x="2071" y="831" on="1"/>
        <pt x="2061" y="850" on="0"/>
        <pt x="2044" y="892" on="0"/>
        <pt x="2038" y="913" on="1"/>
        <pt x="1996" y="922" on="0"/>
        <pt x="1918" y="964" on="0"/>
        <pt x="1845" y="1023" on="0"/>
        <pt x="1778" y="1093" on="0"/>
        <pt x="1747" y="1130" on="1"/>
        <pt x="1732" y="1143" on="0"/>
        <pt x="1673" y="1157" on="0"/>
        <pt x="1606" y="1170" on="0"/>
        <pt x="1542" y="1190" on="0"/>
        <pt x="1522" y="1208" on="1"/>
        <pt x="1514" y="1215" on="0"/>
        <pt x="1518" y="1229" on="0"/>
        <pt x="1526" y="1229" on="1"/>
        <pt x="1527" y="1227" on="0"/>
        <pt x="1565" y="1222" on="0"/>
        <pt x="1621" y="1216" on="0"/>
        <pt x="1689" y="1210" on="0"/>
        <pt x="1752" y="1205" on="0"/>
        <pt x="1800" y="1202" on="0"/>
        <pt x="1810" y="1202" on="1"/>
        <pt x="1884" y="1216" on="0"/>
        <pt x="2026" y="1242" on="0"/>
        <pt x="2141" y="1266" on="0"/>
        <pt x="2221" y="1289" on="0"/>
        <pt x="2232" y="1300" on="1"/>
        <pt x="2245" y="1345" on="0"/>
        <pt x="2313" y="1395" on="0"/>
        <pt x="2351" y="1395" on="1"/>
        <pt x="2367" y="1395" on="0"/>
        <pt x="2394" y="1390" on="0"/>
        <pt x="2406" y="1382" on="1"/>
        <pt x="2441" y="1395" on="1"/>
        <pt x="2443" y="1395" on="0"/>
        <pt x="2443" y="1394" on="0"/>
        <pt x="2444" y="1394" on="1"/>
        <pt x="2445" y="1394" on="1"/>
        <pt x="2444" y="1393" on="0"/>
        <pt x="2443" y="1393" on="1"/>
        <pt x="2435" y="1354" on="1"/>
        <pt x="2470" y="1354" on="1"/>
        <pt x="2471" y="1352" on="0"/>
        <pt x="2471" y="1352" on="1"/>
        <pt x="2470" y="1352" on="1"/>
      </contour>
      <contour>
        <pt x="2148" y="817" on="1"/>
        <pt x="2134" y="836" on="0"/>
        <pt x="2108" y="883" on="0"/>
        <pt x="2097" y="909" on="1"/>
        <pt x="2066" y="909" on="1"/>
        <pt x="2091" y="829" on="1"/>
        <pt x="2106" y="826" on="0"/>
        <pt x="2134" y="822" on="0"/>
      </contour>
    </TTGlyph>
    <TTGlyph name="four" xMin="31" yMin="-16" xMax="1077" yMax="1509">
      <contour>
        <pt x="700" y="180" on="1"/>
        <pt x="700" y="354" on="1"/>
        <pt x="377" y="360" on="0"/>
        <pt x="51" y="354" on="1"/>
        <pt x="31" y="377" on="1"/>
        <pt x="221" y="589" on="0"/>
        <pt x="692" y="1292" on="0"/>
        <pt x="803" y="1509" on="1"/>
        <pt x="852" y="1501" on="1"/>
        <pt x="854" y="1460" on="0"/>
        <pt x="854" y="1386" on="1"/>
        <pt x="854" y="481" on="1"/>
        <pt x="856" y="481" on="1"/>
        <pt x="923" y="481" on="0"/>
        <pt x="1009" y="529" on="0"/>
        <pt x="1051" y="596" on="1"/>
        <pt x="1077" y="584" on="1"/>
        <pt x="1006" y="346" on="1"/>
        <pt x="902" y="350" on="0"/>
        <pt x="854" y="350" on="1"/>
        <pt x="854" y="180" on="1"/>
        <pt x="854" y="101" on="0"/>
        <pt x="928" y="25" on="0"/>
        <pt x="1022" y="8" on="1"/>
        <pt x="1014" y="-16" on="1"/>
        <pt x="899" y="0" on="0"/>
        <pt x="784" y="0" on="1"/>
        <pt x="655" y="0" on="0"/>
        <pt x="541" y="-16" on="1"/>
        <pt x="532" y="8" on="1"/>
        <pt x="626" y="25" on="0"/>
        <pt x="700" y="101" on="0"/>
      </contour>
      <contour>
        <pt x="231" y="489" on="1"/>
        <pt x="399" y="481" on="0"/>
        <pt x="700" y="481" on="1"/>
        <pt x="700" y="991" on="1"/>
        <pt x="700" y="1102" on="0"/>
        <pt x="721" y="1212" on="1"/>
        <pt x="711" y="1217" on="1"/>
        <pt x="446" y="767" on="0"/>
        <pt x="227" y="496" on="1"/>
      </contour>
    </TTGlyph>
    <TTGlyph name="fraction" xMin="-82" yMin="-31" xMax="993" yMax="1522">
      <contour>
        <pt x="895" y="1516" on="1"/>
        <pt x="915" y="1522" on="1"/>
        <pt x="993" y="1487" on="1"/>
        <pt x="18" y="-20" on="1"/>
        <pt x="-6" y="-31" on="1"/>
        <pt x="-82" y="8" on="1"/>
      </contour>
    </TTGlyph>
    <TTGlyph name="g" xMin="113" yMin="-588" xMax="1065" yMax="1040">
      <contour>
        <pt x="1018" y="-254" on="1"/>
        <pt x="1018" y="-354" on="0"/>
        <pt x="869" y="-509" on="0"/>
        <pt x="633" y="-588" on="0"/>
        <pt x="496" y="-588" on="1"/>
        <pt x="391" y="-588" on="0"/>
        <pt x="223" y="-532" on="0"/>
        <pt x="113" y="-402" on="0"/>
        <pt x="113" y="-309" on="1"/>
        <pt x="113" y="-212" on="0"/>
        <pt x="283" y="-46" on="0"/>
        <pt x="422" y="12" on="1"/>
        <pt x="296" y="40" on="0"/>
        <pt x="186" y="107" on="0"/>
        <pt x="186" y="178" on="1"/>
        <pt x="186" y="241" on="0"/>
        <pt x="264" y="318" on="0"/>
        <pt x="358" y="342" on="1"/>
        <pt x="248" y="376" on="0"/>
        <pt x="125" y="542" on="0"/>
        <pt x="125" y="674" on="1"/>
        <pt x="125" y="770" on="0"/>
        <pt x="238" y="940" on="0"/>
        <pt x="423" y="1040" on="0"/>
        <pt x="524" y="1040" on="1"/>
        <pt x="640" y="1040" on="0"/>
        <pt x="729" y="1004" on="1"/>
        <pt x="1057" y="1040" on="1"/>
        <pt x="1065" y="1006" on="1"/>
        <pt x="993" y="932" on="1"/>
        <pt x="815" y="948" on="1"/>
        <pt x="918" y="856" on="0"/>
        <pt x="918" y="682" on="1"/>
        <pt x="918" y="594" on="0"/>
        <pt x="812" y="428" on="0"/>
        <pt x="626" y="322" on="0"/>
        <pt x="520" y="322" on="1"/>
        <pt x="376" y="297" on="0"/>
        <pt x="295" y="259" on="0"/>
        <pt x="295" y="217" on="1"/>
        <pt x="295" y="192" on="0"/>
        <pt x="405" y="145" on="0"/>
        <pt x="567" y="104" on="1"/>
        <pt x="641" y="86" on="0"/>
        <pt x="743" y="57" on="0"/>
        <pt x="845" y="20" on="0"/>
        <pt x="910" y="-18" on="0"/>
        <pt x="969" y="-69" on="0"/>
        <pt x="1000" y="-130" on="0"/>
        <pt x="1018" y="-206" on="0"/>
      </contour>
      <contour>
        <pt x="557" y="-14" on="1"/>
        <pt x="516" y="-4" on="1"/>
        <pt x="390" y="-51" on="0"/>
        <pt x="244" y="-211" on="0"/>
        <pt x="244" y="-293" on="1"/>
        <pt x="244" y="-351" on="0"/>
        <pt x="307" y="-440" on="0"/>
        <pt x="413" y="-490" on="0"/>
        <pt x="533" y="-514" on="0"/>
        <pt x="598" y="-514" on="1"/>
        <pt x="891" y="-514" on="0"/>
        <pt x="891" y="-285" on="1"/>
        <pt x="891" y="-174" on="0"/>
        <pt x="724" y="-50" on="0"/>
      </contour>
      <contour>
        <pt x="483" y="969" on="1"/>
        <pt x="357" y="969" on="0"/>
        <pt x="260" y="840" on="0"/>
        <pt x="260" y="690" on="1"/>
        <pt x="260" y="620" on="0"/>
        <pt x="305" y="511" on="0"/>
        <pt x="373" y="448" on="0"/>
        <pt x="464" y="407" on="0"/>
        <pt x="543" y="393" on="0"/>
        <pt x="582" y="393" on="1"/>
        <pt x="684" y="393" on="0"/>
        <pt x="782" y="539" on="0"/>
        <pt x="782" y="666" on="1"/>
        <pt x="782" y="739" on="0"/>
        <pt x="737" y="852" on="0"/>
        <pt x="672" y="915" on="0"/>
        <pt x="586" y="956" on="0"/>
        <pt x="516" y="969" on="0"/>
      </contour>
    </TTGlyph>
    <TTGlyph name="germandbls" xMin="51" yMin="-18" xMax="1055" yMax="1579">
      <contour>
        <pt x="481" y="23" on="1"/>
        <pt x="500" y="100" on="1"/>
        <pt x="522" y="104" on="1"/>
        <pt x="684" y="49" on="0"/>
        <pt x="754" y="49" on="1"/>
        <pt x="834" y="49" on="0"/>
        <pt x="913" y="164" on="0"/>
        <pt x="913" y="270" on="1"/>
        <pt x="913" y="355" on="0"/>
        <pt x="803" y="510" on="0"/>
        <pt x="694" y="592" on="1"/>
        <pt x="488" y="747" on="0"/>
        <pt x="486" y="870" on="1"/>
        <pt x="486" y="930" on="0"/>
        <pt x="535" y="983" on="1"/>
        <pt x="608" y="1060" on="1"/>
        <pt x="669" y="1123" on="0"/>
        <pt x="742" y="1206" on="0"/>
        <pt x="780" y="1271" on="0"/>
        <pt x="791" y="1329" on="0"/>
        <pt x="791" y="1366" on="1"/>
        <pt x="791" y="1434" on="0"/>
        <pt x="708" y="1520" on="0"/>
        <pt x="625" y="1520" on="1"/>
        <pt x="563" y="1520" on="0"/>
        <pt x="479" y="1480" on="0"/>
        <pt x="420" y="1395" on="0"/>
        <pt x="387" y="1242" on="0"/>
        <pt x="373" y="1038" on="0"/>
        <pt x="373" y="887" on="1"/>
        <pt x="373" y="106" on="1"/>
        <pt x="373" y="30" on="0"/>
        <pt x="393" y="0" on="1"/>
        <pt x="387" y="-10" on="1"/>
        <pt x="303" y="9" on="0"/>
        <pt x="207" y="-10" on="1"/>
        <pt x="201" y="0" on="1"/>
        <pt x="221" y="30" on="0"/>
        <pt x="221" y="106" on="1"/>
        <pt x="221" y="918" on="1"/>
        <pt x="51" y="909" on="1"/>
        <pt x="51" y="973" on="1"/>
        <pt x="127" y="991" on="0"/>
        <pt x="221" y="997" on="1"/>
        <pt x="221" y="1036" on="1"/>
        <pt x="221" y="1116" on="0"/>
        <pt x="244" y="1265" on="0"/>
        <pt x="301" y="1408" on="0"/>
        <pt x="387" y="1514" on="0"/>
        <pt x="520" y="1579" on="0"/>
        <pt x="604" y="1579" on="1"/>
        <pt x="690" y="1579" on="0"/>
        <pt x="814" y="1547" on="0"/>
        <pt x="882" y="1489" on="0"/>
        <pt x="913" y="1421" on="0"/>
        <pt x="913" y="1380" on="1"/>
        <pt x="913" y="1324" on="0"/>
        <pt x="852" y="1212" on="0"/>
        <pt x="764" y="1124" on="0"/>
        <pt x="677" y="1044" on="0"/>
        <pt x="616" y="968" on="0"/>
        <pt x="616" y="938" on="1"/>
        <pt x="616" y="905" on="0"/>
        <pt x="664" y="834" on="0"/>
        <pt x="742" y="764" on="0"/>
        <pt x="836" y="689" on="0"/>
        <pt x="929" y="605" on="0"/>
        <pt x="1007" y="516" on="0"/>
        <pt x="1055" y="407" on="0"/>
        <pt x="1055" y="350" on="1"/>
        <pt x="1055" y="278" on="0"/>
        <pt x="994" y="139" on="0"/>
        <pt x="900" y="42" on="0"/>
        <pt x="787" y="-18" on="0"/>
        <pt x="735" y="-18" on="1"/>
        <pt x="680" y="-18" on="0"/>
        <pt x="533" y="7" on="0"/>
      </contour>
    </TTGlyph>
    <TTGlyph name="grave" xMin="-31" yMin="1196" xMax="336" yMax="1622">
      <contour>
        <pt x="84" y="1622" on="1"/>
        <pt x="104" y="1616" on="1"/>
        <pt x="336" y="1223" on="1"/>
        <pt x="283" y="1196" on="1"/>
        <pt x="-27" y="1526" on="1"/>
        <pt x="-31" y="1548" on="1"/>
        <pt x="16" y="1569" on="0"/>
      </contour>
    </TTGlyph>
    <TTGlyph name="grave.case" xMin="92" yMin="1575" xMax="526" yMax="1847">
      <contour>
        <pt x="182" y="1847" on="1"/>
        <pt x="225" y="1812" on="0"/>
        <pt x="311" y="1751" on="0"/>
        <pt x="397" y="1696" on="0"/>
        <pt x="483" y="1645" on="0"/>
        <pt x="526" y="1620" on="1"/>
        <pt x="510" y="1575" on="1"/>
        <pt x="408" y="1604" on="0"/>
        <pt x="207" y="1669" on="0"/>
        <pt x="104" y="1714" on="1"/>
        <pt x="92" y="1733" on="1"/>
        <pt x="103" y="1760" on="0"/>
        <pt x="137" y="1817" on="0"/>
        <pt x="160" y="1845" on="1"/>
      </contour>
    </TTGlyph>
    <TTGlyph name="greater" xMin="92" yMin="233" xMax="938" yMax="1239">
      <contour>
        <pt x="938" y="688" on="1"/>
        <pt x="152" y="233" on="1"/>
        <pt x="115" y="244" on="1"/>
        <pt x="92" y="287" on="1"/>
        <pt x="811" y="713" on="1"/>
        <pt x="811" y="727" on="1"/>
        <pt x="92" y="1176" on="1"/>
        <pt x="102" y="1210" on="1"/>
        <pt x="152" y="1239" on="1"/>
        <pt x="938" y="762" on="1"/>
      </contour>
    </TTGlyph>
    <TTGlyph name="guillemotleft" xMin="74" yMin="203" xMax="1008" yMax="977">
      <contour>
        <pt x="508" y="641" on="1"/>
        <pt x="850" y="963" on="1"/>
        <pt x="869" y="967" on="0"/>
        <pt x="903" y="952" on="1"/>
        <pt x="926" y="915" on="1"/>
        <pt x="670" y="684" on="1"/>
        <pt x="652" y="667" on="0"/>
        <pt x="627" y="657" on="1"/>
        <pt x="627" y="653" on="1"/>
        <pt x="634" y="651" on="0"/>
        <pt x="647" y="644" on="0"/>
        <pt x="661" y="631" on="0"/>
        <pt x="664" y="629" on="1"/>
        <pt x="864" y="446" on="1"/>
        <pt x="956" y="367" on="0"/>
        <pt x="997" y="352" on="1"/>
        <pt x="1008" y="332" on="1"/>
        <pt x="945" y="288" on="0"/>
        <pt x="866" y="266" on="1"/>
        <pt x="508" y="610" on="1"/>
      </contour>
      <contour>
        <pt x="74" y="614" on="1"/>
        <pt x="453" y="971" on="1"/>
        <pt x="473" y="977" on="0"/>
        <pt x="500" y="963" on="1"/>
        <pt x="539" y="920" on="1"/>
        <pt x="260" y="668" on="1"/>
        <pt x="241" y="647" on="0"/>
        <pt x="209" y="641" on="1"/>
        <pt x="209" y="637" on="1"/>
        <pt x="220" y="631" on="0"/>
        <pt x="237" y="618" on="0"/>
        <pt x="252" y="604" on="0"/>
        <pt x="254" y="602" on="1"/>
        <pt x="467" y="399" on="1"/>
        <pt x="551" y="321" on="0"/>
        <pt x="610" y="295" on="1"/>
        <pt x="627" y="274" on="1"/>
        <pt x="542" y="223" on="0"/>
        <pt x="469" y="203" on="1"/>
        <pt x="74" y="584" on="1"/>
      </contour>
    </TTGlyph>
    <TTGlyph name="guillemotright" xMin="74" yMin="203" xMax="1008" yMax="977">
      <contour>
        <pt x="573" y="539" on="1"/>
        <pt x="231" y="217" on="1"/>
        <pt x="212" y="213" on="0"/>
        <pt x="178" y="227" on="1"/>
        <pt x="156" y="264" on="1"/>
        <pt x="412" y="496" on="1"/>
        <pt x="430" y="514" on="0"/>
        <pt x="455" y="522" on="1"/>
        <pt x="455" y="526" on="1"/>
        <pt x="447" y="528" on="0"/>
        <pt x="435" y="536" on="0"/>
        <pt x="419" y="550" on="0"/>
        <pt x="418" y="551" on="1"/>
        <pt x="217" y="733" on="1"/>
        <pt x="127" y="812" on="0"/>
        <pt x="84" y="827" on="1"/>
        <pt x="74" y="848" on="1"/>
        <pt x="139" y="894" on="0"/>
        <pt x="215" y="913" on="1"/>
        <pt x="573" y="569" on="1"/>
      </contour>
      <contour>
        <pt x="1008" y="565" on="1"/>
        <pt x="629" y="209" on="1"/>
        <pt x="607" y="203" on="0"/>
        <pt x="582" y="217" on="1"/>
        <pt x="543" y="260" on="1"/>
        <pt x="821" y="512" on="1"/>
        <pt x="844" y="533" on="0"/>
        <pt x="872" y="539" on="1"/>
        <pt x="872" y="543" on="1"/>
        <pt x="861" y="549" on="0"/>
        <pt x="845" y="562" on="0"/>
        <pt x="829" y="576" on="0"/>
        <pt x="827" y="578" on="1"/>
        <pt x="614" y="780" on="1"/>
        <pt x="536" y="855" on="0"/>
        <pt x="471" y="885" on="1"/>
        <pt x="455" y="905" on="1"/>
        <pt x="537" y="956" on="0"/>
        <pt x="612" y="977" on="1"/>
        <pt x="1008" y="596" on="1"/>
      </contour>
    </TTGlyph>
    <TTGlyph name="guilsinglleft" xMin="74" yMin="182" xMax="627" yMax="956">
      <contour>
        <pt x="74" y="594" on="1"/>
        <pt x="453" y="950" on="1"/>
        <pt x="473" y="956" on="0"/>
        <pt x="500" y="942" on="1"/>
        <pt x="539" y="899" on="1"/>
        <pt x="260" y="647" on="1"/>
        <pt x="240" y="627" on="0"/>
        <pt x="209" y="621" on="1"/>
        <pt x="209" y="616" on="1"/>
        <pt x="218" y="611" on="0"/>
        <pt x="254" y="582" on="1"/>
        <pt x="467" y="379" on="1"/>
        <pt x="545" y="304" on="0"/>
        <pt x="610" y="274" on="1"/>
        <pt x="627" y="254" on="1"/>
        <pt x="547" y="205" on="0"/>
        <pt x="469" y="182" on="1"/>
        <pt x="74" y="563" on="1"/>
      </contour>
    </TTGlyph>
    <TTGlyph name="guilsinglright" xMin="74" yMin="181" xMax="627" yMax="956">
      <contour>
        <pt x="446" y="557" on="1"/>
        <pt x="233" y="758" on="1"/>
        <pt x="154" y="833" on="0"/>
        <pt x="90" y="862" on="1"/>
        <pt x="74" y="883" on="1"/>
        <pt x="164" y="937" on="0"/>
        <pt x="231" y="956" on="1"/>
        <pt x="627" y="575" on="1"/>
        <pt x="627" y="545" on="1"/>
        <pt x="248" y="188" on="1"/>
        <pt x="225" y="181" on="0"/>
        <pt x="201" y="197" on="1"/>
        <pt x="162" y="240" on="1"/>
        <pt x="440" y="492" on="1"/>
        <pt x="462" y="512" on="0"/>
        <pt x="492" y="518" on="1"/>
        <pt x="492" y="522" on="1"/>
        <pt x="477" y="531" on="0"/>
        <pt x="462" y="544" on="1"/>
      </contour>
    </TTGlyph>
    <TTGlyph name="h" xMin="51" yMin="-16" xMax="1219" yMax="1597">
      <contour>
        <pt x="942" y="698" on="1"/>
        <pt x="942" y="782" on="0"/>
        <pt x="910" y="889" on="0"/>
        <pt x="855" y="950" on="0"/>
        <pt x="782" y="974" on="0"/>
        <pt x="741" y="974" on="1"/>
        <pt x="691" y="974" on="0"/>
        <pt x="604" y="956" on="0"/>
        <pt x="517" y="919" on="0"/>
        <pt x="427" y="864" on="0"/>
        <pt x="375" y="827" on="1"/>
        <pt x="375" y="137" on="1"/>
        <pt x="375" y="105" on="0"/>
        <pt x="385" y="66" on="0"/>
        <pt x="417" y="40" on="0"/>
        <pt x="475" y="20" on="0"/>
        <pt x="522" y="8" on="1"/>
        <pt x="514" y="-16" on="1"/>
        <pt x="456" y="-8" on="0"/>
        <pt x="375" y="0" on="0"/>
        <pt x="293" y="0" on="0"/>
        <pt x="217" y="-16" on="1"/>
        <pt x="211" y="-6" on="1"/>
        <pt x="231" y="23" on="0"/>
        <pt x="231" y="100" on="1"/>
        <pt x="231" y="1298" on="1"/>
        <pt x="231" y="1365" on="0"/>
        <pt x="218" y="1455" on="0"/>
        <pt x="185" y="1509" on="0"/>
        <pt x="127" y="1531" on="0"/>
        <pt x="62" y="1531" on="0"/>
        <pt x="55" y="1530" on="1"/>
        <pt x="51" y="1548" on="1"/>
        <pt x="214" y="1597" on="0"/>
        <pt x="354" y="1597" on="1"/>
        <pt x="375" y="1544" on="0"/>
        <pt x="375" y="1483" on="1"/>
        <pt x="375" y="897" on="1"/>
        <pt x="444" y="944" on="0"/>
        <pt x="557" y="1005" on="0"/>
        <pt x="656" y="1041" on="0"/>
        <pt x="745" y="1055" on="0"/>
        <pt x="791" y="1055" on="1"/>
        <pt x="854" y="1055" on="0"/>
        <pt x="959" y="1022" on="0"/>
        <pt x="1035" y="947" on="0"/>
        <pt x="1081" y="825" on="0"/>
        <pt x="1085" y="735" on="1"/>
        <pt x="1085" y="113" on="1"/>
        <pt x="1085" y="89" on="0"/>
        <pt x="1108" y="57" on="0"/>
        <pt x="1145" y="35" on="0"/>
        <pt x="1193" y="20" on="0"/>
        <pt x="1219" y="12" on="1"/>
        <pt x="1210" y="-12" on="1"/>
        <pt x="1154" y="0" on="0"/>
        <pt x="1004" y="0" on="0"/>
        <pt x="928" y="-16" on="1"/>
        <pt x="922" y="-6" on="1"/>
        <pt x="942" y="23" on="0"/>
        <pt x="942" y="100" on="1"/>
      </contour>
    </TTGlyph>
    <TTGlyph name="hyphen" xMin="0" yMin="639" xMax="635" yMax="715">
      <contour>
        <pt x="471" y="639" on="1"/>
        <pt x="0" y="639" on="1"/>
        <pt x="0" y="674" on="1"/>
        <pt x="91" y="715" on="0"/>
        <pt x="164" y="715" on="1"/>
        <pt x="635" y="715" on="1"/>
        <pt x="635" y="680" on="1"/>
        <pt x="548" y="639" on="0"/>
      </contour>
    </TTGlyph>
    <TTGlyph name="i" xMin="51" yMin="-16" xMax="543" yMax="1503">
      <contour>
        <pt x="231" y="741" on="1"/>
        <pt x="231" y="883" on="0"/>
        <pt x="164" y="980" on="0"/>
        <pt x="55" y="973" on="1"/>
        <pt x="51" y="991" on="1"/>
        <pt x="216" y="1040" on="0"/>
        <pt x="354" y="1040" on="1"/>
        <pt x="375" y="988" on="0"/>
        <pt x="375" y="926" on="1"/>
        <pt x="375" y="180" on="1"/>
        <pt x="375" y="101" on="0"/>
        <pt x="449" y="25" on="0"/>
        <pt x="543" y="8" on="1"/>
        <pt x="535" y="-16" on="1"/>
        <pt x="420" y="0" on="0"/>
        <pt x="295" y="0" on="0"/>
        <pt x="217" y="-16" on="1"/>
        <pt x="211" y="-6" on="1"/>
        <pt x="231" y="23" on="0"/>
        <pt x="231" y="100" on="1"/>
      </contour>
      <contour>
        <pt x="129" y="1411" on="1"/>
        <pt x="224" y="1466" on="0"/>
        <pt x="344" y="1503" on="1"/>
        <pt x="344" y="1420" on="0"/>
        <pt x="371" y="1339" on="1"/>
        <pt x="358" y="1321" on="1"/>
        <pt x="263" y="1315" on="0"/>
        <pt x="160" y="1268" on="1"/>
        <pt x="135" y="1337" on="0"/>
      </contour>
    </TTGlyph>
    <TTGlyph name="iacute" xMin="51" yMin="-16" xMax="544" yMax="1622">
      <component glyphName="dotlessi" x="0" y="0" flags="0x204"/>
      <component glyphName="acute" x="-58" y="0" flags="0x4"/>
    </TTGlyph>
    <TTGlyph name="icircumflex" xMin="-48" yMin="-16" xMax="562" yMax="1649">
      <component glyphName="dotlessi" x="0" y="0" flags="0x204"/>
      <component glyphName="circumflex" x="-206" y="0" flags="0x4"/>
    </TTGlyph>
    <TTGlyph name="idieresis" xMin="-42" yMin="-16" xMax="558" yMax="1518">
      <component glyphName="dotlessi" x="0" y="0" flags="0x204"/>
      <component glyphName="dieresis" x="-114" y="0" flags="0x4"/>
    </TTGlyph>
    <TTGlyph name="igrave" xMin="10" yMin="-16" xMax="543" yMax="1622">
      <component glyphName="dotlessi" x="0" y="0" flags="0x204"/>
      <component glyphName="grave" x="41" y="0" flags="0x4"/>
    </TTGlyph>
    <TTGlyph name="j" xMin="-164" yMin="-529" xMax="358" yMax="1503">
      <contour>
        <pt x="182" y="-516" on="1"/>
        <pt x="173" y="-521" on="0"/>
        <pt x="114" y="-529" on="0"/>
        <pt x="22" y="-529" on="0"/>
        <pt x="-104" y="-497" on="0"/>
        <pt x="-164" y="-465" on="1"/>
        <pt x="-126" y="-397" on="0"/>
        <pt x="-39" y="-336" on="1"/>
        <pt x="-25" y="-346" on="1"/>
        <pt x="58" y="-479" on="0"/>
        <pt x="166" y="-451" on="1"/>
        <pt x="194" y="-401" on="0"/>
        <pt x="215" y="-183" on="0"/>
        <pt x="215" y="90" on="1"/>
        <pt x="215" y="741" on="1"/>
        <pt x="215" y="882" on="0"/>
        <pt x="147" y="980" on="0"/>
        <pt x="39" y="973" on="1"/>
        <pt x="35" y="991" on="1"/>
        <pt x="200" y="1040" on="0"/>
        <pt x="338" y="1040" on="1"/>
        <pt x="358" y="987" on="0"/>
        <pt x="358" y="926" on="1"/>
        <pt x="358" y="-100" on="1"/>
        <pt x="358" y="-193" on="0"/>
        <pt x="312" y="-356" on="0"/>
        <pt x="246" y="-454" on="0"/>
        <pt x="197" y="-507" on="0"/>
      </contour>
      <contour>
        <pt x="113" y="1411" on="1"/>
        <pt x="205" y="1465" on="0"/>
        <pt x="328" y="1503" on="1"/>
        <pt x="328" y="1423" on="0"/>
        <pt x="354" y="1339" on="1"/>
        <pt x="342" y="1321" on="1"/>
        <pt x="248" y="1315" on="0"/>
        <pt x="143" y="1268" on="1"/>
        <pt x="119" y="1339" on="0"/>
      </contour>
    </TTGlyph>
    <TTGlyph name="k" xMin="51" yMin="-16" xMax="1114" yMax="1597">
      <contour>
        <pt x="231" y="1298" on="1"/>
        <pt x="231" y="1440" on="0"/>
        <pt x="164" y="1537" on="0"/>
        <pt x="55" y="1530" on="1"/>
        <pt x="51" y="1548" on="1"/>
        <pt x="216" y="1597" on="0"/>
        <pt x="354" y="1597" on="1"/>
        <pt x="375" y="1545" on="0"/>
        <pt x="375" y="1483" on="1"/>
        <pt x="375" y="180" on="1"/>
        <pt x="375" y="101" on="0"/>
        <pt x="449" y="25" on="0"/>
        <pt x="543" y="8" on="1"/>
        <pt x="535" y="-16" on="1"/>
        <pt x="420" y="0" on="0"/>
        <pt x="350" y="0" on="1"/>
        <pt x="295" y="0" on="0"/>
        <pt x="217" y="-16" on="1"/>
        <pt x="211" y="-6" on="1"/>
        <pt x="231" y="23" on="0"/>
        <pt x="231" y="100" on="1"/>
      </contour>
      <contour>
        <pt x="825" y="47" on="1"/>
        <pt x="455" y="534" on="1"/>
        <pt x="455" y="557" on="1"/>
        <pt x="825" y="930" on="1"/>
        <pt x="853" y="961" on="0"/>
        <pt x="804" y="977" on="1"/>
        <pt x="760" y="992" on="0"/>
        <pt x="678" y="985" on="1"/>
        <pt x="672" y="1010" on="1"/>
        <pt x="800" y="1036" on="0"/>
        <pt x="969" y="1040" on="1"/>
        <pt x="985" y="1010" on="1"/>
        <pt x="569" y="594" on="1"/>
        <pt x="957" y="107" on="0"/>
        <pt x="1047" y="42" on="0"/>
        <pt x="1114" y="27" on="1"/>
        <pt x="1112" y="-4" on="1"/>
        <pt x="948" y="8" on="0"/>
        <pt x="864" y="-16" on="1"/>
        <pt x="850" y="-8" on="1"/>
        <pt x="852" y="14" on="0"/>
      </contour>
    </TTGlyph>
    <TTGlyph name="l" xMin="51" yMin="-16" xMax="543" yMax="1597">
      <contour>
        <pt x="375" y="180" on="1"/>
        <pt x="375" y="101" on="0"/>
        <pt x="449" y="25" on="0"/>
        <pt x="543" y="8" on="1"/>
        <pt x="535" y="-16" on="1"/>
        <pt x="420" y="0" on="0"/>
        <pt x="295" y="0" on="0"/>
        <pt x="217" y="-16" on="1"/>
        <pt x="211" y="-6" on="1"/>
        <pt x="231" y="23" on="0"/>
        <pt x="231" y="100" on="1"/>
        <pt x="231" y="1298" on="1"/>
        <pt x="231" y="1440" on="0"/>
        <pt x="164" y="1537" on="0"/>
        <pt x="55" y="1530" on="1"/>
        <pt x="51" y="1548" on="1"/>
        <pt x="216" y="1597" on="0"/>
        <pt x="354" y="1597" on="1"/>
        <pt x="375" y="1545" on="0"/>
        <pt x="375" y="1483" on="1"/>
      </contour>
    </TTGlyph>
    <TTGlyph name="less" xMin="72" yMin="233" xMax="918" yMax="1239">
      <contour>
        <pt x="72" y="784" on="1"/>
        <pt x="858" y="1239" on="1"/>
        <pt x="895" y="1229" on="1"/>
        <pt x="918" y="1186" on="1"/>
        <pt x="199" y="760" on="1"/>
        <pt x="199" y="745" on="1"/>
        <pt x="918" y="297" on="1"/>
        <pt x="907" y="262" on="1"/>
        <pt x="858" y="233" on="1"/>
        <pt x="72" y="711" on="1"/>
      </contour>
    </TTGlyph>
    <TTGlyph name="logicalnot" xMin="113" yMin="406" xMax="1106" yMax="776">
      <contour>
        <pt x="1106" y="406" on="1"/>
        <pt x="1071" y="406" on="1"/>
        <pt x="1030" y="497" on="0"/>
        <pt x="1030" y="569" on="1"/>
        <pt x="1030" y="700" on="1"/>
        <pt x="113" y="700" on="1"/>
        <pt x="113" y="735" on="1"/>
        <pt x="200" y="776" on="0"/>
        <pt x="276" y="776" on="1"/>
        <pt x="1106" y="776" on="1"/>
      </contour>
    </TTGlyph>
    <TTGlyph name="m" xMin="51" yMin="-16" xMax="1833" yMax="1042">
      <contour>
        <pt x="1556" y="227" on="1"/>
        <pt x="1556" y="686" on="1"/>
        <pt x="1556" y="773" on="0"/>
        <pt x="1519" y="881" on="0"/>
        <pt x="1460" y="941" on="0"/>
        <pt x="1387" y="962" on="0"/>
        <pt x="1351" y="962" on="1"/>
        <pt x="1281" y="962" on="0"/>
        <pt x="1132" y="906" on="0"/>
        <pt x="1049" y="846" on="1"/>
        <pt x="1065" y="792" on="0"/>
        <pt x="1065" y="723" on="1"/>
        <pt x="1065" y="113" on="1"/>
        <pt x="1065" y="88" on="0"/>
        <pt x="1088" y="56" on="0"/>
        <pt x="1125" y="34" on="0"/>
        <pt x="1173" y="19" on="0"/>
        <pt x="1198" y="12" on="1"/>
        <pt x="1190" y="-12" on="1"/>
        <pt x="1131" y="0" on="0"/>
        <pt x="1040" y="0" on="1"/>
        <pt x="983" y="0" on="0"/>
        <pt x="907" y="-16" on="1"/>
        <pt x="901" y="-6" on="1"/>
        <pt x="922" y="22" on="0"/>
        <pt x="922" y="100" on="1"/>
        <pt x="922" y="686" on="1"/>
        <pt x="922" y="772" on="0"/>
        <pt x="882" y="880" on="0"/>
        <pt x="818" y="941" on="0"/>
        <pt x="738" y="963" on="0"/>
        <pt x="699" y="963" on="1"/>
        <pt x="654" y="963" on="0"/>
        <pt x="576" y="944" on="0"/>
        <pt x="501" y="908" on="0"/>
        <pt x="421" y="853" on="0"/>
        <pt x="375" y="817" on="1"/>
        <pt x="375" y="137" on="1"/>
        <pt x="375" y="105" on="0"/>
        <pt x="385" y="66" on="0"/>
        <pt x="417" y="40" on="0"/>
        <pt x="475" y="20" on="0"/>
        <pt x="522" y="8" on="1"/>
        <pt x="514" y="-16" on="1"/>
        <pt x="456" y="-8" on="0"/>
        <pt x="375" y="0" on="0"/>
        <pt x="350" y="0" on="1"/>
        <pt x="293" y="0" on="0"/>
        <pt x="217" y="-16" on="1"/>
        <pt x="211" y="-6" on="1"/>
        <pt x="231" y="23" on="0"/>
        <pt x="231" y="100" on="1"/>
        <pt x="231" y="741" on="1"/>
        <pt x="231" y="808" on="0"/>
        <pt x="218" y="898" on="0"/>
        <pt x="185" y="952" on="0"/>
        <pt x="127" y="974" on="0"/>
        <pt x="82" y="974" on="1"/>
        <pt x="76" y="974" on="0"/>
        <pt x="62" y="974" on="0"/>
        <pt x="55" y="973" on="1"/>
        <pt x="51" y="991" on="1"/>
        <pt x="214" y="1040" on="0"/>
        <pt x="354" y="1040" on="1"/>
        <pt x="375" y="987" on="0"/>
        <pt x="375" y="926" on="1"/>
        <pt x="375" y="885" on="1"/>
        <pt x="429" y="926" on="0"/>
        <pt x="518" y="985" on="0"/>
        <pt x="603" y="1023" on="0"/>
        <pt x="691" y="1041" on="0"/>
        <pt x="745" y="1041" on="1"/>
        <pt x="784" y="1041" on="0"/>
        <pt x="865" y="1028" on="0"/>
        <pt x="940" y="995" on="0"/>
        <pt x="1004" y="941" on="0"/>
        <pt x="1026" y="899" on="1"/>
        <pt x="1075" y="935" on="0"/>
        <pt x="1165" y="989" on="0"/>
        <pt x="1253" y="1025" on="0"/>
        <pt x="1343" y="1042" on="0"/>
        <pt x="1393" y="1042" on="1"/>
        <pt x="1448" y="1042" on="0"/>
        <pt x="1557" y="1013" on="0"/>
        <pt x="1645" y="941" on="0"/>
        <pt x="1700" y="818" on="0"/>
        <pt x="1700" y="723" on="1"/>
        <pt x="1700" y="113" on="1"/>
        <pt x="1700" y="88" on="0"/>
        <pt x="1723" y="56" on="0"/>
        <pt x="1760" y="34" on="0"/>
        <pt x="1808" y="19" on="0"/>
        <pt x="1833" y="12" on="1"/>
        <pt x="1825" y="-12" on="1"/>
        <pt x="1766" y="0" on="0"/>
        <pt x="1675" y="0" on="1"/>
        <pt x="1618" y="0" on="0"/>
        <pt x="1542" y="-16" on="1"/>
        <pt x="1536" y="-6" on="1"/>
        <pt x="1556" y="23" on="0"/>
        <pt x="1556" y="100" on="1"/>
      </contour>
    </TTGlyph>
    <TTGlyph name="macron" xMin="72" yMin="1351" xMax="707" yMax="1427">
      <contour>
        <pt x="543" y="1351" on="1"/>
        <pt x="72" y="1351" on="1"/>
        <pt x="72" y="1386" on="1"/>
        <pt x="163" y="1427" on="0"/>
        <pt x="236" y="1427" on="1"/>
        <pt x="707" y="1427" on="1"/>
        <pt x="707" y="1392" on="1"/>
        <pt x="620" y="1351" on="0"/>
      </contour>
    </TTGlyph>
    <TTGlyph name="minus" xMin="113" yMin="700" xMax="1106" yMax="776">
      <contour>
        <pt x="1106" y="776" on="1"/>
        <pt x="1106" y="741" on="1"/>
        <pt x="1015" y="700" on="0"/>
        <pt x="942" y="700" on="1"/>
        <pt x="113" y="700" on="1"/>
        <pt x="113" y="735" on="1"/>
        <pt x="200" y="776" on="0"/>
        <pt x="276" y="776" on="1"/>
      </contour>
    </TTGlyph>
    <TTGlyph name="mu" xMin="92" yMin="-539" xMax="1147" yMax="1026">
      <contour>
        <pt x="360" y="-399" on="1"/>
        <pt x="367" y="-422" on="1"/>
        <pt x="306" y="-445" on="0"/>
        <pt x="227" y="-506" on="0"/>
        <pt x="193" y="-539" on="1"/>
        <pt x="170" y="-526" on="1"/>
        <pt x="113" y="-347" on="0"/>
        <pt x="113" y="-6" on="1"/>
        <pt x="113" y="909" on="1"/>
        <pt x="113" y="986" on="0"/>
        <pt x="92" y="1016" on="1"/>
        <pt x="98" y="1026" on="1"/>
        <pt x="153" y="1012" on="0"/>
        <pt x="193" y="1012" on="1"/>
        <pt x="224" y="1012" on="0"/>
        <pt x="270" y="1026" on="1"/>
        <pt x="276" y="1016" on="1"/>
        <pt x="256" y="986" on="0"/>
        <pt x="256" y="909" on="1"/>
        <pt x="256" y="315" on="1"/>
        <pt x="256" y="232" on="0"/>
        <pt x="293" y="119" on="0"/>
        <pt x="363" y="62" on="0"/>
        <pt x="441" y="39" on="0"/>
        <pt x="492" y="39" on="1"/>
        <pt x="582" y="39" on="0"/>
        <pt x="725" y="120" on="0"/>
        <pt x="823" y="211" on="1"/>
        <pt x="823" y="909" on="1"/>
        <pt x="823" y="986" on="0"/>
        <pt x="803" y="1016" on="1"/>
        <pt x="809" y="1026" on="1"/>
        <pt x="864" y="1012" on="0"/>
        <pt x="903" y="1012" on="1"/>
        <pt x="934" y="1012" on="0"/>
        <pt x="981" y="1026" on="1"/>
        <pt x="987" y="1016" on="1"/>
        <pt x="967" y="986" on="0"/>
        <pt x="967" y="909" on="1"/>
        <pt x="967" y="279" on="1"/>
        <pt x="967" y="146" on="0"/>
        <pt x="1023" y="45" on="0"/>
        <pt x="1112" y="45" on="1"/>
        <pt x="1117" y="45" on="0"/>
        <pt x="1138" y="47" on="0"/>
        <pt x="1143" y="47" on="1"/>
        <pt x="1147" y="29" on="1"/>
        <pt x="982" y="-20" on="0"/>
        <pt x="844" y="-20" on="1"/>
        <pt x="823" y="32" on="0"/>
        <pt x="823" y="94" on="1"/>
        <pt x="823" y="141" on="1"/>
        <pt x="717" y="46" on="0"/>
        <pt x="551" y="-41" on="0"/>
        <pt x="444" y="-41" on="1"/>
        <pt x="279" y="-41" on="0"/>
        <pt x="193" y="45" on="1"/>
        <pt x="200" y="-76" on="0"/>
        <pt x="223" y="-240" on="0"/>
        <pt x="249" y="-334" on="0"/>
        <pt x="291" y="-384" on="0"/>
        <pt x="329" y="-398" on="0"/>
      </contour>
    </TTGlyph>
    <TTGlyph name="multiply" xMin="231" yMin="360" xMax="987" yMax="1116">
      <contour>
        <pt x="399" y="999" on="1"/>
        <pt x="608" y="791" on="1"/>
        <pt x="934" y="1116" on="1"/>
        <pt x="958" y="1092" on="1"/>
        <pt x="926" y="998" on="0"/>
        <pt x="872" y="948" on="1"/>
        <pt x="662" y="737" on="1"/>
        <pt x="987" y="414" on="1"/>
        <pt x="963" y="389" on="1"/>
        <pt x="868" y="424" on="0"/>
        <pt x="817" y="475" on="1"/>
        <pt x="608" y="684" on="1"/>
        <pt x="287" y="360" on="1"/>
        <pt x="262" y="385" on="1"/>
        <pt x="297" y="479" on="0"/>
        <pt x="348" y="530" on="1"/>
        <pt x="555" y="737" on="1"/>
        <pt x="231" y="1061" on="1"/>
        <pt x="256" y="1085" on="1"/>
        <pt x="349" y="1052" on="0"/>
      </contour>
    </TTGlyph>
    <TTGlyph name="n" xMin="51" yMin="-16" xMax="1219" yMax="1054">
      <contour>
        <pt x="231" y="741" on="1"/>
        <pt x="231" y="808" on="0"/>
        <pt x="218" y="898" on="0"/>
        <pt x="185" y="952" on="0"/>
        <pt x="127" y="974" on="0"/>
        <pt x="62" y="974" on="0"/>
        <pt x="55" y="973" on="1"/>
        <pt x="51" y="991" on="1"/>
        <pt x="214" y="1040" on="0"/>
        <pt x="354" y="1040" on="1"/>
        <pt x="375" y="987" on="0"/>
        <pt x="375" y="926" on="1"/>
        <pt x="375" y="897" on="1"/>
        <pt x="433" y="936" on="0"/>
        <pt x="531" y="994" on="0"/>
        <pt x="626" y="1034" on="0"/>
        <pt x="726" y="1054" on="0"/>
        <pt x="786" y="1054" on="1"/>
        <pt x="840" y="1054" on="0"/>
        <pt x="947" y="1026" on="0"/>
        <pt x="1032" y="954" on="0"/>
        <pt x="1085" y="830" on="0"/>
        <pt x="1085" y="735" on="1"/>
        <pt x="1085" y="113" on="1"/>
        <pt x="1085" y="89" on="0"/>
        <pt x="1108" y="57" on="0"/>
        <pt x="1145" y="35" on="0"/>
        <pt x="1193" y="20" on="0"/>
        <pt x="1219" y="12" on="1"/>
        <pt x="1210" y="-12" on="1"/>
        <pt x="1154" y="0" on="0"/>
        <pt x="1061" y="0" on="1"/>
        <pt x="1004" y="0" on="0"/>
        <pt x="928" y="-16" on="1"/>
        <pt x="922" y="-6" on="1"/>
        <pt x="942" y="23" on="0"/>
        <pt x="942" y="100" on="1"/>
        <pt x="942" y="698" on="1"/>
        <pt x="942" y="782" on="0"/>
        <pt x="910" y="889" on="0"/>
        <pt x="855" y="950" on="0"/>
        <pt x="782" y="974" on="0"/>
        <pt x="741" y="974" on="1"/>
        <pt x="691" y="974" on="0"/>
        <pt x="604" y="956" on="0"/>
        <pt x="517" y="919" on="0"/>
        <pt x="427" y="864" on="0"/>
        <pt x="375" y="827" on="1"/>
        <pt x="375" y="137" on="1"/>
        <pt x="375" y="105" on="0"/>
        <pt x="385" y="66" on="0"/>
        <pt x="417" y="40" on="0"/>
        <pt x="475" y="20" on="0"/>
        <pt x="522" y="8" on="1"/>
        <pt x="514" y="-16" on="1"/>
        <pt x="456" y="-8" on="0"/>
        <pt x="375" y="0" on="0"/>
        <pt x="350" y="0" on="1"/>
        <pt x="293" y="0" on="0"/>
        <pt x="217" y="-16" on="1"/>
        <pt x="211" y="-6" on="1"/>
        <pt x="231" y="23" on="0"/>
        <pt x="231" y="100" on="1"/>
      </contour>
    </TTGlyph>
    <TTGlyph name="nine" xMin="92" yMin="-18" xMax="944" yMax="1477">
      <contour>
        <pt x="264" y="31" on="1"/>
        <pt x="503" y="72" on="0"/>
        <pt x="775" y="450" on="0"/>
        <pt x="784" y="786" on="1"/>
        <pt x="739" y="730" on="0"/>
        <pt x="549" y="643" on="0"/>
        <pt x="457" y="643" on="1"/>
        <pt x="384" y="643" on="0"/>
        <pt x="261" y="681" on="0"/>
        <pt x="154" y="763" on="0"/>
        <pt x="92" y="917" on="0"/>
        <pt x="92" y="1022" on="1"/>
        <pt x="92" y="1147" on="0"/>
        <pt x="193" y="1353" on="0"/>
        <pt x="384" y="1477" on="0"/>
        <pt x="508" y="1477" on="1"/>
        <pt x="717" y="1477" on="0"/>
        <pt x="944" y="1163" on="0"/>
        <pt x="944" y="901" on="1"/>
        <pt x="944" y="743" on="0"/>
        <pt x="875" y="461" on="0"/>
        <pt x="750" y="245" on="0"/>
        <pt x="582" y="83" on="0"/>
        <pt x="380" y="-9" on="0"/>
        <pt x="270" y="-18" on="1"/>
      </contour>
      <contour>
        <pt x="514" y="725" on="1"/>
        <pt x="593" y="725" on="0"/>
        <pt x="764" y="826" on="0"/>
        <pt x="784" y="870" on="1"/>
        <pt x="782" y="931" on="0"/>
        <pt x="770" y="1045" on="0"/>
        <pt x="746" y="1175" on="0"/>
        <pt x="701" y="1280" on="0"/>
        <pt x="639" y="1368" on="0"/>
        <pt x="546" y="1417" on="0"/>
        <pt x="489" y="1417" on="1"/>
        <pt x="424" y="1417" on="0"/>
        <pt x="328" y="1356" on="0"/>
        <pt x="275" y="1252" on="0"/>
        <pt x="250" y="1131" on="0"/>
        <pt x="250" y="1063" on="1"/>
        <pt x="250" y="900" on="0"/>
        <pt x="381" y="725" on="0"/>
      </contour>
    </TTGlyph>
    <TTGlyph name="ntilde" xMin="51" yMin="-16" xMax="1219" yMax="1513">
      <component glyphName="n" x="0" y="0" flags="0x204"/>
      <component glyphName="tilde" x="276" y="0" flags="0x4"/>
    </TTGlyph>
    <TTGlyph name="numbersign" xMin="123" yMin="0" xMax="1200" yMax="1470">
      <contour>
        <pt x="1026" y="1460" on="1"/>
        <pt x="928" y="932" on="1"/>
        <pt x="1180" y="932" on="1"/>
        <pt x="1200" y="918" on="1"/>
        <pt x="1180" y="850" on="1"/>
        <pt x="913" y="850" on="1"/>
        <pt x="856" y="537" on="1"/>
        <pt x="1126" y="537" on="1"/>
        <pt x="1147" y="522" on="1"/>
        <pt x="1126" y="455" on="1"/>
        <pt x="840" y="455" on="1"/>
        <pt x="760" y="16" on="1"/>
        <pt x="743" y="0" on="1"/>
        <pt x="668" y="0" on="1"/>
        <pt x="752" y="455" on="1"/>
        <pt x="438" y="455" on="1"/>
        <pt x="358" y="16" on="1"/>
        <pt x="342" y="0" on="1"/>
        <pt x="266" y="0" on="1"/>
        <pt x="350" y="455" on="1"/>
        <pt x="143" y="455" on="1"/>
        <pt x="123" y="469" on="1"/>
        <pt x="143" y="537" on="1"/>
        <pt x="365" y="537" on="1"/>
        <pt x="422" y="850" on="1"/>
        <pt x="197" y="850" on="1"/>
        <pt x="176" y="864" on="1"/>
        <pt x="197" y="932" on="1"/>
        <pt x="438" y="932" on="1"/>
        <pt x="535" y="1454" on="1"/>
        <pt x="553" y="1470" on="1"/>
        <pt x="625" y="1460" on="1"/>
        <pt x="526" y="932" on="1"/>
        <pt x="840" y="932" on="1"/>
        <pt x="936" y="1454" on="1"/>
        <pt x="954" y="1470" on="1"/>
      </contour>
      <contour>
        <pt x="512" y="850" on="1"/>
        <pt x="455" y="537" on="1"/>
        <pt x="766" y="537" on="1"/>
        <pt x="823" y="850" on="1"/>
      </contour>
    </TTGlyph>
    <TTGlyph name="o" xMin="102" yMin="-41" xMax="1092" yMax="1040">
      <contour>
        <pt x="600" y="1040" on="1"/>
        <pt x="830" y="1040" on="0"/>
        <pt x="1092" y="758" on="0"/>
        <pt x="1092" y="506" on="1"/>
        <pt x="1092" y="360" on="0"/>
        <pt x="958" y="108" on="0"/>
        <pt x="728" y="-41" on="0"/>
        <pt x="594" y="-41" on="1"/>
        <pt x="363" y="-41" on="0"/>
        <pt x="102" y="238" on="0"/>
        <pt x="102" y="494" on="1"/>
        <pt x="102" y="646" on="0"/>
        <pt x="236" y="897" on="0"/>
        <pt x="465" y="1040" on="0"/>
      </contour>
      <contour>
        <pt x="580" y="971" on="1"/>
        <pt x="501" y="971" on="0"/>
        <pt x="385" y="925" on="0"/>
        <pt x="315" y="847" on="0"/>
        <pt x="273" y="727" on="0"/>
        <pt x="258" y="601" on="0"/>
        <pt x="258" y="518" on="1"/>
        <pt x="258" y="386" on="0"/>
        <pt x="321" y="189" on="0"/>
        <pt x="427" y="80" on="0"/>
        <pt x="547" y="29" on="0"/>
        <pt x="614" y="29" on="1"/>
        <pt x="692" y="29" on="0"/>
        <pt x="809" y="78" on="0"/>
        <pt x="879" y="157" on="0"/>
        <pt x="921" y="278" on="0"/>
        <pt x="936" y="402" on="0"/>
        <pt x="936" y="481" on="1"/>
        <pt x="936" y="592" on="0"/>
        <pt x="894" y="766" on="0"/>
        <pt x="825" y="874" on="0"/>
        <pt x="730" y="944" on="0"/>
        <pt x="634" y="971" on="0"/>
      </contour>
    </TTGlyph>
    <TTGlyph name="oacute" xMin="102" yMin="-41" xMax="1092" yMax="1622">
      <component glyphName="o" x="0" y="0" flags="0x204"/>
      <component glyphName="acute" x="250" y="0" flags="0x4"/>
    </TTGlyph>
    <TTGlyph name="ocircumflex" xMin="102" yMin="-41" xMax="1092" yMax="1649">
      <component glyphName="o" x="0" y="0" flags="0x204"/>
      <component glyphName="circumflex" x="139" y="0" flags="0x4"/>
    </TTGlyph>
    <TTGlyph name="odieresis" xMin="102" yMin="-41" xMax="1092" yMax="1518">
      <component glyphName="o" x="0" y="0" flags="0x204"/>
      <component glyphName="dieresis" x="231" y="0" flags="0x4"/>
    </TTGlyph>
    <TTGlyph name="oe" xMin="102" yMin="-41" xMax="1724" yMax="1040">
      <contour>
        <pt x="600" y="1040" on="1"/>
        <pt x="733" y="1040" on="0"/>
        <pt x="929" y="925" on="0"/>
        <pt x="985" y="815" on="1"/>
        <pt x="1051" y="919" on="0"/>
        <pt x="1251" y="1040" on="0"/>
        <pt x="1374" y="1040" on="1"/>
        <pt x="1447" y="1040" on="0"/>
        <pt x="1569" y="992" on="0"/>
        <pt x="1668" y="893" on="0"/>
        <pt x="1724" y="726" on="0"/>
        <pt x="1724" y="616" on="1"/>
        <pt x="1686" y="580" on="1"/>
        <pt x="1053" y="580" on="1"/>
        <pt x="1043" y="427" on="0"/>
        <pt x="1116" y="174" on="0"/>
        <pt x="1261" y="31" on="0"/>
        <pt x="1352" y="31" on="1"/>
        <pt x="1436" y="31" on="0"/>
        <pt x="1609" y="85" on="0"/>
        <pt x="1675" y="147" on="1"/>
        <pt x="1716" y="104" on="1"/>
        <pt x="1637" y="26" on="0"/>
        <pt x="1451" y="-41" on="0"/>
        <pt x="1329" y="-41" on="1"/>
        <pt x="1213" y="-41" on="0"/>
        <pt x="1019" y="77" on="0"/>
        <pt x="963" y="184" on="1"/>
        <pt x="898" y="80" on="0"/>
        <pt x="705" y="-41" on="0"/>
        <pt x="594" y="-41" on="1"/>
        <pt x="363" y="-41" on="0"/>
        <pt x="102" y="238" on="0"/>
        <pt x="102" y="494" on="1"/>
        <pt x="102" y="646" on="0"/>
        <pt x="236" y="897" on="0"/>
        <pt x="465" y="1040" on="0"/>
      </contour>
      <contour>
        <pt x="895" y="508" on="1"/>
        <pt x="893" y="613" on="0"/>
        <pt x="853" y="777" on="0"/>
        <pt x="792" y="879" on="0"/>
        <pt x="709" y="945" on="0"/>
        <pt x="626" y="971" on="0"/>
        <pt x="580" y="971" on="1"/>
        <pt x="501" y="971" on="0"/>
        <pt x="385" y="925" on="0"/>
        <pt x="315" y="847" on="0"/>
        <pt x="273" y="727" on="0"/>
        <pt x="258" y="601" on="0"/>
        <pt x="258" y="518" on="1"/>
        <pt x="258" y="386" on="0"/>
        <pt x="321" y="189" on="0"/>
        <pt x="427" y="80" on="0"/>
        <pt x="547" y="29" on="0"/>
        <pt x="614" y="29" on="1"/>
        <pt x="683" y="29" on="0"/>
        <pt x="785" y="78" on="0"/>
        <pt x="845" y="157" on="0"/>
        <pt x="882" y="278" on="0"/>
        <pt x="895" y="402" on="0"/>
      </contour>
      <contour>
        <pt x="1352" y="971" on="1"/>
        <pt x="1207" y="971" on="0"/>
        <pt x="1072" y="810" on="0"/>
        <pt x="1059" y="659" on="1"/>
        <pt x="1595" y="659" on="1"/>
        <pt x="1587" y="823" on="0"/>
        <pt x="1456" y="971" on="0"/>
      </contour>
    </TTGlyph>
    <TTGlyph name="ograve" xMin="102" yMin="-41" xMax="1092" yMax="1622">
      <component glyphName="o" x="0" y="0" flags="0x204"/>
      <component glyphName="grave" x="328" y="0" flags="0x4"/>
    </TTGlyph>
    <TTGlyph name="one" xMin="133" yMin="-16" xMax="676" yMax="1464">
      <contour>
        <pt x="438" y="0" on="1"/>
        <pt x="373" y="0" on="0"/>
        <pt x="252" y="-8" on="0"/>
        <pt x="195" y="-16" on="1"/>
        <pt x="186" y="8" on="1"/>
        <pt x="233" y="16" on="0"/>
        <pt x="297" y="42" on="0"/>
        <pt x="337" y="82" on="0"/>
        <pt x="354" y="140" on="0"/>
        <pt x="354" y="180" on="1"/>
        <pt x="354" y="1124" on="1"/>
        <pt x="354" y="1205" on="0"/>
        <pt x="342" y="1304" on="0"/>
        <pt x="311" y="1359" on="0"/>
        <pt x="260" y="1378" on="0"/>
        <pt x="221" y="1378" on="1"/>
        <pt x="201" y="1378" on="0"/>
        <pt x="160" y="1374" on="0"/>
        <pt x="139" y="1370" on="1"/>
        <pt x="133" y="1411" on="1"/>
        <pt x="165" y="1418" on="0"/>
        <pt x="245" y="1432" on="0"/>
        <pt x="327" y="1444" on="0"/>
        <pt x="404" y="1453" on="0"/>
        <pt x="464" y="1460" on="0"/>
        <pt x="499" y="1464" on="0"/>
        <pt x="498" y="1464" on="1"/>
        <pt x="508" y="1425" on="0"/>
        <pt x="508" y="1307" on="1"/>
        <pt x="508" y="180" on="1"/>
        <pt x="508" y="140" on="0"/>
        <pt x="525" y="82" on="0"/>
        <pt x="565" y="42" on="0"/>
        <pt x="629" y="16" on="0"/>
        <pt x="676" y="8" on="1"/>
        <pt x="668" y="-16" on="1"/>
        <pt x="610" y="-8" on="0"/>
        <pt x="496" y="0" on="0"/>
      </contour>
    </TTGlyph>
    <TTGlyph name="onehalf" xMin="133" yMin="-31" xMax="1805" yMax="1522">
      <component glyphName="fraction" x="549" y="0" flags="0x4"/>
      <component glyphName="onesuperior" x="41" y="0" flags="0x4"/>
      <component glyphName="twosuperior" x="1094" y="-574" flags="0x4"/>
    </TTGlyph>
    <TTGlyph name="onequarter" xMin="133" yMin="-31" xMax="1691" yMax="1522">
      <component glyphName="fraction" x="549" y="0" flags="0x4"/>
      <component glyphName="onesuperior" x="41" y="0" flags="0x4"/>
      <component glyphName="uni2074" x="938" y="-579" flags="0x4"/>
    </TTGlyph>
    <TTGlyph name="onesuperior" xMin="92" yMin="559" xMax="625" yMax="1485">
      <contour>
        <pt x="387" y="575" on="1"/>
        <pt x="268" y="575" on="0"/>
        <pt x="154" y="559" on="1"/>
        <pt x="145" y="584" on="1"/>
        <pt x="239" y="601" on="0"/>
        <pt x="313" y="676" on="0"/>
        <pt x="313" y="756" on="1"/>
        <pt x="313" y="1145" on="1"/>
        <pt x="313" y="1200" on="0"/>
        <pt x="311" y="1257" on="0"/>
        <pt x="303" y="1326" on="0"/>
        <pt x="287" y="1358" on="0"/>
        <pt x="257" y="1389" on="0"/>
        <pt x="212" y="1399" on="0"/>
        <pt x="180" y="1399" on="1"/>
        <pt x="147" y="1399" on="0"/>
        <pt x="98" y="1391" on="1"/>
        <pt x="92" y="1432" on="1"/>
        <pt x="152" y="1445" on="0"/>
        <pt x="326" y="1471" on="0"/>
        <pt x="441" y="1485" on="0"/>
        <pt x="446" y="1485" on="1"/>
        <pt x="457" y="1445" on="0"/>
        <pt x="457" y="1327" on="1"/>
        <pt x="457" y="756" on="1"/>
        <pt x="457" y="676" on="0"/>
        <pt x="531" y="601" on="0"/>
        <pt x="625" y="584" on="1"/>
        <pt x="616" y="559" on="1"/>
        <pt x="502" y="575" on="0"/>
      </contour>
    </TTGlyph>
    <TTGlyph name="ordfeminine" xMin="113" yMin="866" xMax="653" yMax="1473">
      <contour>
        <pt x="578" y="956" on="1"/>
        <pt x="578" y="933" on="0"/>
        <pt x="616" y="908" on="0"/>
        <pt x="653" y="897" on="1"/>
        <pt x="647" y="883" on="1"/>
        <pt x="608" y="891" on="0"/>
        <pt x="573" y="891" on="1"/>
        <pt x="515" y="891" on="0"/>
        <pt x="469" y="881" on="1"/>
        <pt x="467" y="885" on="1"/>
        <pt x="477" y="901" on="0"/>
        <pt x="477" y="948" on="1"/>
        <pt x="477" y="975" on="1"/>
        <pt x="469" y="979" on="1"/>
        <pt x="439" y="929" on="0"/>
        <pt x="323" y="866" on="0"/>
        <pt x="264" y="866" on="1"/>
        <pt x="197" y="866" on="0"/>
        <pt x="113" y="936" on="0"/>
        <pt x="113" y="1004" on="1"/>
        <pt x="113" y="1058" on="0"/>
        <pt x="166" y="1140" on="0"/>
        <pt x="270" y="1195" on="0"/>
        <pt x="393" y="1230" on="0"/>
        <pt x="477" y="1243" on="1"/>
        <pt x="477" y="1333" on="0"/>
        <pt x="415" y="1399" on="0"/>
        <pt x="360" y="1399" on="1"/>
        <pt x="309" y="1399" on="0"/>
        <pt x="193" y="1356" on="0"/>
        <pt x="156" y="1327" on="1"/>
        <pt x="131" y="1382" on="1"/>
        <pt x="183" y="1422" on="0"/>
        <pt x="319" y="1473" on="0"/>
        <pt x="379" y="1473" on="1"/>
        <pt x="415" y="1473" on="0"/>
        <pt x="479" y="1456" on="0"/>
        <pt x="541" y="1417" on="0"/>
        <pt x="578" y="1341" on="0"/>
        <pt x="578" y="1288" on="1"/>
      </contour>
      <contour>
        <pt x="295" y="932" on="1"/>
        <pt x="342" y="932" on="0"/>
        <pt x="450" y="1004" on="0"/>
        <pt x="477" y="1049" on="1"/>
        <pt x="477" y="1192" on="1"/>
        <pt x="339" y="1167" on="0"/>
        <pt x="217" y="1090" on="0"/>
        <pt x="217" y="1024" on="1"/>
        <pt x="217" y="932" on="0"/>
      </contour>
    </TTGlyph>
    <TTGlyph name="ordmasculine" xMin="113" yMin="866" xMax="668" yMax="1473">
      <contour>
        <pt x="668" y="1202" on="1"/>
        <pt x="668" y="1051" on="0"/>
        <pt x="480" y="866" on="0"/>
        <pt x="356" y="866" on="1"/>
        <pt x="256" y="866" on="0"/>
        <pt x="113" y="1010" on="0"/>
        <pt x="113" y="1130" on="1"/>
        <pt x="113" y="1228" on="0"/>
        <pt x="213" y="1390" on="0"/>
        <pt x="357" y="1473" on="0"/>
        <pt x="430" y="1473" on="1"/>
        <pt x="528" y="1473" on="0"/>
        <pt x="668" y="1327" on="0"/>
      </contour>
      <contour>
        <pt x="559" y="1149" on="1"/>
        <pt x="559" y="1259" on="0"/>
        <pt x="462" y="1401" on="0"/>
        <pt x="385" y="1401" on="1"/>
        <pt x="315" y="1401" on="0"/>
        <pt x="219" y="1267" on="0"/>
        <pt x="219" y="1186" on="1"/>
        <pt x="219" y="1069" on="0"/>
        <pt x="332" y="942" on="0"/>
        <pt x="416" y="942" on="1"/>
        <pt x="484" y="942" on="0"/>
        <pt x="559" y="1063" on="0"/>
      </contour>
    </TTGlyph>
</ttFont>
